<svg id="eH3IJFcPYAW1" xmlns="http://www.w3.org/2000/svg" xmlns:xlink="http://www.w3.org/1999/xlink" viewBox="0 0 4602.84 1712.41" shape-rendering="geometricPrecision" text-rendering="geometricPrecision"><path id="eH3IJFcPYAW2" d="M96.96,1706.97c0,0-132.51-300.85-54.89-656.15s364.82-408.41,531.69-694.37c166.86-285.95,422.76-534.12,871.53-134.8c435.81,387.79,730.68,326.94,937.65,163.93c247.04-194.56,658-508.1,992.57-335.5c323.36,166.81,338.14,380.32,734.86,429.14s713.31,313.78,294.59,1230.2l-4308-2.44Z" transform="translate(0-1.500373)" fill="#a2c3f2"/><path id="eH3IJFcPYAW3" d="M1901.11,170.03c2.7,0,5.34.23,7.92.66-.25-1.98-.39-3.99-.39-6.03c0-26.74,21.67-48.41,48.41-48.41c16.86,0,31.69,8.62,40.36,21.68c3.55-23.24,23.62-41.05,47.85-41.05c26.74,0,48.41,21.67,48.41,48.41c0,4.88-.73,9.59-2.07,14.04.69-.03,1.38-.05,2.07-.05c26.74,0,48.41,21.67,48.41,48.41s-21.67,48.41-48.41,48.41c-10.44,0-20.1-3.31-28-8.93-10.73,22.46-33.66,37.98-60.21,37.98-28.41,0-52.65-17.77-62.27-42.79-8.33,14.63-24.05,24.5-42.09,24.5-26.74,0-48.41-21.67-48.41-48.41s21.67-48.41,48.41-48.41Z" transform="translate(-157.745 5.93283)" fill="#a2c3f2"/><g><path d="M585.41,1705.82c-8.68,0-15.72-7.04-15.72-15.72v-357.77c0-8.68,7.04-15.72,15.72-15.72s15.72,7.04,15.72,15.72v357.77c0,8.68-7.04,15.72-15.72,15.72Z" fill="#9b453a"/><path d="M524.69,873.4v0c72.58,0,131.42,58.84,131.42,131.42v182.53c0,62.4,50.59,112.99,112.99,112.99v0c8.83,0,15.99,7.16,15.99,15.99v0c0,8.83-7.16,15.99-15.99,15.99h-245.45c-72.01,0-130.38-58.37-130.38-130.38v-197.12c0-72.58,58.84-131.42,131.42-131.42Z" fill="#ff593a"/><path d="M682.55,1709.41h-194.28c-8.68,0-15.72-7.04-15.72-15.72s7.04-15.72,15.72-15.72h194.28c8.68,0,15.72,7.04,15.72,15.72s-7.04,15.72-15.72,15.72Z" fill="#9b453a"/></g><g><path d="M707.96,781.28c0,0-18.52,234.55,19.19,296.44c31.72,52.06,252.15,18.17,252.15,18.17s-10.57-29.18,0-73.91c0,0-48.91-9.76-122.94-14.64c0,0-38.27-212.86-148.4-226.06Z" fill="#f1f3f2"/><path d="M730.46,1692.23c-2.96,0-5.96-.29-8.98-.9-24.31-4.93-40.03-28.64-35.1-52.96l75.25-371-171.78,6.22c-24.82.91-45.62-18.47-46.52-43.27-.9-24.79,18.47-45.62,43.27-46.52l228.76-8.29c13.76-.48,26.98,5.34,35.88,15.84s12.5,24.5,9.77,37.99l-86.59,426.89c-4.32,21.3-23.05,36-43.98,36Z" fill="#f69d85"/><path d="M682.98,1693.77c.55,2.11,1.48,4.07,2.71,5.78c3.05,4.26,7.94,7.06,13.51,7.08l127.16.34c6.33.02,11.14-3.62,13.56-8.49.75-1.48,1.26-3.08,1.53-4.74.81-4.96-.63-10.35-4.99-14.31l-17.55-15.96-18.86-17.16c-58.85,8.84-115.13-7.02-115.13-7.02l-1.41,27.77-1.08,21.26c-.1,1.89.1,3.72.55,5.45Z" fill="#404d7f"/><path d="M810.58,1655.9c0,0-26.59-24.43-34.5-30.27s-27.76,1.44-25.6,9.55c2.17,8.1,15.86,20.94,15.86,20.94l44.24-.21Z" fill="#404d7f"/><path d="M842.27,1693.03c-.18-.21-.43-.33-.69-.37-.04-.01-.09-.02-.14-.02h-47.65l-36.01.02h-74.81c-.08.01-.17.02-.24.04-.25.05-.47.19-.63.4-.11.15-.19.32-.22.49.01.3.02.45.02.45c1.55,5.99,5.91,10.65,11.38,12.63c1.86.68,3.85,1.05,5.9,1.06l127.16.33h.07c2.51-.01,4.74-.52,6.68-1.4c5.42-2.45,8.61-7.74,9.42-12.75.05-.31-.04-.64-.25-.89Z" fill="#606a97"/><path d="M790.6,1671.32c.4,0,.78-.22.97-.6c5.81-11.41,19.06-13.73,19.19-13.75.6-.1,1-.66.9-1.26s-.66-1-1.26-.9c-.59.1-14.47,2.5-20.79,14.92-.27.54-.06,1.2.48,1.47.16.08.33.12.5.12Z" fill="#f1f3f2"/><path d="M781.31,1662.71c.4,0,.78-.22.97-.6c5.81-11.41,19.06-13.73,19.19-13.75.6-.1,1-.66.9-1.26s-.66-.99-1.26-.9c-.59.1-14.47,2.5-20.79,14.92-.27.54-.06,1.2.48,1.47.16.08.33.12.5.12Z" fill="#f1f3f2"/><path d="M772.42,1654.7c.4,0,.78-.22.97-.6c5.81-11.41,19.06-13.73,19.19-13.75.6-.1,1-.66.9-1.26s-.66-1-1.26-.9c-.59.1-14.47,2.5-20.79,14.91-.27.54-.06,1.2.48,1.47.16.08.33.12.5.12Z" fill="#f1f3f2"/><path d="M818.91,1663.46c0,0,26.51,15.34,23.62,30.45l-48.87-.47c0,0,2.86-22.48,25.25-29.98Z" fill="#606a97"/><path d="M683.5,1667.06c0,0,27.92,1.81,33.42,25.61l-35,1.37c0,0-.51-9.8,1.58-26.98Z" fill="#606a97"/><path d="M673.17,1113.91c0,0,159.33,67.94,196.91,140.52c34.44,66.52-57.26,336.64-57.26,336.64s-64.13,26.15-145.33,0l39.43-267.36c0,0-77.6-5.03-152.02-35.16-103.04-41.72-72.74-164.03-72.74-164.03s52.24,16.03,120.37,6.39c19.71-2.79,70.64-17,70.64-17Z" fill="#3e8edd"/><path d="M910.25,1684.33c-24.07,0-44-19.07-44.87-43.32l-12.72-357.18-193.3-58.91c-23.73-7.23-37.11-32.33-29.87-56.07c7.23-23.73,32.33-37.11,56.07-29.87l223.96,68.25c18.34,5.59,31.11,22.21,31.8,41.37l13.87,389.2c.88,24.79-18.5,45.61-43.29,46.49-.54.02-1.09.03-1.63.03Z" fill="#f69d85"/><path d="M862.7,1693.77c.55,2.11,1.48,4.07,2.71,5.78c3.05,4.26,7.94,7.06,13.5,7.08l127.16.34c6.33.02,11.14-3.62,13.56-8.49.75-1.48,1.26-3.08,1.53-4.74.81-4.96-.63-10.35-4.99-14.31l-17.55-15.96-18.86-17.16c-58.85,8.84-115.13-7.02-115.13-7.02l-1.41,27.77-1.08,21.26c-.1,1.89.1,3.72.55,5.45Z" fill="#404d7f"/><path d="M990.3,1655.9c0,0-26.59-24.43-34.5-30.27s-27.76,1.44-25.6,9.55c2.17,8.1,15.86,20.94,15.86,20.94l44.24-.21Z" fill="#404d7f"/><path d="M1021.99,1693.03c-.18-.21-.43-.33-.69-.37-.04-.01-.09-.02-.14-.02h-47.65l-36.01.02h-74.81c-.08.01-.17.02-.24.04-.25.05-.47.19-.63.4-.11.15-.19.32-.22.49.01.3.02.45.02.45c1.56,5.99,5.91,10.65,11.38,12.63c1.86.68,3.85,1.05,5.9,1.06l127.16.33h.07c2.5-.01,4.74-.52,6.68-1.4c5.42-2.45,8.61-7.74,9.42-12.75.05-.31-.04-.64-.25-.89Z" fill="#606a97"/><path d="M970.31,1671.32c.4,0,.78-.22.97-.6c5.81-11.41,19.06-13.73,19.19-13.75.6-.1,1-.66.9-1.26s-.66-1-1.26-.9c-.59.1-14.47,2.5-20.79,14.92-.27.54-.06,1.2.48,1.47.16.08.33.12.5.12Z" fill="#f1f3f2"/><path d="M961.03,1662.71c.4,0,.78-.22.97-.6c5.81-11.41,19.06-13.73,19.19-13.75.6-.1,1-.66.9-1.26s-.66-.99-1.26-.9c-.59.1-14.47,2.5-20.79,14.92-.27.54-.06,1.2.48,1.47.16.08.33.12.5.12Z" fill="#f1f3f2"/><path d="M952.14,1654.7c.4,0,.78-.22.97-.6c5.81-11.41,19.06-13.73,19.19-13.75.6-.1,1-.66.9-1.26s-.66-1-1.26-.9c-.59.1-14.47,2.5-20.79,14.91-.27.54-.06,1.2.48,1.47.16.08.33.12.5.12Z" fill="#f1f3f2"/><path d="M998.63,1663.46c0,0,26.51,15.34,23.62,30.45l-48.87-.47c0,0,2.86-22.48,25.25-29.98Z" fill="#606a97"/><path d="M863.22,1667.06c0,0,27.92,1.81,33.42,25.61l-35,1.37c0,0-.51-9.8,1.58-26.98Z" fill="#606a97"/><path d="M788.92,1124.52c0,0,100.38,22.15,152.83,87.33c51.79,64.35,48.71,379.23,48.71,379.23s-64.13,26.15-145.33,0l-20.57-266.29c0,0-109.2-5.09-185.23-30.91-122.77-41.7-143.4-169.35-143.4-169.35h292.99Z" fill="#3e8edd"/><path d="M837.76,1507.88c-.07,0-.15,0-.22-.02-.56-.12-.92-.68-.8-1.24.36-1.68,36.36-168.19,39.8-196.21c1.9-15.47,2.28-36.48-11.78-61.83-17.35-31.29-52.74-61.28-105.2-89.13-.51-.27-.7-.9-.43-1.41s.9-.7,1.41-.43c52.82,28.05,88.5,58.32,106.05,89.96c14.35,25.88,13.96,47.31,12.03,63.1-3.45,28.11-39.47,194.71-39.83,196.39-.11.49-.54.82-1.02.82Z" fill="#305777"/><path d="M753.49,1570.65c-44.49,0-81.17-9.26-81.72-9.4-.56-.14-.89-.71-.75-1.27s.71-.9,1.27-.75c.82.21,82.84,20.9,150.17.01.55-.17,1.14.14,1.31.69s-.14,1.13-.69,1.31c-22.76,7.06-47.17,9.41-69.59,9.41Z" fill="#305777"/><path d="M919.75,1569.71c-43.42,0-76.77-8.33-77.27-8.46-.56-.14-.9-.71-.75-1.27.14-.56.71-.9,1.27-.75.75.19,75.3,18.8,146.59,0c.56-.14,1.13.19,1.28.74.15.56-.19,1.13-.74,1.28-24.06,6.35-48.5,8.46-70.37,8.46Z" fill="#305777"/><rect width="64.85" height="101.66" rx="0" ry="0" transform="translate(624.45 700.02)" fill="#f69d85"/><path d="M636.54,750.84c27.3,13.83,52.76,11.01,52.76,11.01v-19.69l-52.76,8.68Z" fill="#d1836b"/><path d="M653.02,1140.74l5.3-1.43c59.9,0,108.98-30.39,108.98-90.29L757.25,954.9c0-59.9-38.51-180.39-98.41-180.39h-3.94c-59.9,0-108.45,48.56-108.45,108.45v166.06c0,59.9,46.67,91.71,106.57,91.71Z" fill="#f69d85"/><path d="M707.96,781.28c0,0-46.66,43.56-99.29-3.7c0,0-61.87,17.89-91.64,105.01-54.35,159.03-42.3,247.08-42.3,247.08s105.19,29.7,194.57,18.48c88.63-11.13,119.6-23.63,119.6-23.63s2.23-68.67-6.49-165.44c-8-88.82-38.51-135.4-74.47-177.8Z" fill="#ffb12a"/><path d="M608.67,777.59c0,0,26.84,64.44,28.47,159.19s20.9,370.49,21.18,413.39c0,0-115,13.45-182.98-10.21c0,0-1.91-69.45-1.91-134.81c0-61.73.18-173.62,9.41-211.49C498.02,931.39,608.67,777.6,608.67,777.6Z" fill="#f1f3f2"/><path d="M723.9,1095.9c0,0,17.59-34.41,0-68.6c0,0-25.9,42.89,0,68.6Z" fill="#818496"/><path d="M624.45,765.28c0,0,30.86,20.71,47.4,20.71c14.92,0,17.45-14.82,17.45-14.82l18.66,10.11-13.97,40.06-19.76-23.39-13.49,25.72-52.06-46.09l15.78-12.3Z" fill="#f1f3f2"/><path d="M581.62,655.46c-2.16,9.77,4,19.44,13.77,21.6s19.44-4,21.6-13.77-4-19.44-13.77-21.6-19.44,4-21.6,13.77Z" fill="#f69d85"/><path d="M596.22,670.71c.06.03.11.06.18.08.56.18,1.16-.13,1.34-.68c2.13-6.61-1.9-9.28-4.56-11.05-1.19-.79-2.32-1.54-2.47-2.31-.08-.42.11-.99.57-1.67c3.65-5.39,10.98-3.48,11.29-3.39.56.15,1.15-.18,1.3-.74s-.18-1.15-.74-1.3c-.37-.1-9.1-2.41-13.61,4.25-.8,1.19-1.1,2.26-.9,3.27.32,1.63,1.81,2.62,3.38,3.66c2.63,1.75,5.35,3.55,3.71,8.63-.16.5.06,1.02.51,1.26Z" fill="#bc6b55"/><path d="M726.94,689.97c-2.16,9.77,4,19.44,13.77,21.6s19.44-4,21.6-13.77-4-19.44-13.77-21.6-19.44,4-21.6,13.77Z" fill="#f69d85"/><path d="M707.96,781.28c0,0,53.74,95.02,67.41,199.17c13.67,104.16,13.54,144.06,13.54,144.06l8.77,2.24c0,0,1.14-116.91-11.1-197.86s-78.62-147.61-78.62-147.61Z" fill="#f1f3f2"/><path d="M743.75,705.76c.11.06.23.1.35.11.58.08,1.12-.32,1.2-.9.74-5.29,3.98-5.72,7.11-6.14c1.87-.25,3.64-.49,4.64-1.82.62-.82.83-1.92.62-3.34-1.14-7.96-10.01-9.7-10.38-9.77-.58-.11-1.13.27-1.24.85s.27,1.13.85,1.24c.32.06,7.75,1.54,8.67,7.98.12.82.05,1.41-.22,1.76-.47.62-1.81.8-3.23,1-3.17.43-7.96,1.07-8.93,7.95-.06.45.17.88.55,1.08Z" fill="#bc6b55"/><path d="M654.34,753.31v0c36.77,8.14,73.18-15.07,81.31-51.84l7.65-34.56c8.14-36.77-15.07-73.18-51.84-81.31v0c-36.77-8.14-73.18,15.07-81.31,51.84L602.5,672c-8.14,36.77,15.07,73.18,51.84,81.31Z" fill="#f69d85"/><path d="M644.21,699.5c-.76,4.01.89,10.02,6.2,15.27c7.21,7.13,23.62,11.09,31.98,8.43c4.49-1.43,7.94-4.64,9.5-7.81c1.34-2.74,1.27-5.44-.73-6.96-4.33-3.29-18.37-2.59-26.66-7.38-8.93-5.16-15.5-8.06-18.63-4.96-.82.81-1.4,1.98-1.66,3.41Z" fill="#d1836b"/><path d="M644.21,699.5c17.89,13.01,44.69,15.63,47.68,15.89c1.34-2.74,1.27-5.44-.73-6.96-4.33-3.29-18.37-2.59-26.66-7.38-8.93-5.16-15.5-8.06-18.63-4.96-.82.81-1.4,1.98-1.66,3.41Z" fill="#f1f3f2"/><path d="M649.66,715.52c-5.94-5.87-7.25-12.23-6.49-16.22.3-1.64.98-3.01,1.96-3.97c3.57-3.53,10.27-.78,19.91,4.79c4.27,2.48,10.26,3.45,15.54,4.3c4.83.79,9,1.47,11.23,3.15c2.28,1.74,2.68,4.91,1.04,8.28-1.85,3.75-5.73,6.96-10.13,8.36-7.05,2.24-18.67.11-26.92-4.32-2.39-1.28-4.5-2.75-6.13-4.37Zm30.58-9c-5.46-.89-11.65-1.89-16.27-4.56-7.39-4.27-14.6-7.85-17.36-5.12-.67.66-1.14,1.64-1.36,2.85v0c-.62,3.3.55,9.03,5.9,14.33c6.69,6.62,22.58,10.82,30.91,8.17c4.63-1.47,7.62-4.72,8.87-7.27.45-.91,1.73-4.02-.41-5.65-.2-.15-.42-.29-.67-.42-2.03-1.09-5.73-1.69-9.62-2.32Z" fill="#bc6b55"/><path d="M634.47,670.14c-1.34,3.38.58,7.32,4.29,8.79s7.8-.08,9.14-3.47c1.34-3.38-.58-7.32-4.29-8.79s-7.8.08-9.14,3.47Z" fill="#d1836b"/><path d="M787.49,970.73c-.47,0-.89-.34-.98-.82-11.98-65.05-28.29-117.68-28.46-118.2-.16-.53.13-1.09.66-1.25.53-.17,1.09.13,1.25.66.16.52,16.52,53.26,28.51,118.44.1.54-.26,1.06-.8,1.16-.06.01-.12.02-.18.02Z" fill="#818496"/><path d="M705.81,692.26c-1.34,3.38.58,7.32,4.29,8.79s7.8-.08,9.14-3.47c1.34-3.38-.58-7.32-4.29-8.79s-7.8.08-9.14,3.47Z" fill="#d1836b"/><path d="M648.53,571.76c0,0-3.74-24.1,9.92-31.37c13.93-7.41,29.06,7.63,34.59,18.99c0,0,5.15-9.61,13.74-17.6c14.96-13.92,44.92,2.2,19.04,31.2c0,0,12.76-13.93,34.9-3.83c22.13,10.1,5.92,34.56-15.02,35.7c0,0,25.64-.83,29.37,21.05c1.77,10.39-4.11,16.47-13.62,18.33-2.12,8.14-7.57,23.27-20.18,31.84c0,0,1.52-20.9-5.05-34.54-4.71-1.6-9.52-3.77-14.21-6.52-26.57-15.57-38.45-33.88-38.45-33.88s-8.03,13.82-24.21,16.18c-8.09,1.18-16.3.15-23.66-2.72l.28.43c0,0-15.14,9.2-27.32,29.25c0,0-14.21-28.18,8.39-43.61-9.86-13.42,3.21-42.34,31.51-28.92Z" fill="#6d4738"/><path d="M675.16,691.56c.14.08.31.12.49.13c1,.01,9.75,0,10.43-4.5.57-3.81-1.13-21.87-1.21-22.64-.06-.58-.57-1.01-1.16-.96-.58.06-1.01.57-.96,1.16.49,5.15,1.67,19.17,1.22,22.12-.32,2.12-5.73,2.73-8.31,2.7-.59,0-1.07.46-1.07,1.05c0,.41.22.77.56.95Z" fill="#bc6b55"/><path d="M706.99,669.74c-1.4,4.89-4.56,8.27-7.05,7.56s-3.38-5.26-1.98-10.15s4.56-8.27,7.05-7.56s3.38,5.26,1.98,10.15Z" fill="#4e484a"/><path d="M669.96,660.4c-1.4,4.89-4.56,8.27-7.05,7.56s-3.38-5.26-1.98-10.15s4.56-8.27,7.05-7.56s3.38,5.26,1.98,10.15Z" fill="#4e484a"/><path d="M699.5,645.63c.24.13.51.2.79.21c11.3.31,19.97,9.28,20.05,9.37.68.71,1.81.74,2.52.06s.74-1.8.06-2.52c-.39-.41-9.79-10.13-22.54-10.48-.98-.03-1.8.75-1.83,1.73-.02.7.36,1.31.94,1.62Z" fill="#bc6b55"/><path d="M651.16,637.45c.4.22.89.28,1.37.13c14.27-4.4,20.9,2.03,20.96,2.1.69.69,1.82.7,2.52,0c.7-.69.7-1.82,0-2.52-.33-.33-8.23-8.01-24.53-2.99-.94.29-1.47,1.29-1.18,2.23.14.47.46.83.86,1.04Z" fill="#bc6b55"/><path d="M615.97,658.61c-.47-10.36-5.83-21.18-5.83-21.18s-24.98,65.62,6.91,100.19c23.69,25.69,78.75,34.4,106.43-3.72c19.07-26.26,17.93-63.59,17.93-63.59s-5.1,9.83-8.9,17.07c-3.76,7.16-6.34,17.45-14.33,26.71l-6.38-7.45c-4.95-4.56-11.13-7.71-17.81-8.5-.05,0-.1-.01-.15-.02-8-.91-21.66-3.61-34.92-11.59-2.45-1.48-5.09-2.57-7.83-3.3-4.78-1.27-9.82-1.18-14.67-.21l-12.57,3.87c0,0-6.8-4.32-7.89-28.3Zm29.71,30.24c2.33-.54,4.77-.09,6.86,1.08c18.27,10.29,33.15,13.17,40.46,13.97c4.7.51,8.63,4.28,8.66,9.01c0,1.37-.28,2.8-1.05,4.23-4.35,8.11-14.09,15.65-37.07,9.4-21.64-5.88-28.42-25.26-25.88-31.76c1.43-3.67,5.1-5.25,8.03-5.93Z" fill="#6d4738"/><path d="M503.48,1088.74h236.87c15.54,0,28.14-12.6,28.14-28.14s-12.6-28.14-28.14-28.14h-199.11l55.91-187.45c4.44-14.89-4.03-30.57-18.92-35.01s-30.57,4.03-35.01,18.92l-66.7,223.63c-2.54,8.52-.91,17.73,4.4,24.86s13.68,11.32,22.56,11.32Z" fill="#f69d85"/><path d="M608.67,777.59c0,0-59.67-15.5-111.19,59.38-37.84,55-65.88,182.15-28.62,244.31c25.66,42.82,255.04,14.63,255.04,14.63s-10.57-23.87,0-68.6c0,0-60.98-12.19-132.6-17.91c0,0,31.46-117.62,17.37-231.8Z" fill="#f1f3f2"/><path d="M700.6,1099.41c-.39,0-.76-.23-.92-.6-14.75-34.18-.17-75.64-.02-76.05.19-.52.76-.79,1.28-.6s.79.76.6,1.28c-.15.41-14.46,41.14-.02,74.58.22.51-.01,1.1-.52,1.31-.13.06-.26.08-.4.08Z" fill="#818496"/><path d="M489.59,1096.54c.58,0,1.12-.38,1.29-.97.21-.71-.21-1.46-.92-1.66-8.68-2.51-12.93-6.29-12.98-6.33-.55-.5-1.4-.46-1.9.09s-.46,1.4.09,1.89c.19.17,4.7,4.22,14.04,6.92.12.04.25.05.37.05Z" fill="#818496"/><path d="M640.05,1015.33c0,0-.07,0-.11,0-.34-.04-34.08-3.6-48.74-4.94-.29-.03-.55-.18-.72-.41s-.23-.53-.16-.81c.22-.94,22.04-94.28,20.73-152.23-.01-.55.42-1.01.98-1.02.51-.03,1.01.42,1.02.98c1.24,54.75-18.05,140.8-20.53,151.61c15.2,1.41,47.29,4.8,47.62,4.84.55.06.95.55.89,1.1-.05.51-.49.89-.99.89Z" fill="#818496"/><path d="M590.77,1327.78c-62.28,0-115.52-11.58-116.24-11.74-.54-.12-.88-.65-.76-1.19s.65-.88,1.19-.76c.96.21,97.18,21.13,182.15,6.5.54-.09,1.06.27,1.15.82.09.54-.27,1.06-.82,1.16-22.09,3.8-44.94,5.21-66.68,5.21Z" fill="#818496"/><path d="M558.05,1268.44c-9.48,0-17.54-3.52-23.96-10.46-22.15-23.95-17.98-80.18-17.8-82.57.04-.53.51-.89,1.03-.92l89.62,2.59c.52.02.94.42.97.94.12,2.17,2.73,53.48-20.38,77.95-7.81,8.27-17.71,12.46-29.45,12.47h-.03Zm-39.83-91.92c-.46,7.59-2.69,58.45,17.34,80.11c6.02,6.51,13.59,9.82,22.49,9.82h.03c11.16,0,20.58-3.99,27.99-11.84c20.87-22.09,20.12-68.45,19.88-75.55l-87.73-2.53Z" fill="#818496"/><path d="M606.75,1199.08c0,0-.03,0-.04,0l-89.73-3.92c-.55-.02-.98-.49-.96-1.04s.51-.97,1.04-.96l89.73,3.92c.55.02.98.49.96,1.04-.02.54-.47.96-1,.96Z" fill="#818496"/><path d="M721.71,1088.71c0,0,22.53,3.12,47.21-5.02c23.11-7.62,28.83-16.22,33.26-25.85s-37.1-23.86-53.01-21.02c-15.92,2.84-27.63,27.82-27.45,51.88Z" fill="#f69d85"/><g><rect width="74.89" height="15.03" rx="0" ry="0" transform="translate(926.43 944.01)" fill="#2275fe"/><path d="M810.36,1096.4h197.11v-17.69c0-38.41-31.13-69.54-69.54-69.54h-58.03c-38.41,0-69.54,31.13-69.54,69.54v17.69Z" fill="#404660"/><rect width="29.47" height="45.95" rx="0" ry="0" transform="matrix(-1 0 0-1 923.66 1016.62)" fill="#404660"/><polygon points="1042.25,988.51 1042.25,959.04 763.88,959.04 776.42,988.51 1042.25,988.51" fill="#404660"/><path d="M893.97,1062.43c-3.52,0-26.2-.38-52.46-9.77-37.87-13.53-65.57-39.31-80.08-74.55-18.79-45.61-13.59-91.45,15.04-132.55c20.98-30.12,47.29-46.98,48.4-47.68c7.56-4.79,17.58-2.55,22.37,5.02c4.79,7.55,2.55,17.55-4.99,22.35-.44.29-22.65,14.74-39.74,39.66-21.82,31.82-25.56,65.75-11.1,100.84c10.95,26.58,31.15,45.43,60.05,56.01c22.12,8.11,41.48,8.23,42.51,8.23.02,0,.04,0,.04,0c.08,0,.16,0,.23,0c8.85,0,16.06,7.11,16.18,15.98.13,8.95-7.05,16.31-16.01,16.44-.06,0-.21,0-.44,0Z" fill="#404660"/><rect width="53.81" height="202.83" rx="0" ry="0" transform="matrix(-.716667 0.697415-.697415-.716667 952.6383 877.110788)" fill="#404660"/><path d="M944.51,907.29v0c7.7-7.49,7.87-19.81.38-27.51l-5.53-5.69-27.89,27.14l5.53,5.68c7.49,7.7,19.81,7.87,27.51.38Z" fill="#404660"/><rect width="24.01" height="18.48" rx="0" ry="0" transform="matrix(-.716667 0.697415-.697415-.716667 805.982625 747.763398)" fill="#404660"/><circle r="19.45" transform="matrix(.767053-.641584 0.641584 0.767053 841.844923 801.796668)" fill="#818496"/><path d="M841.85,809.81c0,0-.07,0-.11,0-2.15-.03-4.15-.89-5.65-2.43v0c-1.5-1.54-2.31-3.57-2.28-5.71s.89-4.15,2.43-5.65s3.54-2.3,5.71-2.28c2.15.03,4.15.89,5.65,2.43s2.31,3.57,2.28,5.71c-.03,2.15-.89,4.15-2.43,5.65-1.51,1.47-3.5,2.28-5.6,2.28Zm0-14.07c-1.58,0-3.07.61-4.21,1.71-1.16,1.12-1.8,2.63-1.83,4.24-.02,1.61.59,3.14,1.71,4.29v0c1.12,1.16,2.63,1.8,4.24,1.83c1.59.03,3.14-.59,4.29-1.71c1.16-1.12,1.8-2.63,1.83-4.24.02-1.61-.59-3.14-1.71-4.29-1.12-1.16-2.63-1.8-4.24-1.83-.03,0-.06,0-.09,0Z" fill="#f1f3f2"/><path d="M923.65,1010.17h-29.47c-.55,0-1-.45-1-1s.45-1,1-1h29.47c.55,0,1,.45,1,1s-.45,1-1,1Z" fill="#818496"/><path d="M804.47,989.51c-.3,0-.6-.14-.8-.4-11.22-14.9-15.42-29.66-15.46-29.8-.15-.53.16-1.08.69-1.23s1.08.16,1.23.69c.04.14,4.15,14.55,15.13,29.14.33.44.24,1.07-.2,1.4-.18.14-.39.2-.6.2Z" fill="#818496"/><path d="M833.95,833.25c-.26,0-.52-.1-.72-.3l-22.81-23.44c-.39-.4-.38-1.03.02-1.41s1.03-.38,1.41.02l22.81,23.44c.39.4.38,1.03-.02,1.41-.19.19-.45.28-.7.28Z" fill="#818496"/><path d="M783.3,759.82c-.26,0-.52-.1-.72-.31-.38-.4-.37-1.03.03-1.41l17.28-16.67c.4-.38,1.03-.37,1.41.03s.37,1.03-.03,1.41l-17.28,16.67c-.19.19-.44.28-.69.28Z" fill="#818496"/><path d="M919.41,910.39c-.26,0-.52-.1-.72-.3-.39-.4-.38-1.03.02-1.41l27.89-27.14c.4-.39,1.03-.38,1.41.02.39.4.38,1.03-.02,1.41L920.1,910.11c-.19.19-.45.28-.7.28Z" fill="#818496"/><path d="M818.09,1047.82c-.15,0-.3-.03-.44-.1-.49-.25-.7-.84-.45-1.34c10.52-21.21,26.37-28.23,27.04-28.52.51-.22,1.09.01,1.31.52s-.01,1.09-.52,1.31c-.16.07-15.87,7.06-26.04,27.58-.17.35-.53.56-.9.56Z" fill="#818496"/><path d="M1007.48,1079.71h-197.11c-.55,0-1-.45-1-1s.45-1,1-1h197.11c.55,0,1,.45,1,1s-.45,1-1,1Z" fill="#818496"/></g><path d="M767.3,1084.2c12.19-3.49,24.68-4.4,37.07-1.55c5.58,1.28,16.76,8.1,20.27-.6c3.9-12.16-47.92-22.44-57.31-22.58-25.23-4.16-20.5,32.55-.03,24.72Z" fill="#f69d85"/><path d="M775.29,1073.18c11.65-3.98,24.5-4.46,36.77-3.13c6.5-.38,17.5,6.93,20.31-2.17c1.96-9.62-24.61-13.43-31.71-15.41-10.21-1.71-20.85-2.42-31.19-.72-13.99,3.87-8.22,25.18,5.82,21.43Z" fill="#f69d85"/><path d="M773.99,1062.68c17.55-7.26,37.81-8.62,56.12-3.19c6.73,1.99,10.4-8.25,4-11.01-7.59-3.69-15.88-6.4-24.22-7.93-14.51-2.43-29.64-2.34-43.95,1.37-15.32,4.62-6.41,27.68,8.04,20.76Z" fill="#f69d85"/><path d="M749.69,1051.16c18.41-7.7,38.81-12.19,58.79-10.69c6.61.54,13.11,1.94,19.32,4.25c3.08,1.25,6.62-.3,7.75-3.44c3.55-13.33-38.78-17.56-47.97-17.37-15.81,0-34.04,3.28-49.16,7.93-14.98,5.24-2.86,26.61,11.27,19.32Z" fill="#f69d85"/><path d="M810.68,1070.47c.23-.06.43-.22.53-.46.16-.39-.03-.84-.43-1-.11-.05-11.51-4.52-27.16-4.81-.42,0-.77.33-.78.75c0,.42.33.77.75.78c15.36.28,26.51,4.65,26.62,4.7.15.06.32.07.47.03Z" fill="#bc6b55"/><path d="M817.51,1057.53c.25-.06.46-.25.55-.51.13-.4-.09-.84-.49-.97-.13-.04-12.95-4.16-30.16-5.23-.43-.02-.79.3-.81.72s.3.79.72.81c17.01,1.05,29.66,5.12,29.78,5.16.14.05.29.05.42.02Z" fill="#bc6b55"/><path d="M817.21,1042.79c.28-.07.51-.29.57-.59.09-.41-.18-.82-.6-.91-.15-.03-14.8-3.05-27.65-3.47-.42-.01-.78.32-.79.74s.32.78.74.79c12.71.41,27.24,3.41,27.38,3.44.12.02.23.02.34,0Z" fill="#bc6b55"/></g><g><rect width="31.96" height="595.6" rx="0" ry="0" transform="translate(1178.64 1112.53)" fill="#30313c"/><path d="M1386.03,1708.12h31.96v-597.66c0-7.77-7.15-14.06-15.98-14.06h-1005.53v28.12h989.55v583.6Z" fill="#30313c"/><path d="M180.59,1708.12h31.96v-583.6h175.43v583.6h31.96v-597.66c0-7.77-7.15-14.06-15.98-14.06h-207.39c-8.82,0-15.98,6.3-15.98,14.06v597.66Z" fill="#30313c"/></g><path d="M4144,1115.82c-10.45,0-19.43-3.61-26.74-10.75-23.37-22.85-22.07-73.57-22-75.71.02-.53.44-.95.97-.97l84.71-2.81c0,0,.02,0,.03,0c.49,0,.91.36.99.85.34,2.16,8.04,53.26-11.48,77.32-6.04,7.45-14.11,11.49-23.98,12.01-.84.04-1.67.07-2.5.07Zm-46.75-85.47c-.06,7.11.38,52.71,21.42,73.29c7.46,7.3,16.8,10.7,27.73,10.12c9.29-.49,16.87-4.29,22.53-11.27c17.6-21.7,12.12-67.94,11.18-74.88l-82.86,2.75Z" fill="#818496"/><path d="M4096.95,1047.82c-.54,0-.98-.43-1-.97-.02-.55.42-1.01.97-1.03l85.57-2.54c.53.01,1.01.42,1.03.97s-.42,1.01-.97,1.03l-85.57,2.54h-.03Z" fill="#818496"/><g><g><path d="M2364.25,1335.66c76.55,451.47,458.6,341.96,458.6,341.96c180.6,86.38,408.64-98.79,444.58-349.18c34.67-241.55-152.21-458.63-438.96-373.06c0,0-158.05-72.88-325.82,11.62-90.32,45.49-168.02,193.99-138.4,368.65Z" fill="#ff593a"/><path d="M2910.86,770.7c-84.37,98.69-82.8,238.51-82.8,238.51s138.36-20.18,222.73-118.87s82.79-238.51,82.79-238.51-138.36,20.18-222.73,118.87Z" fill="#60bf60"/><path d="M2832.85,1025.13c.19-.06.38-.11.57-.17c8.69-2.96,13.35-12.42,10.38-21.12l-85.64-251.59c-2.96-8.69-12.56-13.09-21.12-10.39-8.69,2.96-13.35,12.42-10.38,21.12l85.64,251.59c2.9,8.5,12.02,13.14,20.56,10.56Z" fill="#9b453a"/><path d="M2843.81,1005.84c-.45,0-.9-.15-1.27-.46-.85-.7-.97-1.96-.27-2.82l289.78-352.01c.7-.85,1.96-.98,2.82-.27.85.7.97,1.96.27,2.81L2845.36,1005.1c-.4.48-.97.73-1.54.73Z" fill="#1e961e"/></g><g><path d="M2528.68,1507.51c349.9-140.69,705.52-217.21,973.28-503.92c58.46-60.2,109.24-127.09,163.68-190.87c29.56-34.97,90.83-18.63,99.54,25.85c13.26,58.53,14.58,119.36,8.86,178.94-6.57,61.03-21.19,121.43-43.88,178.5-94.97,245.72-327.18,421.11-579.33,482.47-202.9,49.51-426.52,38.26-614.83-56.25l-6.2-3.35-6.24-3.52-3.18-1.8-1.67-.96-.83-.48-1.06-.51c-25.64-12.32-36.44-43.09-24.12-68.73c5.32-13.11,25.42-26.64,35.98-35.37Z" transform="translate(.000001 0)" fill="#ffb12a"/><path d="M3867.44,746.68c-49.36,15.5-90,53.96-116.56,96.98-24.44,50.34-98.13,12.38-71.91-37.14c20.15-45.21,50.19-86.03,88.23-118.03c10.97-9.16,22.83-17.75,35.09-25.1c81.16-62.04,144.38,47.62,65.15,83.29Z" fill="#ffb12a"/><path d="M2800.39,1605.68c-142.78,0-249.16-19.83-250.3-20.04-1.09-.21-1.8-1.25-1.59-2.34.21-1.08,1.25-1.81,2.34-1.59c1.22.23,123.63,23.04,282.11,19.62c146.13-3.15,353.69-29.89,512.58-139.37c315.19-217.17,376.78-476.45,395.69-652.58.12-1.1,1.09-1.89,2.2-1.78c1.1.12,1.89,1.1,1.77,2.2-13.14,122.37-41.85,223.53-90.37,318.36-31.02,60.63-70.53,118.27-117.42,171.3-52.75,59.66-116.55,115.44-189.61,165.78-70.55,48.61-156.41,85.19-255.19,108.71-78.97,18.8-166.33,29.36-259.65,31.37-11.03.24-21.9.35-32.56.35Z" fill="#997243"/><path d="M2543.4,1535.87c-1.01,0-1.88-.76-1.99-1.79-.12-1.1.68-2.08,1.78-2.2c204.56-21.55,473.67-64.31,741.26-204.94c144.15-75.76,251.15-216,315.53-320.32c69.79-113.08,105.9-209.42,106.26-210.38.39-1.04,1.54-1.56,2.57-1.18c1.04.38,1.56,1.54,1.18,2.57-.36.96-36.6,97.68-106.6,211.09-41.12,66.63-85.68,125.91-132.43,176.22-58.49,62.92-120.61,111.89-184.64,145.54-123.39,64.85-260.29,115.51-406.89,150.58-128.58,30.76-247,45.44-335.81,54.8-.07,0-.14.01-.21.01Z" fill="#997243"/><path d="M2529.8,1620.88c-.49,0-.97-.18-1.36-.53-.81-.75-.86-2.02-.11-2.83c19.01-20.55,24.63-45.02,16.7-72.75-5.97-20.87-17.79-35.86-17.91-36.01-.69-.86-.55-2.12.32-2.81.86-.69,2.12-.55,2.81.31.5.63,12.39,15.67,18.6,37.28c5.77,20.09,7.41,49.7-17.57,76.7-.39.43-.93.64-1.47.64Z" fill="#997243"/><path d="M3761.7,829.49c-.6,0-1.19-.27-1.58-.77-13.84-17.82-31.03-27.81-51.09-29.7-15.02-1.41-26.13,2.51-26.24,2.55-1.04.37-2.18-.16-2.56-1.2s.16-2.18,1.2-2.56c.48-.17,11.92-4.24,27.79-2.78c14.63,1.34,35.89,7.84,54.06,31.24.68.87.52,2.13-.35,2.81-.36.28-.8.42-1.23.42Z" fill="#997243"/></g><g><path d="M2992.13,1491.38c14.68-79.38,71.75-134.61,314.2-88.85s579.98,177.64,568.39,239.08c-11.6,61.44-379.97,89.89-622.42,44.13s-275.33-112.4-260.17-194.37Z" fill="#ff593a"/><path d="M2776.32,1405.47c149.75,23.52,262.38,98.4,262.38,98.4s-130.16,36.74-279.91,13.22-262.38-98.39-262.38-98.39s130.16-36.74,279.91-13.22Z" fill="#60bf60"/><path d="M2846.2,1300.53c124.24,86.85,192.59,203.55,192.59,203.55s-133.08-24.1-257.32-110.95-192.59-203.55-192.59-203.55s133.08,24.1,257.32,110.95Z" fill="#60bf60"/><path d="M2758.83,1519.32c146.59-38.58,279.81-15.23,279.81-15.23s-104.46,85.91-251.05,124.49-279.81,15.23-279.81,15.23s104.46-85.91,251.05-124.49Z" fill="#60bf60"/><path d="M3089.85,1616.48c-.57,0-1.16-.08-1.74-.25-3.28-.96-5.17-4.39-4.21-7.68l22.13-75.87c.96-3.28,4.4-5.16,7.68-4.21c3.28.96,5.17,4.39,4.21,7.68l-22.13,75.87c-.79,2.7-3.26,4.46-5.94,4.46Z" fill="#9b453a"/><path d="M3179.38,1547.1h-.07c-3.42-.04-6.16-2.84-6.12-6.26l.88-82.06c.04-3.4,2.8-6.12,6.19-6.12h.07c3.42.04,6.16,2.84,6.12,6.26l-.88,82.06c-.04,3.4-2.8,6.12-6.19,6.12Z" fill="#9b453a"/><path d="M3236.72,1637.91c-.57,0-1.16-.08-1.74-.25-3.28-.96-5.17-4.39-4.21-7.68l22.13-75.87c.96-3.28,4.4-5.16,7.68-4.21c3.28.96,5.17,4.39,4.21,7.68l-22.13,75.87c-.79,2.7-3.26,4.46-5.94,4.46Z" fill="#9b453a"/><path d="M3301.33,1526.68c-.18,0-.36,0-.54-.02-3.41-.29-5.93-3.3-5.63-6.7l6.95-80.29c.29-3.41,3.29-5.92,6.7-5.63s5.93,3.3,5.63,6.7l-6.95,80.29c-.28,3.22-2.98,5.66-6.16,5.66Z" fill="#9b453a"/><path d="M3411.53,1676.68c-.57,0-1.16-.08-1.74-.25-3.28-.96-5.17-4.39-4.21-7.68l21.94-75.23c.96-3.28,4.4-5.16,7.68-4.21c3.28.96,5.17,4.39,4.21,7.68l-21.94,75.23c-.79,2.7-3.26,4.46-5.94,4.46Z" fill="#9b453a"/><path d="M3502.37,1650.4c-.17,0-.34,0-.51-.02-3.41-.28-5.94-3.27-5.66-6.68l5.81-70.75c.28-3.41,3.26-5.94,6.68-5.66c3.41.28,5.94,3.27,5.66,6.68l-5.81,70.75c-.27,3.24-2.97,5.68-6.16,5.68Z" fill="#9b453a"/><path d="M3567.59,1589.87c-.24,0-.49-.01-.74-.04-3.39-.41-5.82-3.49-5.42-6.88l7.85-65.92c.41-3.39,3.48-5.81,6.88-5.42c3.39.41,5.82,3.49,5.42,6.88l-7.85,65.92c-.38,3.15-3.05,5.46-6.14,5.46Z" fill="#9b453a"/><path d="M3643.97,1669.58c-.52,0-1.05-.07-1.58-.21-3.31-.87-5.28-4.26-4.41-7.57l13.8-52.27c.87-3.31,4.26-5.28,7.57-4.41s5.28,4.26,4.41,7.57l-13.8,52.27c-.73,2.78-3.24,4.61-5.98,4.61Z" fill="#9b453a"/><path d="M3385.31,1580.05c-.24,0-.48-.01-.72-.04-3.4-.39-5.83-3.46-5.44-6.86l8.67-74.91c.39-3.4,3.47-5.84,6.86-5.44c3.4.39,5.83,3.46,5.44,6.86l-8.67,74.91c-.37,3.15-3.04,5.48-6.14,5.48Z" fill="#9b453a"/><path d="M3755.05,1644.54c-.29,0-.58-.02-.87-.06-3.39-.48-5.74-3.61-5.27-6.99l9.23-65.52c.48-3.39,3.62-5.74,6.99-5.27c3.39.48,5.74,3.61,5.27,6.99l-9.23,65.52c-.44,3.09-3.09,5.33-6.12,5.33Z" fill="#9b453a"/><path d="M3038.64,1506.09c-.1,0-.21,0-.31-.02l-542.23-85.4c-1.09-.17-1.84-1.2-1.66-2.29.17-1.09,1.2-1.84,2.29-1.66l533.67,84.05-442.67-309.54c-.91-.63-1.13-1.88-.49-2.79.63-.9,1.88-1.12,2.79-.49l449.77,314.5c.76.53,1.06,1.52.71,2.39-.31.76-1.05,1.25-1.85,1.25Z" fill="#1e961e"/><path d="M2507.78,1645.81c-.89,0-1.7-.59-1.93-1.49-.28-1.07.36-2.16,1.43-2.44l469.76-123.64c-106.85,14.85-217.1,3.21-218.42,3.07-1.1-.12-1.89-1.11-1.77-2.21s1.09-1.9,2.21-1.77c1.56.17,157.36,16.61,277.53-14.77l1.55-.41c1.07-.28,2.16.36,2.44,1.42.28,1.07-.35,2.16-1.42,2.44v0c-.51.14-1.02.27-1.52.4L2508.3,1645.73c-.17.04-.34.07-.51.07Z" fill="#1e961e"/><path d="M3038.64,1506.09c-.09,0-.18,0-.27-.02-92.88-12.45-237.17-97.41-238.62-98.26-.95-.56-1.26-1.79-.7-2.74s1.79-1.26,2.74-.7c1.44.85,145.04,85.4,237.11,97.74c1.09.15,1.86,1.15,1.72,2.25-.13,1-.99,1.73-1.98,1.73Z" fill="#1e961e"/></g></g><g><path d="M3743.2,504.01c0,0-43.24.36-70.17,34.15c0,0,42.85,10.72,70.17-34.15Z" fill="#818496"/><path d="M4019.75,698.08c2.81-21.11-12.03-40.51-33.14-43.32l-172.75-22.99-94.9-146.34c-6.62-10.23-19.93-14.3-31.3-9.03-12.46,5.77-17.87,20.55-12.1,33l81.97,176.92c4.73,10,14.37,17.68,26.15,19.25l192.76,25.66c21.11,2.81,40.51-12.03,43.32-33.14Z" fill="#f69d85"/><path d="M4113.1,455.08c0,0,23.31,22.34,33.72,71.08c7.53,35.29,31.83,95.6,40.46,129.78c34.88,138.1-25.05,197.58-195.97,164.32-80.75-15.71-77.03-91.98-66.6-134.35c13.64-55.43,47-102.8,43.36-165.26c0,0,21.97-51.44,55.29-56.26s89.75-9.3,89.75-9.3Z" fill="#b74f2a"/><rect width="97.91" height="62.46" rx="0" ry="0" transform="matrix(.036644-.999328 0.999328 0.036644 4006.746435 665.431487)" fill="#f69d85"/><path d="M4053.48,622.45c0,0-19.79,14.86-45.2,9.72l1.25-34.06l43.94,24.34Z" fill="#d1836b"/><path d="M4023.42,624.11v0c-35.46-7.64-58.01-42.57-50.37-78.03l7.18-33.33c7.64-35.46,42.57-58.01,78.03-50.37v0c35.46,7.64,58.01,42.57,50.37,78.03l-7.18,33.33c-7.64,35.46-42.57,58.01-78.03,50.37Z" fill="#f69d85"/><path d="M4036.3,1021.87c-57.65-2.12-142.77-21.02-117.43-99.34c13.02-40.22,29.44-94.64,20.4-167.85-7.06-57.25,39.39-114.58,98.06-114.26l3.79.14c56.23,2.96,81.79,60.09,73.75,117.21-10.37,73.63,4.94,125.66,18.95,163.3c38.41,103.19-97.52,100.81-97.52,100.81Z" fill="#f69d85"/><path d="M4051.67,539.66c-1.03,4.79.12,9.1,2.56,9.62s5.25-2.93,6.28-7.72-.12-9.1-2.56-9.62-5.25,2.93-6.28,7.72Z" fill="#30313c"/><path d="M4012.9,531.33c-1.03,4.79.12,9.1,2.56,9.62s5.25-2.93,6.28-7.72-.12-9.1-2.56-9.62-5.25,2.93-6.28,7.72Z" fill="#30313c"/><path d="M4075.69,562.74c-.19,3.5-3.45,6.17-7.28,5.97-3.84-.2-6.8-3.21-6.61-6.71.18-3.5,3.45-6.17,7.28-5.97c3.84.2,6.8,3.2,6.61,6.71Z" fill="#e58a76"/><path d="M4002.87,550.01c-.18,3.5-3.45,6.17-7.28,5.97-3.84-.2-6.8-3.21-6.61-6.71s3.45-6.17,7.28-5.97c3.84.2,6.8,3.21,6.61,6.71Z" fill="#e58a76"/><path d="M4007.81,644.97c0,0-31.4,5.8-63.57,51.04-8.82,12.4-29.13,45.64-29.86,65.49-.79,21.58,20.77,34.64,19.34,73.72-1.42,38.75-30.69,62.56-14.85,87.31c9.32,14.56,153.84,39.24,216.14,2.27c34.66-20.57-22.17-67.14-4.98-173.4c13.09-80.92-31.35-95.53-59.76-104.14c0,0-32.52,56.59-53.96,54.71-22.01-1.93-8.5-57-8.5-57Z" fill="#ff593a"/><path d="M4124.81,564.63c-2.03,9.42-11.31,15.41-20.73,13.38s-15.41-11.31-13.38-20.73s11.31-15.41,20.73-13.38s15.41,11.31,13.38,20.73Z" fill="#f69d85"/><path d="M4027.45,726.95c-4.13,0-7.58-1.18-10.26-3.51-3.54-3.09-4.88-7.45-5.38-10.14-4.28,4.8-10.84,8.52-16.56,7.18-3.65-.86-8.4-4.17-10.27-15.09-3.03-17.72,5.91-58.9,6.3-60.64.12-.54.65-.89,1.19-.76.54.12.88.65.76,1.19-.09.42-9.24,42.54-6.28,59.87c1.33,7.79,4.36,12.45,8.75,13.48c5.53,1.3,12.37-3.3,16-8.28.25-.34.69-.49,1.1-.37s.69.5.71.92c0,.07.29,7.04,5,11.13c2.77,2.41,6.55,3.38,11.24,2.88c17.91-1.89,42.46-45.94,53.73-73.26.21-.51.8-.75,1.31-.54s.75.79.54,1.31c-8.23,19.96-34.23,72.26-55.37,74.49-.87.09-1.71.14-2.52.14Z" fill="#9b453a"/><path d="M4035.48,444.72c0,0-28.09-15.02-53.38,9.45-22.12,21.41-19.11,49.4-12.09,76.16c0,0,50.31-47.58,65.47-85.61Z" fill="#b74f2a"/><path d="M3992.4,539.07c-2.03,9.42-11.31,15.41-20.73,13.38s-15.41-11.31-13.38-20.73s11.31-15.41,20.73-13.38s15.41,11.31,13.38,20.73Z" fill="#f69d85"/><path d="M4037.1,580.37c-.8,4.7-5.86,7.75-11.29,6.82-5.42-.93-9.18-5.49-8.37-10.19.18-1.06.59-2.05,1.16-2.91c1.96-2.97,5.93-4.63,10.13-3.91c3.67.63,6.57,2.92,7.82,5.8.6,1.37.81,2.87.55,4.39Z" fill="#d1836b"/><path d="M4036.55,575.98c-12.4,3.2-17.95-1.88-17.95-1.88v0c1.96-2.98,5.93-4.64,10.13-3.92c3.67.63,6.57,2.92,7.82,5.8Z" fill="#f1f3f2"/><path d="M3972.85,545.3c-.47-.18-.75-.68-.64-1.18c1.14-5.01-1.63-6.51-4.3-7.96-1.6-.87-3.11-1.68-3.56-3.22-.28-.96-.09-2.01.58-3.22c3.75-6.78,12.32-5.31,12.69-5.24.55.09.92.63.82,1.19-.1.55-.63.92-1.19.83-.3-.05-7.5-1.26-10.54,4.22-.39.7-.52,1.25-.41,1.66.21.72,1.36,1.34,2.57,2c2.71,1.47,6.8,3.69,5.32,10.21-.13.55-.67.9-1.22.77-.05-.01-.09-.02-.13-.04Z" fill="#af5945"/><path d="M4105.5,570.75c-.41-.16-.69-.57-.66-1.03.47-6.67,5.03-7.62,8.04-8.24c1.35-.28,2.63-.54,3.04-1.17.23-.35.26-.92.09-1.7-1.33-6.16-8.79-7.07-8.87-7.08-.56-.06-.96-.57-.9-1.13s.57-.96,1.13-.9c.37.04,9,1.11,10.64,8.68.29,1.35.17,2.41-.37,3.25-.87,1.34-2.56,1.69-4.33,2.06-2.98.62-6.06,1.25-6.42,6.38-.04.56-.53.99-1.09.95-.1,0-.2-.03-.29-.06Z" fill="#af5945"/><path d="M4009.12,459.94c0,0,7.63,37.53,42.87,44.17c41.38,7.81,49.81,63.46,49.81,63.46s30.53-35.91,28.29-65.58c-5.12-67.89-69.93-95.09-120.96-42.05Z" transform="translate(.000001 0)" fill="#b74f2a"/><path d="M4010.82,512.89c-.21-.08-.41-.2-.58-.36-.68-.65-.71-1.73-.06-2.42.2-.21,4.99-5.17,11.29-4.96c3.73.12,7.14,2,10.11,5.57.61.73.51,1.81-.22,2.41-.73.61-1.81.51-2.41-.22-2.32-2.78-4.86-4.24-7.57-4.34-4.75-.17-8.68,3.86-8.71,3.9-.49.51-1.22.65-1.84.42Z" fill="#af5945"/><path d="M4049.99,517.99c-.28-.11-.54-.29-.74-.55-.58-.74-.46-1.82.29-2.4.18-.15,4.61-3.57,10.11-2.52c3.91.74,7.27,3.49,9.99,8.17.48.82.2,1.87-.62,2.34-.82.48-1.87.2-2.34-.62-2.19-3.77-4.76-5.97-7.63-6.52-3.95-.77-7.35,1.82-7.38,1.84-.49.38-1.12.45-1.66.25Z" fill="#af5945"/><path d="M4029.7,563.56c0,0-.1-.04-.14-.07-.84-.47-8.12-4.73-6.49-8.81c1.37-3.45,11.56-17.64,12-18.24.33-.46.97-.56,1.43-.23s.56.97.23,1.43c-2.91,4.05-10.7,15.14-11.76,17.8-.76,1.92,3.44,5.06,5.6,6.28.49.28.66.9.39,1.39-.25.44-.78.63-1.25.45Z" fill="#af5945"/><path d="M3950.74,808.08c-15.77-3.15-25.04-11.55-25.53-12.01-.41-.38-.44-1.03-.06-1.44s1.03-.44,1.44-.06c.15.14,15.38,13.89,39.57,12.55.56-.03,1.05.4,1.08.96s-.4,1.05-.96,1.08c-5.7.32-10.9-.16-15.54-1.08Z" fill="#dbbfb2"/><path d="M4035.64,812.2c-1.72-.34-2.66-.6-2.71-.61-.54-.15-.86-.72-.71-1.26s.72-.86,1.26-.71c.26.07,26.33,7.18,61.95-3.24.54-.16,1.11.15,1.27.69s-.15,1.11-.69,1.27c-29.57,8.64-52.72,5.39-60.37,3.86Z" fill="#818496"/><path d="M4008.68,1020.32l61.06,295.11l1.39,6.7c.26,1.25.66,2.57,1.11,3.72l107.59,273.76c7.77,19.78,30.11,29.51,49.89,21.74s29.52-30.1,21.74-49.88l-107.5-273.79l6.45-290.91c.52-39.55-30.64-57.39-70.19-57.91s-72.51,16.48-73.03,56.03c-.07,5.17.5,10.58,1.48,15.45Z" fill="#f69d85"/><path d="M3919.45,1012.86l-11.67,301.13-.26,6.83c-.05,1.27.03,2.65.18,3.88l38.63,291.59c2.79,21.07,22.13,35.89,43.21,33.1c21.07-2.79,35.89-22.12,33.1-43.19l-38.53-291.61l76.2-280.83c10.01-38.27-12.89-77.4-51.16-87.41s-77.4,12.89-87.41,51.16c-1.31,5-2.06,10.39-2.28,15.36Z" fill="#f69d85"/><path d="M3941.07,932.75c0,0-59.48,123.33-81.27,332.77-9.75,93.68,34.28,302.55,34.28,302.55s87.49,23.35,162.46-6.2l-34.65-241.6c0,0,12.34-135.69,37.12-203.25s18.24-177.33,18.24-177.33c-64.27,5.39-136.18-6.94-136.18-6.94Z" fill="#30313c"/><path d="M3876.14,1709.41l92.8-1.14l19.46-41.69l8.41,41.33l26.8-.33c24.43-51.26-1.79-115.24-1.79-115.24s-38.8,7.91-85.42,1.44l1.09,41.59-69.21,50.42c-10.29,7.49-4.87,23.77,7.85,23.62Z" fill="#404d7f"/><path d="M4007.17,1650.64c-4.03-1.66-5.95-6.28-4.3-10.31v0c.8-1.95,2.32-3.47,4.27-4.28s4.09-.82,6.05-.01c1.95.8,3.47,2.32,4.28,4.27s.82,4.09.01,6.05c-.8,1.95-2.32,3.47-4.27,4.28-.96.4-1.97.6-2.98.61-1.04,0-2.08-.19-3.06-.6Zm.75-12.71c-1.44.6-2.57,1.73-3.16,3.18-1.23,2.99.2,6.42,3.19,7.65c1.45.6,3.04.59,4.48,0c1.45-.6,2.57-1.73,3.16-3.18.6-1.45.59-3.04,0-4.49-.6-1.44-1.73-2.57-3.18-3.16-.73-.3-1.5-.45-2.27-.44-.75,0-1.5.16-2.21.45Z" fill="#606a97"/><path d="M3988.94,938.59c0,0-6.62,132.79,22.58,341.32c13.06,93.27,106.01,285.44,106.01,285.44s90.54,1.64,156.2-45.08l-91.71-226.19c0,0,5.71-133.68,5.18-208.17-.81-111.85-57.51-160.63-57.51-160.63-61.09,20.68-140.74,13.3-140.74,13.3Z" fill="#30313c"/><path d="M4134.1,1706.86l89.81-23.42l8.87-45.14l18.1,38.1l25.94-6.76c11.39-55.63-29.45-111.43-29.45-111.43s-35.76,17-82.57,21.94l11.06,40.1-55.06,65.58c-8.18,9.75.99,24.25,13.3,21.03Z" fill="#404d7f"/><path d="M4247.15,1618.31c-4.31-.64-7.29-4.67-6.65-8.98v0c.31-2.09,1.42-3.93,3.11-5.18c1.69-1.26,3.78-1.78,5.86-1.47c2.09.31,3.93,1.41,5.18,3.11c1.26,1.7,1.78,3.78,1.47,5.87s-1.42,3.93-3.11,5.18c-.84.62-1.77,1.06-2.75,1.31-1.01.26-2.06.31-3.12.16Zm-2.33-12.52c-1.26.93-2.08,2.3-2.31,3.85-.48,3.2,1.74,6.18,4.93,6.66c1.55.23,3.09-.16,4.35-1.09s2.08-2.3,2.31-3.85-.16-3.09-1.09-4.35-2.3-2.08-3.85-2.31c-.78-.12-1.57-.08-2.31.12-.73.19-1.42.51-2.04.97Z" fill="#606a97"/><path d="M4023.36,587.59c-4.71-1.77-7.71-6.21-6.93-10.75.2-1.18.65-2.3,1.32-3.31c2.26-3.42,6.64-5.12,11.15-4.35c3.87.66,7.16,3.11,8.59,6.4.69,1.57.9,3.29.62,4.97v0c-.44,2.57-2,4.78-4.39,6.23-2.34,1.42-5.21,1.92-8.08,1.43-.79-.14-1.56-.34-2.28-.61Zm7.09-15.88c-.61-.23-1.24-.4-1.9-.51-3.66-.63-7.32.76-9.11,3.46-.52.77-.85,1.62-1.01,2.52-.71,4.13,2.68,8.18,7.54,9.01c2.39.41,4.76,0,6.68-1.17c1.87-1.13,3.09-2.84,3.43-4.82.22-1.3.06-2.58-.48-3.81-.92-2.12-2.81-3.81-5.16-4.69Z" fill="#af5945"/><path d="M4025.02,1338.3c-.46,0-.89-.29-1.05-.75-.34-.95-33.63-97.03-34.15-268.26c0-.62.5-1.12,1.11-1.12v0c.62,0,1.12.5,1.12,1.11.52,170.8,33.69,266.57,34.02,267.52.21.58-.1,1.22-.68,1.43-.12.04-.25.06-.37.06Z" fill="#64656e"/><path d="M3960.28,1548.55c-41.99,0-71.49-6.96-71.98-7.08-.6-.14-.97-.75-.82-1.35s.75-.97,1.35-.82c.79.19,79.79,18.8,163.54-5.39.59-.17,1.21.17,1.38.76s-.17,1.21-.76,1.38c-33.13,9.57-65.53,12.48-92.71,12.48Z" fill="#64656e"/><path d="M4106.09,1537.18c-1.45,0-2.25-.02-2.33-.02-.62-.02-1.1-.54-1.08-1.16s.54-1.07,1.16-1.08c.85.03,85.86,2.3,157.17-45.43.51-.34,1.21-.21,1.55.31.34.51.21,1.21-.31,1.55-65.28,43.69-141.9,45.83-156.16,45.83Z" fill="#64656e"/><path d="M3954.54,1524.4c-38.98,0-69.74-4.91-70.28-5-.61-.1-1.02-.68-.92-1.28.1-.61.68-1.02,1.28-.92.96.16,96.37,15.39,164.11-8.21.58-.2,1.22.1,1.42.69.2.58-.11,1.22-.69,1.42-29.77,10.37-64.8,13.3-94.93,13.3Z" fill="#64656e"/><path d="M4093.47,1514.36c-.6,0-1.09-.47-1.12-1.07-.03-.62.45-1.14,1.07-1.16c1.06-.05,107.02-4.9,157.05-48.25.47-.4,1.17-.35,1.58.11.4.47.35,1.17-.11,1.58-50.62,43.86-157.35,48.75-158.43,48.79-.02,0-.03,0-.05,0Z" fill="#64656e"/><path d="M4070.27,647.26c0,0-26.6,81.72-19.92,147.32c6.68,65.59,27.68,432.01,27.68,432.01s60.12,13.28,140.8,0c0,0-9.19-199.18-28.6-318.14-19.4-118.96-62.84-234.93-119.97-261.18Z" fill="#f1f3f2"/><path d="M4007.81,644.97c0,0-57.65,70.98-59.14,140.43s-37.15,432.15-37.15,432.15-42.81,4.24-64.85,0c0,0,42.91-418.33,65.23-478.62c33.94-91.66,95.91-93.96,95.91-93.96Z" fill="#f1f3f2"/><path d="M4027.26,772.76l-74.93.73v0c-.06-5.87,4.65-10.67,10.52-10.73l53.68-.52c5.87-.06,10.67,4.65,10.73,10.52v0Z" fill="#3e8edd"/><path d="M4054.53,978.13l-121.98,1.19c-10.61.1-19.3-8.42-19.4-19.03l-1.63-167.62c-.1-10.61,8.42-19.3,19.03-19.4l121.98-1.19c10.61-.1,19.3,8.42,19.4,19.03l1.63,167.62c.1,10.61-8.42,19.3-19.03,19.4Z" fill="#606a97"/><path d="M4222.14,875.02l-57.27-154.11c-7.42-19.97-29.62-30.14-49.59-22.72s-30.14,29.62-22.72,49.59l40.26,108.35-149.81,26.22c-12.05,2.1-21.01,12.82-20.55,25.38.5,13.72,12.02,24.43,25.73,23.94l200.92-7.26c3.76-.15,7.72-.89,11.44-2.27c18.97-7.05,28.63-28.14,21.58-47.11Z" fill="#f69d85"/><path d="M4014.85,890.89c0,0-25.38-11.67-47.67-5.74s-29.72,13.31-33.62,22.29c-3.91,8.98,36.06,21.16,51.12,18.17s31.11-12.53,30.18-34.72Z" fill="#f69d85"/><path d="M4000.46,902.68c-11.62-8.36-25.04-14.46-38.99-17.71-1.82-.33-4.73-.96-6.56-1.13-4.32-.01-9.73-1.86-9-7.17c1.18-7.8,11.84-4.93,17.39-5.25c17.3,1.33,34.43,6.21,49.71,14.47c13.32,7.99-1.09,27.31-12.54,16.78Z" fill="#f69d85"/><path d="M3968.77,905.75c-19.77-.29-39.59-4.26-57.72-12.19-6.09-2.45-2.89-12.09,3.42-10.45c4.93,1.18,9.89,2.12,14.93,2.71c12.43,1.31,25.14,1.25,37.47-.8c16.12-4.09,18.54,21.58,1.9,20.73Z" fill="#f69d85"/><path d="M3964.18,918.03c-19.92.52-40.04-2.51-58.71-9.5-6.22-2.12-3.53-11.93,2.86-10.62c5.58,1.03,11.22,1.8,16.9,2.05c12.1.59,24.37-.14,36.23-2.58c15.77-4.51,19.16,20.7,2.72,20.64Z" fill="#f69d85"/><path d="M3969.69,924.17c-20.24,4.71-41.86,5.23-61.96-.45-6.65-1.63-4.37-11.99,2.31-10.77c1.21.11,3.93.34,5.07.44c16.27.68,32.76-2.63,47.75-8.88c14.67-7.86,23.2,16.48,6.82,19.67Z" fill="#f69d85"/><path d="M3989.67,929.02c-17.09,7.98-36.16,12.18-55.02,11.53-5.95-.16-12.73-1.23-18.51-2.59-6.54-1.23-5.1-11.46,1.49-10.87.09.01,4.34.28,4.57.3c16.17.89,32.39-3.58,46.86-10.6c3.43-1.74,6.92-3.56,10.07-5.72c12.7-10.06,25.48,11.55,10.54,17.95Z" fill="#f69d85"/><path d="M3929.66,928.75c-.53-.11-.89-.61-.81-1.15.08-.56.6-.95,1.16-.87.14.02,13.95,1.96,27.38-.68.55-.11,1.09.25,1.2.8s-.25,1.09-.81,1.2c-13.78,2.71-27.92.72-28.06.7-.02,0-.04,0-.06,0Z" fill="#af5945"/><path d="M3921.61,913.66h-.05c-.55-.12-.91-.66-.8-1.22.11-.55.65-.91,1.2-.8c0,0,.01,0,.05,0c.83.17,13.65,2.67,29.65,2.4.56-.01,1.03.44,1.04,1c0,.56-.44,1.03-1.01,1.04-16.19.27-29.21-2.27-30.09-2.44Z" fill="#af5945"/><path d="M3934.36,901.27c-2.22-.44-3.67-.78-3.85-.82-.55-.13-.89-.68-.76-1.23s.71-.89,1.23-.76c.14.03,13.86,3.24,24.06,3.23.56,0,1.02.46,1.02,1.02s-.46,1.02-1.02,1.02c-7.18,0-15.8-1.48-20.68-2.46Z" fill="#af5945"/><path d="M4070.27,647.26c0,0,77.6-1.41,116.76,81.68c39.17,83.09,54.66,152.66,40.59,184.88-17.77,40.71-199.35,37.19-199.35,37.19s-20.72-30.71-9.76-83.35c0,0,59.35-12.81,99.45-15.98c0,0-55.58-141.72-47.7-204.42Z" fill="#f1f3f2"/><path d="M4072.38,858.52c-.42-.08-.75-.42-.81-.87-.07-.56.32-1.07.88-1.15c14.45-1.92,38.19-4.93,44.06-5.67-13.61-32.66-32.97-109.86-33.16-110.64-.14-.55.2-1.1.74-1.24.55-.14,1.1.2,1.24.74.2.79,20.01,79.84,33.59,111.58.13.29.11.63-.05.91s-.44.47-.76.51c-.29.04-28.89,3.64-45.38,5.84-.11.02-.23.01-.34-.01Z" fill="#818496"/><path d="M4049.12,952.03c-.29-.06-.55-.24-.7-.53-18.9-35.86-10.05-87.73-9.96-88.25.1-.56.63-.93,1.18-.83.55.11.93.63.83,1.18-.09.51-8.82,51.71,9.76,86.95.26.5.07,1.12-.43,1.38-.22.11-.45.14-.68.1Z" fill="#818496"/><path d="M4151.24,1209.25c-41.54,0-74.23-4.96-74.72-5.03-.55-.09-.92-.6-.83-1.14.08-.55.6-.92,1.14-.83.73.11,73.99,11.21,140.63,0c.55-.09,1.06.28,1.15.82s-.28,1.06-.82,1.15c-22.44,3.78-45.62,5.03-66.55,5.03Z" fill="#818496"/><path d="M3884.82,1197.71c-18.68,0-35.69-.77-35.94-.78-.55-.03-.98-.49-.95-1.04s.51-.99,1.04-.95c.38.02,38.55,1.75,63.32,0c.55-.04,1.03.38,1.07.93s-.38,1.03-.93,1.07c-8.34.59-18.19.79-27.61.79Z" fill="#818496"/><path d="M4073.56,952.08c-.53,0-.97-.41-1-.94-.03-.55.39-1.02.94-1.06.91-.05,90.97-5.35,122.96-16.59.52-.19,1.09.09,1.28.61.18.52-.09,1.09-.61,1.28-32.26,11.34-122.6,16.65-123.51,16.7-.02,0-.04,0-.06,0Z" fill="#818496"/><path d="M4007.81,644.97c0,0-68.65-14.62-186.07-19.53c0,0-48.27-79.96-78.53-121.43c0,0-26.6,31.91-70.17,34.15c0,0,51.59,155.27,94.84,173.09s167.74,35.47,167.74,35.47l72.2-101.76Z" fill="#f1f3f2"/><path d="M3679.32,557.61c-.45-.09-.79-.47-.82-.95-.03-.56.4-1.05.96-1.08.49-.03,48.85-3.1,73.97-36.54.34-.45.98-.54,1.43-.2s.54.98.2,1.43c-25.69,34.22-74.99,37.33-75.49,37.35-.09,0-.17,0-.26-.02Z" fill="#818496"/><path d="M3910.55,743.91c-.08,0-.17-.01-.25-.03-.53-.14-.86-.68-.72-1.22.09-.34,9.06-34.52,22.91-52.18.34-.43.97-.51,1.4-.17s.51.97.17,1.4c-13.6,17.33-22.46,51.11-22.55,51.45-.12.45-.52.75-.97.75Z" fill="#818496"/><path d="M3723.03,497.51c0,0-16.49-22.55-38.85-28.23-22.36-5.67-32.44-2.84-40.22,3.11-7.79,5.95,21.2,36.03,35.81,40.76c14.61,4.72,33.28,4.2,43.26-15.64Z" fill="#f69d85"/><path d="M3675.54,488.06c-17.13-9.88-32.51-23-44.49-38.74-4.13-5.11,3.36-11.97,8.08-7.46c3.73,3.43,7.61,6.67,11.72,9.63c10.22,7.2,21.36,13.33,33.12,17.54c16.07,4.27,5.69,27.87-8.43,19.03Z" fill="#f69d85"/><path d="M3665.55,496.55c-17.65-9.24-33.76-21.68-46.66-36.88-4.4-4.88,2.72-12.14,7.67-7.88c4.38,3.61,8.92,7.04,13.76,10.02c10.28,6.4,21.36,11.74,32.9,15.38c15.98,3.74,6.66,27.41-7.67,19.35Z" fill="#f69d85"/><path d="M3667.38,504.6c-19.98-5.74-39.11-15.81-53.9-30.56-5.01-4.66,2.02-12.61,7.26-8.29c1,.68,3.27,2.21,4.22,2.86c13.88,8.51,29.89,13.65,46.03,15.49c16.64.27,12.24,25.69-3.61,20.5Z" fill="#f69d85"/><path d="M3682.47,518.56c-18.81-1.35-37.51-6.96-53.67-16.71-5.12-3.04-10.52-7.27-14.91-11.27-5.11-4.26,1.12-12.5,6.59-8.77.08.05,3.65,2.36,3.85,2.48c13.69,8.65,30.04,12.64,46.09,13.55c3.84.15,7.78.26,11.58-.1c16-2.61,16.63,22.49.47,20.81Z" fill="#f69d85"/><path d="M3630.18,489.11c-.41-.35-.48-.96-.15-1.4.34-.45.98-.54,1.43-.19.11.08,11.23,8.5,24.25,12.73.53.17.83.75.66,1.29-.18.54-.75.83-1.29.66-13.36-4.34-24.74-12.96-24.85-13.05-.02-.01-.03-.02-.04-.04Z" fill="#af5945"/><path d="M3630.5,472.01l-.04-.03c-.43-.37-.47-1.01-.11-1.44.37-.43,1.01-.47,1.44-.11c0,0,0,0,.04.03.64.55,10.63,8.98,24.73,16.53.5.26.68.89.42,1.38-.27.5-.89.68-1.38.42-14.28-7.65-24.41-16.2-25.09-16.78Z" fill="#af5945"/><path d="M3647.66,467.4c-1.73-1.47-2.82-2.47-2.96-2.59-.42-.38-.45-1.03-.07-1.44.38-.42,1.05-.43,1.44-.07.11.1,10.53,9.57,19.44,14.53.49.27.67.9.4,1.39s-.9.67-1.39.4c-6.27-3.49-13.08-8.99-16.87-12.22Z" fill="#af5945"/><polygon points="3695.01,428.76 3669.05,421.05 3648.04,491.78 3595.75,537.86 3692.65,566.65 3674,499.49 3695.01,428.76" fill="#3e8edd"/><polygon points="3678.77,553.75 3614.43,534.64 3644.8,505.52 3669.21,512.77 3678.77,553.75" fill="#ff593a"/><path d="M3704.72,500.8c-6.08-12.96-14.83-24.82-25.43-34.45-1.43-1.17-3.67-3.14-5.18-4.18-3.76-2.11-7.6-6.36-4.37-10.64c4.82-6.24,12.74,1.46,17.75,3.88c14.46,9.59,27.05,22.19,36.37,36.84c7.75,13.47-14.25,23.33-19.12,8.55Z" fill="#f69d85"/></g><g><path d="M1254.06,979.81v-93.31h-34.72v93.31c-24.24,7.42-41.87,29.97-41.87,56.64c0,32.71,26.52,59.23,59.23,59.23s59.23-26.52,59.23-59.23c0-26.67-17.63-49.22-41.87-56.64Z" fill="#f1f3f2"/><path d="M1282.49,1036.46c0,25.28-20.5,45.78-45.78,45.78s-45.79-20.5-45.79-45.78h91.57Z" fill="#60bf60"/></g><g><path d="M1583.3,1053.32h256.34v527.08c0,70.74-57.43,128.17-128.17,128.17v0c-70.74,0-128.17-57.43-128.17-128.17v-527.08v0Z" fill="#f1f3f2"/><path d="M2046.99,1053.32h256.34v527.08c0,70.74-57.43,128.17-128.17,128.17v0c-70.74,0-128.17-57.43-128.17-128.17v-527.08v0Z" fill="#f1f3f2"/><path d="M1615.34,1255.6h192.26v320.43c0,53.05-43.07,96.13-96.13,96.13v0c-53.05,0-96.13-43.07-96.13-96.13v-320.43v0Z" fill="#ff593a"/><path d="M2380.64,640.66c0,0-74.35,17.79-131.18,74.61-36.77,36.77-57.19,80.87-67.03,107.42v-111.25c11.42-22.67,33.19-73.68,33.19-132.98c0-80.37-40-145.52-40-145.52s-40.763275,62.27-40.763275,142.64c0,56.46,20.503275,108.3,32.253275,132.42v227.63c-10.41-26.85-30.56-68.17-65.33-102.93-56.83-56.83-131.18-74.61-131.18-74.61s17.79,74.35,74.61,131.18c44.69,44.69,100.21,65.23,121.89,71.97v402.68c0,4.23,3.43,7.66,7.66,7.66s7.66-3.43,7.66-7.66v-519.59c20.34-6.15,77.68-26.58,123.59-72.49c56.83-56.83,74.61-131.18,74.61-131.18Z" transform="translate(0 1.47)" fill="#60bf60"/><path d="M1842.25,924.17c56.83-56.83,74.61-131.18,74.61-131.18s-74.35,17.79-131.18,74.61c-36.77,36.77-57.19,80.87-67.03,107.42v-94.23c11.42-22.67,33.19-73.68,33.19-132.98c0-80.37-40-145.52-40-145.52s-40,65.15-40,145.52c0,56.46,19.74,105.42,31.49,129.54v93.18c-10.41-26.85-30.56-68.17-65.33-102.93-56.83-56.83-131.18-74.61-131.18-74.61s17.79,74.35,74.61,131.18c44.69,44.69,100.21,65.23,121.89,71.97v256.45c-9.09,9.93-43.76,49.65-50.08,84.44-7.23,39.75,25.05,96.41,26.43,98.8c2.11,3.67,6.79,4.92,10.46,2.82c3.67-2.11,4.93-6.79,2.82-10.46-.31-.54-30.85-54.2-24.63-88.42c3.58-19.68,18.45-42.24,30.74-58.18-.47,10.99.35,24.46,4.27,39.13v212.55c0,4.23,3.43,7.66,7.66,7.66s7.66-3.43,7.66-7.66v-32.59c15.21-27.08,23.69-54.78,25.19-82.34.5-9.19.2-18.23-.86-27.09c8.88,10.38,19.57,21.01,31.08,28.46c1.29.83,2.73,1.23,4.15,1.23c2.51,0,4.97-1.23,6.44-3.5c2.3-3.55,1.28-8.29-2.27-10.59-25.48-16.49-47.83-52.48-50.52-56.93-1.44-3.35-3.01-6.67-4.7-9.95-3.79-7.32-6.55-14.54-8.5-21.49v-62.95c0,0,0-.02,0-.02v-258.85c20.34-6.15,77.68-26.58,123.59-72.49Zm-123.59,540.2v-106.31c13.55,32.96,13.48,69.6,0,106.31Z" fill="#ffb12a"/><path d="M2079.03,1139.08h192.25v436.94c0,53.05-43.07,96.13-96.13,96.13v0c-53.05,0-96.13-43.07-96.13-96.13v-436.94v0Z" fill="#ffb12a"/><path d="M2410.92,1552.84h-934.37c-7.05,0-12.76,5.71-12.76,12.76s5.71,12.76,12.76,12.76h38.72v120.99c0,7.05,5.71,12.76,12.76,12.76s12.76-5.71,12.76-12.76v-120.99h806.72v120.99c0,7.05,5.71,12.76,12.76,12.76s12.76-5.71,12.76-12.76v-120.99h37.87c7.05,0,12.76-5.71,12.76-12.76s-5.71-12.76-12.76-12.76Z" fill="#3e8edd"/><path d="M1711.85,894.83c-.83,0-1.5-.67-1.5-1.5v-291.03c0-.83.67-1.5,1.5-1.5s1.5.67,1.5,1.5v291.03c0,.83-.67,1.5-1.5,1.5Z" fill="#997243"/><path d="M1712.63,1000.28c-.4,0-.78-.16-1.06-.44L1505.78,794.05c-.59-.59-.59-1.54,0-2.12.59-.59,1.54-.59,2.12,0l204.73,204.73L1915.8,791.94c.58-.59,1.53-.59,2.12,0c.59.58.59,1.53,0,2.12L1713.69,999.85c-.28.28-.66.44-1.06.44v0Z" fill="#997243"/><path d="M2175.63,725.49c-.83,0-1.5-.67-1.5-1.5v-291.04c0-.83.67-1.5,1.5-1.5s1.5.67,1.5,1.5v291.03c0,.83-.67,1.5-1.5,1.5Z" fill="#1e961e"/><path d="M2174.85,847.96c-.38,0-.77-.15-1.06-.44-.59-.59-.59-1.54,0-2.12l205.79-205.79c.59-.59,1.54-.59,2.12,0c.59.59.59,1.54,0,2.12L2175.91,847.52c-.29.29-.68.44-1.06.44Z" fill="#1e961e"/><path d="M2176.41,965.39c-.38,0-.77-.15-1.06-.44L1969.56,759.16c-.59-.59-.59-1.54,0-2.12.59-.59,1.54-.59,2.12,0l205.79,205.79c.59.59.59,1.54,0,2.12-.29.29-.68.44-1.06.44Z" fill="#1e961e"/></g><path d="M1419.74,459.04c-10.81-5.3-23.87-.83-29.17,9.98-.31.63-.58,1.27-.82,1.91l-27.08,1.84c-2-4.55-5.55-8.44-10.36-10.8-4.85-2.38-10.15-2.78-15-1.54l-15.54-23.14c.75-1.02,1.42-2.11,1.99-3.29c4.16-8.48,2.3-18.34-3.91-24.76l12.33-25.16c8.86.96,17.78-3.62,21.93-12.09c5.3-10.81.83-23.87-9.98-29.17s-23.87-.83-29.17,9.98c-4.15,8.47-2.31,18.32,3.88,24.73l-12.34,25.18c-8.85-.94-17.75,3.63-21.89,12.09-.57,1.16-1.02,2.35-1.37,3.56l-27.88,1.9c-1.99-4.6-5.56-8.54-10.41-10.92s-10.15-2.78-15-1.54l-15.54-23.14c.75-1.02,1.42-2.11,1.99-3.29c4.16-8.48,2.3-18.34-3.91-24.76l12.53-25.57c8.86.96,17.78-3.62,21.93-12.09c5.3-10.81.83-23.87-9.98-29.17-4.89-2.39-10.23-2.79-15.11-1.51l-15.42-22.96c.55-.82,1.05-1.68,1.5-2.59c4.15-8.47,2.31-18.32-3.88-24.73l12.85-26.23c9.33,1.66,19.01-2.94,23.39-11.87c5.3-10.81.83-23.87-9.98-29.17s-23.87-.83-29.17,9.99c-3.91,7.99-2.49,17.2,2.87,23.6l-13.3,27.14c-8.86-.96-17.78,3.62-21.93,12.09-.45.91-.82,1.83-1.12,2.77l-27.69,1.89c-1.99-4.6-5.56-8.54-10.41-10.92-4.8-2.35-10.04-2.77-14.85-1.58l-14.43-21.48c.74-1.02,1.41-2.11,1.98-3.27c5.3-10.81.83-23.87-9.98-29.17s-23.87-.83-29.17,9.98-.83,23.87,9.98,29.17c4.8,2.35,10.04,2.77,14.85,1.58l14.43,21.48c-.74,1.02-1.41,2.11-1.98,3.27-4.15,8.47-2.31,18.32,3.88,24.73l-12.48,25.48c-8.86-.96-17.78,3.62-21.93,12.09-.57,1.17-1.02,2.36-1.37,3.57l-27.84,1.9c-1.99-4.6-5.56-8.54-10.41-10.91-10.81-5.3-23.87-.83-29.17,9.98-4.15,8.47-2.31,18.32,3.88,24.73l-12.41,25.32c-8.86-.96-17.78,3.62-21.93,12.09-.57,1.17-1.02,2.36-1.37,3.57l-27.98,1.91c-2-4.54-5.55-8.42-10.35-10.77-10.81-5.3-23.87-.83-29.17,9.98s-.83,23.87,9.98,29.17s23.87.83,29.17-9.98c.57-1.17,1.02-2.36,1.37-3.57l27.98-1.91c2,4.54,5.55,8.42,10.35,10.77s10.04,2.77,14.85,1.58l15.64,23.28c-.74,1.02-1.41,2.11-1.98,3.27-4.15,8.47-2.31,18.32,3.88,24.73l-12.33,25.17c-8.86-.96-17.78,3.62-21.93,12.09-5.3,10.81-.83,23.87,9.98,29.17s23.87.83,29.17-9.98c4.15-8.47,2.31-18.32-3.88-24.73l12.33-25.17c8.86.96,17.78-3.62,21.93-12.09.57-1.17,1.02-2.36,1.37-3.57l27.98-1.91c2,4.54,5.55,8.42,10.35,10.77s10.04,2.77,14.85,1.58l15.12,22.51c-.35.57-.67,1.16-.97,1.77-5.3,10.81-.83,23.87,9.98,29.17s23.87.83,29.17-9.98c.21-.42.39-.85.57-1.28l28.29-1.93c2,4.54,5.55,8.42,10.35,10.77s10.04,2.77,14.85,1.58l24.68,36.73-19.46,39.73c-8.86-.96-17.78,3.62-21.93,12.09-5.3,10.81-.83,23.87,9.98,29.17s23.87.83,29.17-9.98c4.15-8.47,2.31-18.32-3.88-24.73l19.46-39.73l44.14-3.01c2,4.54,5.55,8.42,10.35,10.77c10.81,5.3,23.87.83,29.17-9.98c4.15-8.47,2.31-18.32-3.88-24.73l12.41-25.32c8.86.96,17.78-3.62,21.93-12.09.57-1.16,1.02-2.35,1.36-3.54l25.92-1.77c1.83,5.21,5.62,9.73,10.97,12.35c10.81,5.3,23.87.83,29.17-9.98s.83-23.87-9.98-29.17Zm-127.05,75.07c-.57,1.17-1.02,2.36-1.37,3.57l-44.14,3.01-24.67-36.73c.74-1.02,1.41-2.11,1.98-3.27c4.15-8.47,2.31-18.32-3.88-24.73l12.41-25.32c8.86.96,17.78-3.62,21.93-12.09.55-1.12.99-2.27,1.33-3.42l27.97-1.9c2,4.54,5.55,8.43,10.35,10.79c4.8,2.35,10.03,2.77,14.84,1.58l15.61,23.23c-.7.98-1.34,2.03-1.89,3.15-4.15,8.47-2.31,18.32,3.89,24.73l-12.41,25.32c-8.86-.96-17.78,3.62-21.93,12.09Zm-146.57-60.18c-5.37-2.63-11.29-2.85-16.54-1.08l-14.44-21.49c.74-1.02,1.41-2.11,1.98-3.27c4.15-8.47,2.31-18.32-3.88-24.73l12.41-25.32c8.86.96,17.78-3.62,21.93-12.09.55-1.12.99-2.27,1.33-3.42l27.97-1.9c2,4.54,5.55,8.43,10.35,10.79c4.79,2.35,10.03,2.77,14.84,1.58l15.61,23.23c-.7.98-1.34,2.03-1.89,3.15-4.15,8.47-2.31,18.32,3.88,24.73l-12.41,25.32c-8.86-.96-17.78,3.62-21.93,12.09-.57,1.17-1.02,2.36-1.37,3.57l-26.66,1.82c-1.74-5.46-5.62-10.24-11.17-12.96ZM1038.26,423.6c-4.8-2.35-10.04-2.78-14.85-1.58l-15.64-23.28c.74-1.02,1.41-2.11,1.98-3.27c4.15-8.47,2.31-18.32-3.89-24.73l12.41-25.32c8.86.96,17.78-3.62,21.93-12.09.55-1.12.99-2.27,1.33-3.42l27.95-1.9c2,4.54,5.55,8.42,10.35,10.77s10.04,2.77,14.85,1.58l15.62,23.25c-.7.98-1.34,2.03-1.89,3.15-4.15,8.47-2.31,18.32,3.88,24.73l-12.41,25.32c-8.86-.96-17.78,3.62-21.93,12.09-.57,1.17-1.02,2.36-1.37,3.57l-27.98,1.91c-2-4.54-5.55-8.42-10.35-10.77Zm101.26-157.1c.55-1.12.99-2.26,1.33-3.42l27.22-1.85c1.93,4.86,5.6,9.05,10.67,11.54c5.07,2.48,10.63,2.82,15.66,1.36l15.2,22.63c-.68.95-1.29,1.97-1.82,3.06-4.15,8.47-2.31,18.32,3.89,24.73l-12.54,25.59c-8.85-.94-17.75,3.63-21.89,12.09-.55,1.11-.98,2.25-1.33,3.41l-27.98,1.91c-2-4.54-5.55-8.42-10.35-10.77s-10.04-2.77-14.85-1.58l-15.62-23.25c.7-.98,1.34-2.03,1.89-3.15c4.15-8.47,2.31-18.32-3.88-24.73l12.48-25.47c8.86.96,17.78-3.62,21.93-12.09Z" fill="#f1f3f2"/><path d="M3337.98,252.07c-38.49-6.77-75.19,18.94-81.96,57.44-.28,1.58-.48,3.16-.65,4.74l-111.69-.15c-1.78-13.95-9.12-26.53-20.07-34.99l37.33-67.51c.45.1.9.19,1.35.27c14.64,2.58,28.59-7.2,31.16-21.84c2.58-14.64-7.2-28.59-21.84-31.16-14.64-2.58-28.59,7.2-31.16,21.84-1.58,8.98,1.5,17.7,7.49,23.69l-37.26,67.38c-3.2-1.25-6.56-2.2-10.07-2.82-22.44-3.95-44.06,6.97-54.77,25.66l-79.4-32.55c.11-.52.22-1.03.31-1.56c3.77-21.44-10.55-41.87-31.98-45.64-21.44-3.77-41.87,10.55-45.64,31.98-3.77,21.44,10.55,41.87,31.98,45.64c15.8,2.78,31.05-4.28,39.49-16.76l79.76,32.7c-.25,1.05-.49,2.12-.68,3.2-3.57,20.29,5.02,39.9,20.51,51.39l-43.75,79.11c-1.72-.54-3.49-.99-5.31-1.31-20.64-3.63-40.4,8.6-46.77,27.94l-69.38-10.67c-1.04-15.14-12.24-28.21-27.86-30.96-18.39-3.24-35.91,9.05-39.15,27.43s9.05,35.91,27.43,39.15c16.12,2.84,31.58-6.26,37.32-20.94l69.55,10.69c.73,19.2,14.73,35.96,34.42,39.42c22.66,3.99,44.27-11.15,48.26-33.82c2.76-15.68-3.64-30.85-15.35-40.03l43.67-78.97c2.9,1.07,5.94,1.91,9.09,2.46c28.61,5.03,55.88-14.08,60.91-42.68.05-.31.09-.61.14-.92l111.91.15c3.18,30.65,26.26,56.76,58.12,62.36c38.49,6.77,75.19-18.94,81.96-57.44c6.77-38.49-18.94-75.19-57.44-81.96Z" fill="#f1f3f2"/><path d="M4549.72,1712.41h-4546.72c-1.66,0-3-1.34-3-3s1.34-3,3-3h4546.72c1.66,0,3,1.34,3,3s-1.34,3-3,3Z" fill="#30313c"/><script><![CDATA[!function(t,n){"object"==typeof exports&&"undefined"!=typeof module?module.exports=n():"function"==typeof define&&define.amd?define(n):((t="undefined"!=typeof globalThis?globalThis:t||self).__SVGATOR_PLAYER__=t.__SVGATOR_PLAYER__||{},t.__SVGATOR_PLAYER__["5c7f360c"]=n())}(this,(function(){"use strict";function t(t,n){var r=Object.keys(t);if(Object.getOwnPropertySymbols){var e=Object.getOwnPropertySymbols(t);n&&(e=e.filter((function(n){return Object.getOwnPropertyDescriptor(t,n).enumerable}))),r.push.apply(r,e)}return r}function n(n){for(var r=1;r<arguments.length;r++){var e=null!=arguments[r]?arguments[r]:{};r%2?t(Object(e),!0).forEach((function(t){u(n,t,e[t])})):Object.getOwnPropertyDescriptors?Object.defineProperties(n,Object.getOwnPropertyDescriptors(e)):t(Object(e)).forEach((function(t){Object.defineProperty(n,t,Object.getOwnPropertyDescriptor(e,t))}))}return n}function r(t){return(r="function"==typeof Symbol&&"symbol"==typeof Symbol.iterator?function(t){return typeof t}:function(t){return t&&"function"==typeof Symbol&&t.constructor===Symbol&&t!==Symbol.prototype?"symbol":typeof t})(t)}function e(t,n){if(!(t instanceof n))throw new TypeError("Cannot call a class as a function")}function i(t,n){for(var r=0;r<n.length;r++){var e=n[r];e.enumerable=e.enumerable||!1,e.configurable=!0,"value"in e&&(e.writable=!0),Object.defineProperty(t,e.key,e)}}function o(t,n,r){return n&&i(t.prototype,n),r&&i(t,r),t}function u(t,n,r){return n in t?Object.defineProperty(t,n,{value:r,enumerable:!0,configurable:!0,writable:!0}):t[n]=r,t}function a(t){return(a=Object.setPrototypeOf?Object.getPrototypeOf:function(t){return t.__proto__||Object.getPrototypeOf(t)})(t)}function l(t,n){return(l=Object.setPrototypeOf||function(t,n){return t.__proto__=n,t})(t,n)}function f(){if("undefined"==typeof Reflect||!Reflect.construct)return!1;if(Reflect.construct.sham)return!1;if("function"==typeof Proxy)return!0;try{return Boolean.prototype.valueOf.call(Reflect.construct(Boolean,[],(function(){}))),!0}catch(t){return!1}}function s(t,n,r){return(s=f()?Reflect.construct:function(t,n,r){var e=[null];e.push.apply(e,n);var i=new(Function.bind.apply(t,e));return r&&l(i,r.prototype),i}).apply(null,arguments)}function c(t,n){if(n&&("object"==typeof n||"function"==typeof n))return n;if(void 0!==n)throw new TypeError("Derived constructors may only return object or undefined");return function(t){if(void 0===t)throw new ReferenceError("this hasn't been initialised - super() hasn't been called");return t}(t)}function h(t,n,r){return(h="undefined"!=typeof Reflect&&Reflect.get?Reflect.get:function(t,n,r){var e=function(t,n){for(;!Object.prototype.hasOwnProperty.call(t,n)&&null!==(t=a(t)););return t}(t,n);if(e){var i=Object.getOwnPropertyDescriptor(e,n);return i.get?i.get.call(r):i.value}})(t,n,r||t)}function v(t){return function(t){if(Array.isArray(t))return y(t)}(t)||function(t){if("undefined"!=typeof Symbol&&null!=t[Symbol.iterator]||null!=t["@@iterator"])return Array.from(t)}(t)||function(t,n){if(!t)return;if("string"==typeof t)return y(t,n);var r=Object.prototype.toString.call(t).slice(8,-1);"Object"===r&&t.constructor&&(r=t.constructor.name);if("Map"===r||"Set"===r)return Array.from(t);if("Arguments"===r||/^(?:Ui|I)nt(?:8|16|32)(?:Clamped)?Array$/.test(r))return y(t,n)}(t)||function(){throw new TypeError("Invalid attempt to spread non-iterable instance.\nIn order to be iterable, non-array objects must have a [Symbol.iterator]() method.")}()}function y(t,n){(null==n||n>t.length)&&(n=t.length);for(var r=0,e=new Array(n);r<n;r++)e[r]=t[r];return e}Number.isInteger||(Number.isInteger=function(t){return"number"==typeof t&&isFinite(t)&&Math.floor(t)===t}),Number.EPSILON||(Number.EPSILON=2220446049250313e-31);var g=p(Math.pow(10,-6));function p(t){var n=arguments.length>1&&void 0!==arguments[1]?arguments[1]:6;if(Number.isInteger(t))return t;var r=Math.pow(10,n);return Math.round((+t+Number.EPSILON)*r)/r}function d(t,n){var r=arguments.length>2&&void 0!==arguments[2]?arguments[2]:g;return Math.abs(t-n)<r}var m=Math.PI/180;function b(t){return t}function w(t,n,r){var e=1-r;return 3*r*e*(t*e+n*r)+r*r*r}function x(){var t=arguments.length>0&&void 0!==arguments[0]?arguments[0]:0,n=arguments.length>1&&void 0!==arguments[1]?arguments[1]:0,r=arguments.length>2&&void 0!==arguments[2]?arguments[2]:1,e=arguments.length>3&&void 0!==arguments[3]?arguments[3]:1;return t<0||t>1||r<0||r>1?null:d(t,n)&&d(r,e)?b:function(i){if(i<=0)return t>0?i*n/t:0===n&&r>0?i*e/r:0;if(i>=1)return r<1?1+(i-1)*(e-1)/(r-1):1===r&&t<1?1+(i-1)*(n-1)/(t-1):1;for(var o,u=0,a=1;u<a;){var l=w(t,r,o=(u+a)/2);if(d(i,l))break;l<i?u=o:a=o}return w(n,e,o)}}function A(){return 1}function k(t){return 1===t?1:0}function _(){var t=arguments.length>0&&void 0!==arguments[0]?arguments[0]:1,n=arguments.length>1&&void 0!==arguments[1]?arguments[1]:0;if(1===t){if(0===n)return k;if(1===n)return A}var r=1/t;return function(t){return t>=1?1:(t+=n*r)-t%r}}var S=Math.sin,O=Math.cos,j=Math.acos,M=Math.asin,P=Math.tan,E=Math.atan2,I=Math.PI/180,R=180/Math.PI,F=Math.sqrt,N=function(){function t(){var n=arguments.length>0&&void 0!==arguments[0]?arguments[0]:1,r=arguments.length>1&&void 0!==arguments[1]?arguments[1]:0,i=arguments.length>2&&void 0!==arguments[2]?arguments[2]:0,o=arguments.length>3&&void 0!==arguments[3]?arguments[3]:1,u=arguments.length>4&&void 0!==arguments[4]?arguments[4]:0,a=arguments.length>5&&void 0!==arguments[5]?arguments[5]:0;e(this,t),this.m=[n,r,i,o,u,a],this.i=null,this.w=null,this.s=null}return o(t,[{key:"determinant",get:function(){var t=this.m;return t[0]*t[3]-t[1]*t[2]}},{key:"isIdentity",get:function(){if(null===this.i){var t=this.m;this.i=1===t[0]&&0===t[1]&&0===t[2]&&1===t[3]&&0===t[4]&&0===t[5]}return this.i}},{key:"point",value:function(t,n){var r=this.m;return{x:r[0]*t+r[2]*n+r[4],y:r[1]*t+r[3]*n+r[5]}}},{key:"translateSelf",value:function(){var t=arguments.length>0&&void 0!==arguments[0]?arguments[0]:0,n=arguments.length>1&&void 0!==arguments[1]?arguments[1]:0;if(!t&&!n)return this;var r=this.m;return r[4]+=r[0]*t+r[2]*n,r[5]+=r[1]*t+r[3]*n,this.w=this.s=this.i=null,this}},{key:"rotateSelf",value:function(){var t=arguments.length>0&&void 0!==arguments[0]?arguments[0]:0;if(t%=360){var n=S(t*=I),r=O(t),e=this.m,i=e[0],o=e[1];e[0]=i*r+e[2]*n,e[1]=o*r+e[3]*n,e[2]=e[2]*r-i*n,e[3]=e[3]*r-o*n,this.w=this.s=this.i=null}return this}},{key:"scaleSelf",value:function(){var t=arguments.length>0&&void 0!==arguments[0]?arguments[0]:1,n=arguments.length>1&&void 0!==arguments[1]?arguments[1]:1;if(1!==t||1!==n){var r=this.m;r[0]*=t,r[1]*=t,r[2]*=n,r[3]*=n,this.w=this.s=this.i=null}return this}},{key:"skewSelf",value:function(t,n){if(n%=360,(t%=360)||n){var r=this.m,e=r[0],i=r[1],o=r[2],u=r[3];t&&(t=P(t*I),r[2]+=e*t,r[3]+=i*t),n&&(n=P(n*I),r[0]+=o*n,r[1]+=u*n),this.w=this.s=this.i=null}return this}},{key:"resetSelf",value:function(){var t=arguments.length>0&&void 0!==arguments[0]?arguments[0]:1,n=arguments.length>1&&void 0!==arguments[1]?arguments[1]:0,r=arguments.length>2&&void 0!==arguments[2]?arguments[2]:0,e=arguments.length>3&&void 0!==arguments[3]?arguments[3]:1,i=arguments.length>4&&void 0!==arguments[4]?arguments[4]:0,o=arguments.length>5&&void 0!==arguments[5]?arguments[5]:0,u=this.m;return u[0]=t,u[1]=n,u[2]=r,u[3]=e,u[4]=i,u[5]=o,this.w=this.s=this.i=null,this}},{key:"recomposeSelf",value:function(){var t=arguments.length>0&&void 0!==arguments[0]?arguments[0]:null,n=arguments.length>1&&void 0!==arguments[1]?arguments[1]:null,r=arguments.length>2&&void 0!==arguments[2]?arguments[2]:null,e=arguments.length>3&&void 0!==arguments[3]?arguments[3]:null,i=arguments.length>4&&void 0!==arguments[4]?arguments[4]:null;return this.isIdentity||this.resetSelf(),t&&(t.x||t.y)&&this.translateSelf(t.x,t.y),n&&this.rotateSelf(n),r&&(r.x&&this.skewSelf(r.x,0),r.y&&this.skewSelf(0,r.y)),!e||1===e.x&&1===e.y||this.scaleSelf(e.x,e.y),i&&(i.x||i.y)&&this.translateSelf(i.x,i.y),this}},{key:"decompose",value:function(){var t=arguments.length>0&&void 0!==arguments[0]?arguments[0]:0,n=arguments.length>1&&void 0!==arguments[1]?arguments[1]:0,r=this.m,e=r[0]*r[0]+r[1]*r[1],i=[[r[0],r[1]],[r[2],r[3]]],o=F(e);if(0===o)return{origin:{x:p(r[4]),y:p(r[5])},translate:{x:p(t),y:p(n)},scale:{x:0,y:0},skew:{x:0,y:0},rotate:0};i[0][0]/=o,i[0][1]/=o;var u=r[0]*r[3]-r[1]*r[2]<0;u&&(o=-o);var a=i[0][0]*i[1][0]+i[0][1]*i[1][1];i[1][0]-=i[0][0]*a,i[1][1]-=i[0][1]*a;var l=F(i[1][0]*i[1][0]+i[1][1]*i[1][1]);if(0===l)return{origin:{x:p(r[4]),y:p(r[5])},translate:{x:p(t),y:p(n)},scale:{x:p(o),y:0},skew:{x:0,y:0},rotate:0};i[1][0]/=l,i[1][1]/=l,a/=l;var f=0;return i[1][1]<0?(f=j(i[1][1])*R,i[0][1]<0&&(f=360-f)):f=M(i[0][1])*R,u&&(f=-f),a=E(a,F(i[0][0]*i[0][0]+i[0][1]*i[0][1]))*R,u&&(a=-a),{origin:{x:p(r[4]),y:p(r[5])},translate:{x:p(t),y:p(n)},scale:{x:p(o),y:p(l)},skew:{x:p(a),y:0},rotate:p(f)}}},{key:"clone",value:function(){var t=this.m;return new this.constructor(t[0],t[1],t[2],t[3],t[4],t[5])}},{key:"toString",value:function(){var t=arguments.length>0&&void 0!==arguments[0]?arguments[0]:" ";if(null===this.s){var n=this.m.map((function(t){return p(t)}));1===n[0]&&0===n[1]&&0===n[2]&&1===n[3]?this.s="translate("+n[4]+t+n[5]+")":this.s="matrix("+n.join(t)+")"}return this.s}}],[{key:"create",value:function(t){return t?Array.isArray(t)?s(this,v(t)):t instanceof this?t.clone():(new this).recomposeSelf(t.origin,t.rotate,t.skew,t.scale,t.translate):new this}}]),t}();function T(t,n,r){return t>=.5?r:n}function q(t,n,r){return 0===t||n===r?n:t*(r-n)+n}function B(t,n,r){var e=q(t,n,r);return e<=0?0:e}function L(t,n,r){var e=q(t,n,r);return e<=0?0:e>=1?1:e}function C(t,n,r){return 0===t?n:1===t?r:{x:q(t,n.x,r.x),y:q(t,n.y,r.y)}}function D(t,n,r){var e=function(t,n,r){return Math.round(q(t,n,r))}(t,n,r);return e<=0?0:e>=255?255:e}function z(t,n,r){return 0===t?n:1===t?r:{r:D(t,n.r,r.r),g:D(t,n.g,r.g),b:D(t,n.b,r.b),a:q(t,null==n.a?1:n.a,null==r.a?1:r.a)}}function V(t,n){for(var r=[],e=0;e<t;e++)r.push(n);return r}function G(t,n){if(--n<=0)return t;var r=(t=Object.assign([],t)).length;do{for(var e=0;e<r;e++)t.push(t[e])}while(--n>0);return t}var Y,$=function(){function t(n){e(this,t),this.list=n,this.length=n.length}return o(t,[{key:"setAttribute",value:function(t,n){for(var r=this.list,e=0;e<this.length;e++)r[e].setAttribute(t,n)}},{key:"removeAttribute",value:function(t){for(var n=this.list,r=0;r<this.length;r++)n[r].removeAttribute(t)}},{key:"style",value:function(t,n){for(var r=this.list,e=0;e<this.length;e++)r[e].style[t]=n}}]),t}(),U=/-./g,Q=function(t,n){return n.toUpperCase()};function H(t){return"function"==typeof t?t:T}function J(t){return t?"function"==typeof t?t:Array.isArray(t)?function(t){var n=arguments.length>1&&void 0!==arguments[1]?arguments[1]:b;if(!Array.isArray(t))return n;switch(t.length){case 1:return _(t[0])||n;case 2:return _(t[0],t[1])||n;case 4:return x(t[0],t[1],t[2],t[3])||n}return n}(t,null):function(t,n){var r=arguments.length>2&&void 0!==arguments[2]?arguments[2]:b;switch(t){case"linear":return b;case"steps":return _(n.steps||1,n.jump||0)||r;case"bezier":case"cubic-bezier":return x(n.x1||0,n.y1||0,n.x2||0,n.y2||0)||r}return r}(t.type,t.value,null):null}function Z(t,n,r){var e=arguments.length>3&&void 0!==arguments[3]&&arguments[3],i=n.length-1;if(t<=n[0].t)return e?[0,0,n[0].v]:n[0].v;if(t>=n[i].t)return e?[i,1,n[i].v]:n[i].v;var o,u=n[0],a=null;for(o=1;o<=i;o++){if(!(t>n[o].t)){a=n[o];break}u=n[o]}return null==a?e?[i,1,n[i].v]:n[i].v:u.t===a.t?e?[o,1,a.v]:a.v:(t=(t-u.t)/(a.t-u.t),u.e&&(t=u.e(t)),e?[o,t,r(t,u.v,a.v)]:r(t,u.v,a.v))}function K(t,n){var r=arguments.length>2&&void 0!==arguments[2]?arguments[2]:null;return t&&t.length?"function"!=typeof n?null:("function"!=typeof r&&(r=null),function(e){var i=Z(e,t,n);return null!=i&&r&&(i=r(i)),i}):null}function W(t,n){return t.t-n.t}function X(t,n,e,i,o){var u,a="@"===e[0],l="#"===e[0],f=Y[e],s=T;switch(a?(u=e.substr(1),e=u.replace(U,Q)):l&&(e=e.substr(1)),r(f)){case"function":if(s=f(i,o,Z,J,e,a,n,t),l)return s;break;case"string":s=K(i,H(f));break;case"object":if((s=K(i,H(f.i),f.f))&&"function"==typeof f.u)return f.u(n,s,e,a,t)}return s?function(t,n,r){if(arguments.length>3&&void 0!==arguments[3]&&arguments[3])return t instanceof $?function(e){return t.style(n,r(e))}:function(e){return t.style[n]=r(e)};if(Array.isArray(n)){var e=n.length;return function(i){var o=r(i);if(null==o)for(var u=0;u<e;u++)t[u].removeAttribute(n);else for(var a=0;a<e;a++)t[a].setAttribute(n,o)}}return function(e){var i=r(e);null==i?t.removeAttribute(n):t.setAttribute(n,i)}}(n,e,s,a):null}function tt(t,n,e,i){if(!i||"object"!==r(i))return null;var o=null,u=null;return Array.isArray(i)?u=function(t){if(!t||!t.length)return null;for(var n=0;n<t.length;n++)t[n].e&&(t[n].e=J(t[n].e));return t.sort(W)}(i):(u=i.keys,o=i.data||null),u?X(t,n,e,u,o):null}function nt(t,n,r){if(!r)return null;var e=[];for(var i in r)if(r.hasOwnProperty(i)){var o=tt(t,n,i,r[i]);o&&e.push(o)}return e.length?e:null}function rt(t,n){if(!n.duration||n.duration<0)return null;var r=function(t,n){if(!n)return null;var r=[];if(Array.isArray(n))for(var e=n.length,i=0;i<e;i++){var o=n[i];if(2===o.length){var u=null;if("string"==typeof o[0])u=t.getElementById(o[0]);else if(Array.isArray(o[0])){u=[];for(var a=0;a<o[0].length;a++)if("string"==typeof o[0][a]){var l=t.getElementById(o[0][a]);l&&u.push(l)}u=u.length?1===u.length?u[0]:new $(u):null}if(u){var f=nt(t,u,o[1]);f&&(r=r.concat(f))}}}else for(var s in n)if(n.hasOwnProperty(s)){var c=t.getElementById(s);if(c){var h=nt(t,c,n[s]);h&&(r=r.concat(h))}}return r.length?r:null}(t,n.elements);return r?function(t,n){var r=arguments.length>2&&void 0!==arguments[2]?arguments[2]:1/0,e=arguments.length>3&&void 0!==arguments[3]?arguments[3]:1,i=arguments.length>4&&void 0!==arguments[4]&&arguments[4],o=arguments.length>5&&void 0!==arguments[5]?arguments[5]:1,u=t.length,a=e>0?n:0;i&&r%2==0&&(a=n-a);var l=null;return function(f,s){var c=f%n,h=1+(f-c)/n;s*=e,i&&h%2==0&&(s=-s);var v=!1;if(h>r)c=a,v=!0,-1===o&&(c=e>0?0:n);else if(s<0&&(c=n-c),c===l)return!1;l=c;for(var y=0;y<u;y++)t[y](c);return v}}(r,n.duration,n.iterations||1/0,n.direction||1,!!n.alternate,n.fill||1):null}function et(t){return+("0x"+(t.replace(/[^0-9a-fA-F]+/g,"")||27))}function it(t,n,r){return!t||!r||n>t.length?t:t.substring(0,n)+it(t.substring(n+1),r,r)}function ot(t){var n=arguments.length>1&&void 0!==arguments[1]?arguments[1]:27;return!t||t%n?t%n:ot(t/n,n)}function ut(t,n,r){if(t&&t.length){var e=et(r),i=et(n),o=ot(e)+5,u=it(t,ot(e,5),o);return u=u.replace(/\x7c$/g,"==").replace(/\x2f$/g,"="),u=function(t,n,r){var e=+("0x"+t.substring(0,4));t=t.substring(4);for(var i=n%e+r%27,o=[],u=0;u<t.length;u+=2)if("|"!==t[u]){var a=+("0x"+t[u]+t[u+1])-i;o.push(a)}else{var l=+("0x"+t.substring(u+1,u+1+4))-i;u+=3,o.push(l)}return String.fromCharCode.apply(String,o)}(u=(u=atob(u)).replace(/[\x41-\x5A]/g,""),i,e),u=JSON.parse(u)}}var at=function(){function t(n,r){var i=arguments.length>2&&void 0!==arguments[2]?arguments[2]:{};e(this,t),this._id=0,this._running=!1,this._rollingBack=!1,this._animations=n,this.duration=r.duration,this.alternate=r.alternate,this.fill=r.fill,this.iterations=r.iterations,this.direction=i.direction||1,this.speed=i.speed||1,this.fps=i.fps||100,this.offset=i.offset||0,this.rollbackStartOffset=0}return o(t,[{key:"maxFiniteDuration",get:function(){return this.iterations>0?this.iterations*this.duration:this.duration}},{key:"_apply",value:function(t){for(var n=arguments.length>1&&void 0!==arguments[1]?arguments[1]:{},r=this._animations,e=r.length,i=0,o=0;o<e;o++)n[o]?i++:(n[o]=r[o](t,this.direction),n[o]&&i++);return i}},{key:"_rollback",value:function(){var t=this,n=1/0,r=null;this.rollbackStartOffset=this.offset,this._rollingBack=!0,this._running=!0;this._id=window.requestAnimationFrame((function e(i){if(t._rollingBack){null==r&&(r=i);var o=i-r,u=t.rollbackStartOffset-o,a=Math.round(u*t.speed);if(a>t.duration&&n!==1/0){var l=!!t.alternate&&a/t.duration%2>1,f=a%t.duration;a=(f+=l?t.duration:0)||t.duration}var s=t.fps?1e3/t.fps:0,c=Math.max(0,a);c<n-s&&(t.offset=c,n=c,t._apply(c));var h=t.iterations>0&&-1===t.fill&&a>=t.maxFiniteDuration;(a<=0||t.offset<a||h)&&t.stop(),t._id=window.requestAnimationFrame(e)}}))}},{key:"_start",value:function(){var t=this,n=arguments.length>0&&void 0!==arguments[0]?arguments[0]:0,r=-1/0,e=null,i={};this._running=!0;var o=function o(u){null==e&&(e=u);var a=Math.round((u-e+n)*t.speed),l=t.fps?1e3/t.fps:0;if(a>r+l&&!t._rollingBack&&(t.offset=a,r=a,t._apply(a,i)===t._animations.length))return void t.pause(!0);t._id=window.requestAnimationFrame(o)};this._id=window.requestAnimationFrame(o)}},{key:"_pause",value:function(){this._id&&window.cancelAnimationFrame(this._id),this._running=!1}},{key:"play",value:function(){if(!this._running)return this._rollingBack?this._rollback():this._start(this.offset)}},{key:"stop",value:function(){this._pause(),this.offset=0,this.rollbackStartOffset=0,this._rollingBack=!1,this._apply(0)}},{key:"reachedToEnd",value:function(){return this.iterations>0&&this.offset>=this.iterations*this.duration}},{key:"restart",value:function(){var t=arguments.length>0&&void 0!==arguments[0]&&arguments[0];this.stop(t),this.play(t)}},{key:"pause",value:function(){this._pause()}},{key:"reverse",value:function(){this.direction=-this.direction}}],[{key:"build",value:function(t,r){return delete t.animationSettings,t.options=ut(t.options,t.root,"5c7f360c"),t.animations.map((function(r){var e=ut(r.s,t.root,"5c7f360c");for(var i in delete r.s,t.animationSettings||(t.animationSettings=n({},e)),e)e.hasOwnProperty(i)&&(r[i]=e[i])})),(t=function(t,n){if(Y=n,!t||!t.root||!Array.isArray(t.animations))return null;for(var r=document.getElementsByTagName("svg"),e=!1,i=0;i<r.length;i++)if(r[i].id===t.root&&!r[i].svgatorAnimation){(e=r[i]).svgatorAnimation=!0;break}if(!e)return null;var o=t.animations.map((function(t){return rt(e,t)})).filter((function(t){return!!t}));return o.length?{element:e,animations:o,animationSettings:t.animationSettings,options:t.options||void 0}:null}(t,r))?{el:t.element,options:t.options||{},player:new this(t.animations,t.animationSettings,t.options)}:null}},{key:"push",value:function(t){return this.build(t)}},{key:"init",value:function(){var t=this,n=window.__SVGATOR_PLAYER__&&window.__SVGATOR_PLAYER__["5c7f360c"];Array.isArray(n)&&n.splice(0).forEach((function(n){return t.build(n)}))}}]),t}();function lt(t){return p(t)+""}function ft(t){var n=arguments.length>1&&void 0!==arguments[1]?arguments[1]:" ";return t&&t.length?t.map(lt).join(n):""}function st(t){if(!t)return"transparent";if(null==t.a||t.a>=1){var n=function(t){return 1===(t=parseInt(t).toString(16)).length?"0"+t:t},r=function(t){return t.charAt(0)===t.charAt(1)},e=n(t.r),i=n(t.g),o=n(t.b);return r(e)&&r(i)&&r(o)&&(e=e.charAt(0),i=i.charAt(0),o=o.charAt(0)),"#"+e+i+o}return"rgba("+t.r+","+t.g+","+t.b+","+t.a+")"}function ct(t){return t?"url(#"+t+")":"none"}!function(){for(var t=0,n=["ms","moz","webkit","o"],r=0;r<n.length&&!window.requestAnimationFrame;++r)window.requestAnimationFrame=window[n[r]+"RequestAnimationFrame"],window.cancelAnimationFrame=window[n[r]+"CancelAnimationFrame"]||window[n[r]+"CancelRequestAnimationFrame"];window.requestAnimationFrame||(window.requestAnimationFrame=function(n){var r=Date.now(),e=Math.max(0,16-(r-t)),i=window.setTimeout((function(){n(r+e)}),e);return t=r+e,i},window.cancelAnimationFrame=window.clearTimeout)}();var ht={f:null,i:function(t,n,r){return 0===t?n:1===t?r:{x:B(t,n.x,r.x),y:B(t,n.y,r.y)}},u:function(t,n){return function(r){var e=n(r);t.setAttribute("rx",lt(e.x)),t.setAttribute("ry",lt(e.y))}}},vt={f:null,i:function(t,n,r){return 0===t?n:1===t?r:{width:B(t,n.width,r.width),height:B(t,n.height,r.height)}},u:function(t,n){return function(r){var e=n(r);t.setAttribute("width",lt(e.width)),t.setAttribute("height",lt(e.height))}}};Object.freeze({M:2,L:2,Z:0,H:1,V:1,C:6,Q:4,T:2,S:4,A:7});var yt={},gt=null;function pt(t){var n=function(){if(gt)return gt;if("object"!==("undefined"==typeof document?"undefined":r(document))||!document.createElementNS)return{};var t=document.createElementNS("http://www.w3.org/2000/svg","svg");return t&&t.style?(t.style.position="absolute",t.style.opacity="0.01",t.style.zIndex="-9999",t.style.left="-9999px",t.style.width="1px",t.style.height="1px",gt={svg:t}):{}}().svg;if(!n)return function(t){return null};var e=document.createElementNS(n.namespaceURI,"path");e.setAttributeNS(null,"d",t),e.setAttributeNS(null,"fill","none"),e.setAttributeNS(null,"stroke","none"),n.appendChild(e);var i=e.getTotalLength();return function(t){var n=e.getPointAtLength(i*t);return{x:n.x,y:n.y}}}function dt(t){return yt[t]?yt[t]:yt[t]=pt(t)}function mt(t,n,r,e){if(!t||!e)return!1;var i=["M",t.x,t.y];if(n&&r&&(i.push("C"),i.push(n.x),i.push(n.y),i.push(r.x),i.push(r.y)),n?!r:r){var o=n||r;i.push("Q"),i.push(o.x),i.push(o.y)}return n||r||i.push("L"),i.push(e.x),i.push(e.y),i.join(" ")}function bt(t,n,r,e){var i=arguments.length>4&&void 0!==arguments[4]?arguments[4]:1,o=mt(t,n,r,e),u=dt(o);try{return u(i)}catch(t){return null}}function wt(t,n,r){return t+(n-t)*r}function xt(t,n,r){var e=arguments.length>3&&void 0!==arguments[3]&&arguments[3],i={x:wt(t.x,n.x,r),y:wt(t.y,n.y,r)};return e&&(i.a=At(t,n)),i}function At(t,n){return Math.atan2(n.y-t.y,n.x-t.x)}function kt(t,n,r,e){var i=1-e;return i*i*t+2*i*e*n+e*e*r}function _t(t,n,r,e){return 2*(1-e)*(n-t)+2*e*(r-n)}function St(t,n,r,e){var i=arguments.length>4&&void 0!==arguments[4]&&arguments[4],o=bt(t,n,null,r,e);return o||(o={x:kt(t.x,n.x,r.x,e),y:kt(t.y,n.y,r.y,e)}),i&&(o.a=Ot(t,n,r,e)),o}function Ot(t,n,r,e){return Math.atan2(_t(t.y,n.y,r.y,e),_t(t.x,n.x,r.x,e))}function jt(t,n,r,e,i){var o=i*i;return i*o*(e-t+3*(n-r))+3*o*(t+r-2*n)+3*i*(n-t)+t}function Mt(t,n,r,e,i){var o=1-i;return 3*(o*o*(n-t)+2*o*i*(r-n)+i*i*(e-r))}function Pt(t,n,r,e,i){var o=arguments.length>5&&void 0!==arguments[5]&&arguments[5],u=bt(t,n,r,e,i);return u||(u={x:jt(t.x,n.x,r.x,e.x,i),y:jt(t.y,n.y,r.y,e.y,i)}),o&&(u.a=Et(t,n,r,e,i)),u}function Et(t,n,r,e,i){return Math.atan2(Mt(t.y,n.y,r.y,e.y,i),Mt(t.x,n.x,r.x,e.x,i))}function It(t,n,r){var e=arguments.length>3&&void 0!==arguments[3]&&arguments[3];if(Ft(n)){if(Nt(r))return St(n,r.start,r,t,e)}else if(Ft(r)){if(n.end)return St(n,n.end,r,t,e)}else{if(n.end)return r.start?Pt(n,n.end,r.start,r,t,e):St(n,n.end,r,t,e);if(r.start)return St(n,r.start,r,t,e)}return xt(n,r,t,e)}function Rt(t,n,r){var e=It(t,n,r,!0);return e.a=function(t){return arguments.length>1&&void 0!==arguments[1]&&arguments[1]?t+Math.PI:t}(e.a)/m,e}function Ft(t){return!t.type||"corner"===t.type}function Nt(t){return null!=t.start&&!Ft(t)}var Tt=new N;var qt={f:lt,i:q},Bt={f:lt,i:L};function Lt(t,n,r){return t.map((function(t){return function(t,n,r){var e=t.v;if(!e||"g"!==e.t||e.s||!e.v||!e.r)return t;var i=r.getElementById(e.r),o=i&&i.querySelectorAll("stop")||[];return e.s=e.v.map((function(t,n){var r=o[n]&&o[n].getAttribute("offset");return{c:t,o:r=p(parseInt(r)/100)}})),delete e.v,t}(t,0,r)}))}var Ct={gt:"gradientTransform",c:{x:"cx",y:"cy"},rd:"r",f:{x:"x1",y:"y1"},to:{x:"x2",y:"y2"}};function Dt(t,n,e,i,o,u,a,l){return Lt(t,0,l),n=function(t,n,r){for(var e,i,o,u=t.length-1,a={},l=0;l<=u;l++)(e=t[l]).e&&(e.e=n(e.e)),e.v&&"g"===(i=e.v).t&&i.r&&(o=r.getElementById(i.r))&&(a[i.r]={e:o,s:o.querySelectorAll("stop")});return a}(t,i,l),function(i){var o=e(i,t,zt);if(!o)return"none";if("c"===o.t)return st(o.v);if("g"===o.t){if(!n[o.r])return ct(o.r);var u=n[o.r];return function(t,n){for(var r=t.s,e=r.length;e<n.length;e++){var i=r[r.length-1].cloneNode();i.id=Yt(i.id),t.e.appendChild(i),r=t.s=t.e.querySelectorAll("stop")}for(var o=0,u=r.length,a=n.length-1;o<u;o++)r[o].setAttribute("stop-color",st(n[Math.min(o,a)].c)),r[o].setAttribute("offset",n[Math.min(o,a)].o)}(u,o.s),Object.keys(Ct).forEach((function(t){if(void 0!==o[t])if("object"!==r(Ct[t])){var n,e="gt"===t?(n=o[t],Array.isArray(n)?"matrix("+n.join(" ")+")":""):o[t],i=Ct[t];u.e.setAttribute(i,e)}else Object.keys(Ct[t]).forEach((function(n){if(void 0!==o[t][n]){var r=o[t][n],e=Ct[t][n];u.e.setAttribute(e,r)}}))})),ct(o.r)}return"none"}}function zt(t,r,e){if(0===t)return r;if(1===t)return e;if(r&&e){var i=r.t;if(i===e.t)switch(r.t){case"c":return{t:i,v:z(t,r.v,e.v)};case"g":if(r.r===e.r){var o={t:i,s:Vt(t,r.s,e.s),r:r.r};return r.gt&&e.gt&&(o.gt=function(t,n,r){var e=n.length;if(e!==r.length)return T(t,n,r);for(var i=new Array(e),o=0;o<e;o++)i[o]=q(t,n[o],r[o]);return i}(t,r.gt,e.gt)),r.c?(o.c=C(t,r.c,e.c),o.rd=B(t,r.rd,e.rd)):r.f&&(o.f=C(t,r.f,e.f),o.to=C(t,r.to,e.to)),o}}if("c"===r.t&&"g"===e.t||"c"===e.t&&"g"===r.t){var u="c"===r.t?r:e,a="g"===r.t?n({},r):n({},e),l=a.s.map((function(t){return{c:u.v,o:t.o}}));return a.s="c"===r.t?Vt(t,l,a.s):Vt(t,a.s,l),a}}return T(t,r,e)}function Vt(t,n,r){if(n.length===r.length)return n.map((function(n,e){return Gt(t,n,r[e])}));for(var e=Math.max(n.length,r.length),i=[],o=0;o<e;o++){var u=Gt(t,n[Math.min(o,n.length-1)],r[Math.min(o,r.length-1)]);i.push(u)}return i}function Gt(t,n,r){return{o:L(t,n.o,r.o||0),c:z(t,n.c,r.c||{})}}function Yt(t){return t.replace(/-fill-([0-9]+)$/,(function(t,n){return"-fill-"+(+n+1)}))}var $t={fill:Dt,"fill-opacity":Bt,stroke:Dt,"stroke-opacity":Bt,"stroke-width":qt,"stroke-dashoffset":{f:lt,i:q},"stroke-dasharray":{f:function(t){var n=arguments.length>1&&void 0!==arguments[1]?arguments[1]:" ";return t&&t.length>0&&(t=t.map((function(t){return p(t,4)}))),ft(t,n)},i:function(t,n,r){var e,i,o,u=n.length,a=r.length;if(u!==a)if(0===u)n=V(u=a,0);else if(0===a)a=u,r=V(u,0);else{var l=(o=(e=u)*(i=a)/function(t,n){for(var r;n;)r=n,n=t%n,t=r;return t||1}(e,i))<0?-o:o;n=G(n,Math.floor(l/u)),r=G(r,Math.floor(l/a)),u=a=l}for(var f=[],s=0;s<u;s++)f.push(p(B(t,n[s],r[s])));return f}},opacity:Bt,transform:function(t,n,e,i){if(!(t=function(t,n){if(!t||"object"!==r(t))return null;var e=!1;for(var i in t)t.hasOwnProperty(i)&&(t[i]&&t[i].length?(t[i].forEach((function(t){t.e&&(t.e=n(t.e))})),e=!0):delete t[i]);return e?t:null}(t,i)))return null;var o=function(r,i,o){var u=arguments.length>3&&void 0!==arguments[3]?arguments[3]:null;return t[r]?e(i,t[r],o):n&&n[r]?n[r]:u};return n&&n.a&&t.o?function(n){var r=e(n,t.o,Rt);return Tt.recomposeSelf(r,o("r",n,q,0)+r.a,o("k",n,C),o("s",n,C),o("t",n,C)).toString()}:function(t){return Tt.recomposeSelf(o("o",t,It,null),o("r",t,q,0),o("k",t,C),o("s",t,C),o("t",t,C)).toString()}},r:qt,"#size":vt,"#radius":ht,_:function(t,n){if(Array.isArray(t))for(var r=0;r<t.length;r++)this[t[r]]=n;else this[t]=n}},Ut=function(t){!function(t,n){if("function"!=typeof n&&null!==n)throw new TypeError("Super expression must either be null or a function");t.prototype=Object.create(n&&n.prototype,{constructor:{value:t,writable:!0,configurable:!0}}),n&&l(t,n)}(u,t);var n,r,i=(n=u,r=f(),function(){var t,e=a(n);if(r){var i=a(this).constructor;t=Reflect.construct(e,arguments,i)}else t=e.apply(this,arguments);return c(this,t)});function u(){return e(this,u),i.apply(this,arguments)}return o(u,null,[{key:"build",value:function(t){var n=h(a(u),"build",this).call(this,t,$t);if(!n)return null;n.el,n.options,function(t,n,r){t.play()}(n.player)}}]),u}(at);return Ut.init(),Ut}));
(function(s,i,o,w,a,b){w[o]=w[o]||{};w[o][s]=w[o][s]||[];w[o][s].push(i);})('5c7f360c',{"root":"eH3IJFcPYAW1","animations":[{"elements":{"eH3IJFcPYAW2":{"transform":{"data":{"t":{"x":-2310.265739,"y":-854.712219}},"keys":{"o":[{"t":0,"v":{"x":2310.265739,"y":853.211846,"type":"corner"}},{"t":1500,"v":{"x":2337.448024,"y":993.630784,"type":"corner"}},{"t":3000,"v":{"x":2310.265739,"y":853.211846,"type":"corner"}}]}}},"eH3IJFcPYAW3":{"transform":{"data":{"t":{"x":-1997.384888,"y":-191.014992}},"keys":{"o":[{"t":0,"v":{"x":1839.639888,"y":196.947822,"type":"corner"}},{"t":1500,"v":{"x":1928.819903,"y":196.947823,"type":"corner"}},{"t":3000,"v":{"x":1839.639888,"y":196.947822,"type":"corner"}}]}}}},"s":"MLDA1Mzk4M2Y4MTkyOGKY3ZTkxODY4YzhiM2YJ1NzUwNGRRNGQ0ZDQ5TM2Y4MTg2OGZEODJJONDA5MTg2OGM4YlgzZjKU3NGU0OTNmODY5MTgVyOGY3ZTkxODY4YzhiJOTAzZlU1NzRkNDkzZGkc4Mzg2ODk4OVAzZjGU3TTRlNDkzZjdlODkD5MTgyOGY4YjdlOTE4VMjNmNTc4MzdlODk5MFDgyTzQ5M2Y5MFk4ZDHgyODI4MTNmNTc0ZTlGh"}],"options":"MHDAxMDg4MmY4MFE4MTIZlN2Y4MTJmNDcyZkEA3OTdjNmU3MTJmOGE/H"},'__SVGATOR_PLAYER__',window)]]></script></svg>