<?xml version="1.0" encoding="utf-8"?>
<!-- Generator: Adobe Illustrator 26.1.0, SVG Export Plug-In . SVG Version: 6.00 Build 0)  -->
<svg version="1.1" id="Capa_1" xmlns="http://www.w3.org/2000/svg" xmlns:xlink="http://www.w3.org/1999/xlink" x="0px" y="0px"
	 viewBox="0 0 750 500" style="enable-background:new 0 0 750 500;" xml:space="preserve">
<style type="text/css">
	.st0{fill:#AB9BF9;}
	.st1{fill:#B4AAF9;}
	.st2{fill:#9B8FEF;}
	.st3{fill:#EFECE6;}
	.st4{fill:#090D46;}
	.st5{fill:#D3D0C9;}
	.st6{fill:#4639B9;}
	.st7{fill:#E89E85;}
	.st8{fill:#E2DFD8;}
	.st9{fill:#6861E2;}
	.st10{fill:#D18774;}
	.st11{fill:#EA9639;}
	.st12{fill:#FEBC53;}
	.st13{fill:#1C2872;}
	.st14{fill:#EFEBE4;}
	.st15{fill:#FAD349;}
	.st16{fill:#FB2D5D;}
	.st17{fill:#C43AD6;}
	.st18{fill:#FFFFFF;}
	.st19{fill:#81ADDF;}
	.st20{fill:#B6DBFF;}
	.st21{fill:#3C6A84;}
	.st22{fill:#4A79A0;}
	.st23{fill:#6392C1;}
	.st24{fill:#E8866B;}
	.st25{fill:#FC4777;}
</style>
<g id="b">
	<g>
		<g>
			<g>
				<path class="st0" d="M669.3,113.5c-7.6,32.9-71.2,67-97.5,92.3c-4.6,4.4-9.2,9.5-10,15.8c-1.4,11.2,9.6,19.8,19.4,25.4
					c9.8,5.7,21.1,13.3,20.9,24.6c-0.1,4.8-2.3,9.3-4.9,13.3c-10.1,15.8-26,27.2-42.6,35.9c-29,15.2-61.2,23.5-93.4,29.8
					c-55.3,10.8-111.5,16.4-167.6,20.8c-58.3,4.5-117.1,7.6-175.1,0.2c-18.1-2.3-38.8-7.8-45.8-24.6c-6.1-14.6,1.2-31.3,9.9-44.6
					c25.1-38.6,65.6-58.3,98.4-90.6c31.5-30.9,20.8-59.9,10.7-67.1c-33.3-23.4,22.6-53,87.7-72c19.9-5.8,40.6-10.6,59.9-13.9
					c49.8-8.5,90-7.3,81.8,12.1c-17.5,41.4,25.6,32,36.4,30.5c36.9-5.3,85.2-15.6,126-20.5c37.6-4.5,68.9-4.5,79.4,8.1
					C669.6,97,671.2,105.2,669.3,113.5L669.3,113.5z"/>
				<path class="st1" d="M583.5,81c-2.3,9.9-8.8,19.3-16.8,25.9c-23.7,19.6-59.4,22.2-79.3,45.7c-7.3,8.6-11.8,19.6-12.6,30.8
					c-0.4,5.1,0,10.2-1.3,15.1c-2.9,10.8-13,18.1-23.2,22.7c-21.1,9.5-44.9,11.4-68,10.3c-8.4-0.4-17.2-1.4-23.8-6.5
					c-4.9-3.8-8-9.5-10.6-15.1c-3.5-7.4-6.4-15.3-6-23.5c1-17,16.1-29.6,22.8-45.3c2.4-5.8,3.5-13.1-0.8-17.8
					c-2.2-2.4-5.3-3.6-8.3-4.9c-7.4-3.2-14.6-7.5-19.9-13.5c-5.4-6.1-8.9-14.1-8.3-22.2c0.6-9,6-16.9,12-23.7
					c49.8-8.5,90-7.3,81.8,12.1c-17.5,41.4,25.6,32,36.4,30.5C494.5,96.2,542.7,85.9,583.5,81L583.5,81z"/>
				<path class="st2" d="M561.8,221.7c-1.4,11.2,9.6,19.8,19.4,25.4c9.8,5.7,21.1,13.3,20.9,24.6c-0.1,4.8-2.3,9.3-4.9,13.3
					c-10.1,15.8-26,27.2-42.6,35.9c-29,15.2-61.2,23.5-93.4,29.8c-55.3,10.8-111.5,16.4-167.6,20.8c-58.3,4.5-117.1,7.6-175.1,0.2
					c-18.1-2.3-38.8-7.8-45.8-24.6c-6.1-14.6,1.2-31.3,9.9-44.6c25.1-38.6,65.6-58.3,98.4-90.6c31.5-30.9,20.8-59.9,10.7-67.1
					c-33.3-23.4,22.6-53,87.7-72c-4.8,4.6-9.3,9.5-13.4,14.6c-8.1,10.1-15.1,23.5-10.1,35.4c6.9,16.4,31.4,18,40.3,33.4
					c8.1,14-0.8,31.8-11.2,44.2c-14.4,17.1-32.1,31.6-44,50.5c-8,12.9-12.8,30.2-4.2,42.7c8.3,12,24.9,14.1,39.4,14.6
					c76.4,2.8,153.2-7.1,226.5-29c11.8-3.5,24.9-8.7,29.2-20.2c4.6-12.2-3-25.5-2.9-38.5c0-14.2,9.3-27,20.8-35.4
					c11.5-8.3,25.2-13,38.4-18.1c26.9-10.4,53.5-23.5,73.3-44.4c2.8-2.9,5.4-6,7.8-9.3c-7.6,32.9-71.2,67-97.5,92.4
					C567.2,210.3,562.5,215.4,561.8,221.7L561.8,221.7z"/>
			</g>
			<g>
				<g>
					<path class="st1" d="M438.4,68.2c-3.6,10.2-0.1,19.1,11.7,19.1c6.5,0,13.2-1.1,19.5-2.5s14.3-2.4,19.8-6.1
						c2.4-1.6,1.5-5.4-1.5-5.5c-4.1-0.1-8,1.5-12,2.6c-4.6,1.2-9.2,2.4-13.9,3.2c-4.4,0.8-9.1,1.7-13.6,1.4c-6.3-0.4-5.8-6-4.9-10.8
						C444.3,66.2,439.6,64.9,438.4,68.2L438.4,68.2L438.4,68.2z"/>
					<path class="st0" d="M496.3,74.4c0.5,1.4,1.3,2.8,2.7,3.6c0.5,0.3,1.1,0.5,1.7,0.7c1.1,0.3,2.2,0.1,3.3,0
						c0.5-0.2,0.9-0.4,1.4-0.6c0.7-0.4,1.2-0.9,1.6-1.5c0.8-1,1.3-2.3,1.3-3.6c0-1-0.3-2-0.8-3c-0.4-0.7-0.9-1.2-1.5-1.7
						c-0.6-0.5-1.2-0.9-2-1.1c-1.3-0.2-2.2-0.3-3.5,0c-1,0.3-2,0.8-2.7,1.6C496.5,70.2,495.6,72.5,496.3,74.4L496.3,74.4L496.3,74.4
						z"/>
					<path class="st2" d="M518,73.7c5.1,0,5.1-8,0-8S512.9,73.7,518,73.7L518,73.7z"/>
				</g>
				<g>
					<path class="st1" d="M610.4,235c-3.5-11.6-3.1-24.5,2.6-35.3c2.4-4.5,5.5-8.5,9.3-11.9c3.7-3.4,8.9-5.1,12.3-8.6
						c1.5-1.6,0.5-4.7-1.9-4.6c-5.3,0.3-10.5,4.8-14.4,8.2c-4.5,4-8.4,9-11.1,14.4c-6.2,12.3-6.9,26.4-1.8,39.2
						C606.6,239.4,611.4,238.2,610.4,235L610.4,235L610.4,235z"/>
					<path class="st0" d="M648.1,171.1l0.3-0.2c1.1-0.9,1.3-2.6,1-3.9l0-0.1c-0.3-1.2-1.4-2.4-2.7-2.7l-0.1,0c-1.3-0.3-3-0.1-3.9,1
						l-0.2,0.3c-0.7,0.8-1.2,1.7-1.2,2.8c0,1,0.4,2.1,1.2,2.8c0.8,0.7,1.7,1.2,2.8,1.1c0.3-0.1,0.7-0.1,1-0.1
						C647,171.9,647.6,171.6,648.1,171.1L648.1,171.1L648.1,171.1z"/>
					<path class="st2" d="M657.3,160.8c4.8,0,4.8-7.5,0-7.5S652.5,160.8,657.3,160.8L657.3,160.8z"/>
				</g>
				<g>
					<path class="st1" d="M134.7,209c-0.1,16.2-13.1,22.9-24.4,31.4c-6.6,4.9-13,10.1-18.9,15.7c-6.8,6.4-15.1,14-18.6,22.8
						c-0.9,2.2,2.3,4.7,4.2,3.2c4.3-3.3,7.7-7.9,11.3-11.9c3.6-4,7.4-7.7,11.3-11.4c6.3-5.8,12.8-11.4,19.6-16.6
						c11.2-8.6,24.1-18.3,21.8-34.1C140.4,204.5,134.7,205.5,134.7,209L134.7,209L134.7,209z"/>
					<path class="st2" d="M55,316.1c0.2,0.3,0.3,0.5,0.5,0.8c0.4,0.6,1,1,1.5,1.4l1.2,0.5c0.7,0.2,1.3,0.2,2,0.1
						c1-0.1,2.1-0.6,2.8-1.4c0.6-0.6,1-1.4,1.3-2.2c0.3-1.1,0.2-2.9-0.5-3.8c-0.6-0.9-1.2-1.6-2.2-2.1c-1-0.5-2-0.7-3.1-0.6
						c-1,0.1-2.1,0.5-2.8,1.3c-0.6,0.6-1,1.3-1.2,2.1C54.1,313.7,54.5,315,55,316.1L55,316.1L55,316.1z"/>
					<path class="st0" d="M67.5,302.7c8.6,0,8.6-13.3,0-13.3S58.9,302.7,67.5,302.7L67.5,302.7z"/>
				</g>
			</g>
		</g>
		<ellipse class="st3" cx="372.3" cy="446" rx="277.7" ry="28.5"/>
		<g>
			<g>
				<path class="st4" d="M182.6,425.8c-0.4,3.1-3.4,10.2-2.3,11.4c1.2,1.3,28.3,2.6,39.2,1c5.2-0.6,4.6-5-0.8-7
					c-3-1.1-16.5-3.4-21.7-5.5c-1.2-3.7-2.4-7.5-3.7-11.2c-0.2-0.5-0.3-1-0.7-1.3c-0.5-0.4-1.2-0.4-1.8-0.4c-2.4,0.1-4.8,0-7.1,0.4
					C182.4,419.7,183.6,419.2,182.6,425.8L182.6,425.8z"/>
				<path class="st4" d="M143.2,444.4c-0.4,3-0.2,6.5,2.2,8.2c1.6,1.1,15.4,1.9,17.8-1.4c2.4-3.3,1.5-6.9,1.2-8.9
					c-1.4-9.9-1.3-16.7-2.7-26.6c-3.5,0.1-6.7,0.4-10.2,0c-0.4,3.1-0.6,5.8-1.2,9C149.8,428.4,143.6,441.1,143.2,444.4L143.2,444.4z
					"/>
				<path class="st5" d="M165.9,313.7c-3.4,1.3,33-1.5,41.5-4s-12.9-51.4-12.9-51.4L165.9,313.7L165.9,313.7z"/>
				<path class="st6" d="M150.1,344.1c-0.1,15.4-3,60-0.9,78.2c6.5,3.8,14.9,0.5,14.9,0.5c5.6-28.1,6.1-47.2,11.7-75.4
					c3.1-15.5,8.6-69.1,11.4-82.6c1.4,0.3,2.4-0.3,3.7,0c0.7,25.7-2,45.3-3.6,69.1c-2,30.2-3.9,45.3-5.1,87.1
					c7.8,2.3,12.2,1.3,14.2-0.7c6.2-18.8,14-66,17.1-88.8c4.7-34.8,9.1-64.5,2.8-99c-10.5,4-55.7,0.2-66.8,0.1
					c-2,10-1.2,21.5-2,31.8C146.6,278.1,150.1,316.8,150.1,344.1L150.1,344.1z"/>
			</g>
			<g>
				<path class="st5" d="M217.2,131.4c6.5,15.9,13,31.9,19.4,47.8c1.4,3.4,2.8,6.9,4,10.4c1.3,3.9-11.1,11.1-15.6,7.3
					c-9.2-7.7-14.2-20.9-21.2-30.7c-7-9.8-12.6-21.1-12.9-33.2c0-1.9,0.1-3.9,0.9-5.6C197.2,117.1,213.8,123.2,217.2,131.4
					L217.2,131.4z"/>
				<path class="st7" d="M257,165.7c-3,5.8,2.2,8.5,6.7,4.6c3.7-3.2,5.1-7,4.6-11C265.9,162.9,261.9,165.3,257,165.7z"/>
				<path class="st5" d="M260.9,182.5c1.6-2.1,5.6-9.5,5.6-12.1c0,0-3.4-1-5.8-2.9s-5.2-3.5-6.8-6c-0.7,4.7-2.3,9.7-6.4,12.1
					c-4.1,2.3-9.4,1.1-13.9,2.5c-11.1,3.5-16,22-2,24.4C244.6,202.7,254.3,191.4,260.9,182.5L260.9,182.5z"/>
				<path class="st8" d="M224.2,190.1c0-1.5,0-3,0.3-4.4c0.3-1.4,1.1-2.6,1.9-3.8c0.2-0.3-0.2-0.8-0.6-0.6c-2.8,2.1-2.8,5.6-2.5,8.8
					C223.4,190.6,224.1,190.6,224.2,190.1L224.2,190.1L224.2,190.1z"/>
				<path class="st8" d="M227.9,189.9c-0.9-2.5,0-4.4,0.9-6.7c0.2-0.4-0.4-0.8-0.7-0.6c-2.3,1.8-2.2,5.2-1,7.6
					C227.4,190.7,228.1,190.4,227.9,189.9L227.9,189.9L227.9,189.9z"/>
			</g>
			<g>
				<path class="st9" d="M179.9,114.1l-36.9,20c0,0,15.2,42,14.1,59.7c-1,17.7,0,27.6,0,27.6l55.6-6.1c0,0,1.2-29,0.7-45.2
					c-0.6-16.2-2.2-43.5-2.2-43.5L179.9,114.1L179.9,114.1z"/>
				<path class="st10" d="M166,110.4c0.2,2.7-0.1,4.4-0.7,5.8c-2.2,4.7,18,14.8,23,13.4c2.4-0.7,6-6.9,5.9-9.4
					c-4.1,0.4-4.3-2.2-6.3-5.7c-1.2-2.1-1.6-4.4-2.1-6.8c-0.7-3.8-1.4-7.6-2.1-11.4c-0.1-0.5-0.2-1-0.6-1.3
					c-0.4-0.3-0.9-0.4-1.3-0.4c-3.2-0.3-17.7-4-17-0.6C165.7,98.8,165.8,107.6,166,110.4L166,110.4z"/>
				<path class="st9" d="M168.1,126.6c0,0,8.2,11.1,20.6,6.8c12.4-4.3,4.8-15,4.8-15l-5.8-4.5c0,0,3.7,5.8,0.5,15.7
					c0,0-16.8-11.8-20.1-9.1S168.1,126.5,168.1,126.6L168.1,126.6z"/>
				<g>
					<g>
						<path class="st8" d="M138.8,129.5c-1.6,1.5-3.2,3.1-4.1,5.1c-0.9,2.2-1,4.6-0.8,7c0.4,6.3,1.8,12.6,4.2,18.4
							c2.2,5.3,5.2,10.3,7.1,15.8c2.5,7.3,2.8,15.2,2.8,22.9c-0.1,22.9-8.4,93.8-14.1,116c14.1,4.7,36.2,4.2,50.9,1.8
							c0.3-12.9,3.3-19,5.4-31.7c1.3-8,7.8-96.1,2.1-122.9c-0.3-1.6-11.4-26-16.7-36.2c-3.5-6.7-4.8-13.3-11.4-10.2
							C157.8,118.4,143.9,124.8,138.8,129.5L138.8,129.5z"/>
						<path class="st8" d="M191.6,116.9c6.1,0.9,17.9,5.4,20.7,10.2c1.8,3,2.3,6.7,2.7,10.2c2.9,22.1,0.1,44.3,1.8,66.5
							c1.5,20.7,10.8,86.4,9,107c-11.7,2.3-20.1,1.9-31.9,4.2c0.1-7-3.1-11.2-3.9-30.2c-0.8-18.5-0.4-53.8-0.7-60.7
							c-1-24.1-1.1-33.6,3.1-58.2C195.2,149.4,191.8,132.4,191.6,116.9L191.6,116.9z"/>
					</g>
					<path class="st5" d="M194.4,187.6c-0.1,15.2-0.3,30.4-0.8,45.6c-0.5,15.1-2.4,30.4-2.4,45.6c0,1.1,1.7,1.4,1.9,0.3
						c2.5-14.6,2.2-30.1,2.6-44.9c0.5-15.5,0.8-31,0-46.5C195.7,186.8,194.4,186.8,194.4,187.6L194.4,187.6L194.4,187.6z"/>
					<path class="st5" d="M158.1,252.4c3.3,0.1,6.5,0.1,9.8,0.2c2.8,0.1,5.9,0.4,8.6-0.3c0.7-0.2,0.7-1.2,0-1.4
						c-2.7-0.8-5.8-0.4-8.6-0.3c-3.3,0.1-6.5,0.1-9.8,0.2C157.1,250.7,157.1,252.4,158.1,252.4L158.1,252.4z"/>
					<path class="st5" d="M206.6,250.2c3.2,0.4,6.7,0.6,10,0.1c0.9-0.1,0.9-1.8,0-1.9c-3.2-0.4-6.7-0.3-10,0.1
						C205.8,248.6,205.8,250.1,206.6,250.2L206.6,250.2z"/>
					<path class="st5" d="M167.2,159.8c2.1-0.1,4.2-0.5,6.2-1.1c1.6-0.5,3.7-1,4.6-2.5c0.3-0.5-0.1-1.1-0.6-1.1
						c-1.6-0.1-3,1-4.5,1.5c-1.8,0.6-3.7,1.1-5.6,1.3C166.1,158.1,166,159.8,167.2,159.8L167.2,159.8L167.2,159.8z"/>
				</g>
				<path class="st6" d="M178.3,137.6c2-4.8,0.1-6.7,3.3-10.8c2.4,2.2,4.8,4.4,7.2,6.5c0.5-2.4,1.1-4.7,1.9-7
					c2.6,2.4,3.6,4.8,5.9,7.5c1.2-4.4,1.9-8.1,0-13.1c-1.9-5.2-5-6.7-8.9-6.9c0.6,4.7,0,9.5-1.6,13.9c-4.1-2.5-15.1-14.2-20.3-19.2
					c0,0-3.9,4.6-3.9,7.8C162,120.3,174.9,133.8,178.3,137.6L178.3,137.6z"/>
			</g>
			<g>
				<polygon class="st11" points="246.7,119.3 228.3,178.6 229.9,179.9 255.2,177.1 276.1,118.4 				"/>
				<polygon class="st12" points="248.7,119.3 229.9,179.9 257.2,177.1 276.1,118.4 				"/>
				<path class="st7" d="M268.4,159.4c-0.2-1.9-0.9-3.8-1.8-5.8c-1.3-2.6-2.7-3.9-4.2-6.3c-0.8-1.2-2.4-3.7-3.5-2.7
					c-0.5,2.3,2.4,5.6,3.5,7.6c-2.4-1.4-9.2-5.1-10-4.5c-0.7,1.5,0.9,2.5,2.3,3.4c1.4,0.9,5.7,4,3.3,4c-3.4-0.8-10.2-4.4-10.1-2.5
					c1.2,2.2,3.7,3,5.8,4.4c1.6,1.1,4.4,2.4,4.5,3.4c-1.7,0.6-1.8,0.3-3.6,0c-1.8-0.2-4.8-0.5-3.8,1c0.5,0.7,8.1,3.7,8.8,3.9
					C266.2,167.7,267.4,163.1,268.4,159.4L268.4,159.4z"/>
				<path class="st5" d="M256,117l-1.4,4.9l10.3-0.6l1.5-4.7l-3,0.1c0,0,0.5-2.8-1.6-2.7c-2.2,0.1-2.7,2.7-2.7,2.7L256,117L256,117z
					"/>
			</g>
			<g>
				<path class="st7" d="M167.1,96.2c1.1,7.8,5.9,13.7,10.5,16.6c4.6,2.9,10.8,3.8,15.3,0.7c1.8-1.3,3.2-3.1,4.3-5.1
					c2.1-3.9,2.9-8.4,3.5-12.8c0.8-5.4-1-8.4,0.2-15.1c1-5.4,2.4-10.6-1.4-14.4c-2.7-2.7-10.8-6.2-14.3-7.6
					c-3.7-1.6-7.8-2.8-11.7-1.7c-3.3,0.9-5.9,3.3-8.4,5.8C153.9,73.9,165,82.3,167.1,96.2L167.1,96.2z"/>
				<path class="st4" d="M179.1,75.4c10.5,0.9,10.7-1.1,15.9-1.9c6.2-1,11.1,2.3,12.3-3.8c-4-2.4-4.8-6-9.2-10
					c-4.2-3.8-10.3-6-22.2-5.3c-8.3,0.5-16.3,3.8-14,11.8c-2.7-0.2-5.6,3.1-5.6,6.4c-0.1,7,2.6,22.3,7.5,21.9
					c7-0.6,5.1-15.8,4.3-21.1C171.3,74.3,175.6,75.1,179.1,75.4L179.1,75.4z"/>
				<path class="st7" d="M162,84.4c-2.6,1.7-2.6,5-1.8,7.8c0.8,2.8,3.6,5.3,6.5,5.4c3.8,0.2,3.3-4.4,3.1-7
					C169.1,83.4,165,82.5,162,84.4z"/>
				<ellipse class="st4" cx="181.7" cy="89.1" rx="1.6" ry="2.7"/>
				<path class="st4" d="M196.1,88.6c0,1.5-0.7,2.7-1.6,2.7s-1.6-1.2-1.6-2.7s0.7-2.7,1.6-2.7S196.1,87.1,196.1,88.6z"/>
				<path class="st10" d="M188.3,86.1c-0.6,2.3-1.7,6.4,0.2,8.4c0.7,0.7,2,0.9,2.5,1.8c1.2,2-2.1,2.1-3.2,2.2
					c-1.2,0.1-1.3,1.9,0,1.9c2.3,0.1,5.8-0.9,5.6-3.9c-0.1-1.1-0.8-2-1.6-2.6c-1.1-0.9-1.8-0.8-2-2.6c-0.2-1.6,0.2-3.5,0.3-5.1
					C190.1,85.3,188.6,85.1,188.3,86.1L188.3,86.1L188.3,86.1z"/>
				<path class="st10" d="M181.6,103.9c1.6,1.6,3.7,2.7,6,2.6c2.2-0.1,4.9-1.4,5.6-3.6c0.1-0.4-0.3-0.8-0.7-0.7
					c-1.9,0.7-3,2.4-5.2,2.5c-1.9,0.1-3.4-0.9-4.9-1.9C181.7,102.4,181,103.4,181.6,103.9L181.6,103.9z"/>
				<path class="st10" d="M185.7,108.8c1,0.1,1.9,0.3,3,0.2c0.5,0,0.6-0.7,0.1-0.8c-1-0.3-1.9-0.4-2.9-0.6
					C185.2,107.6,185.1,108.7,185.7,108.8L185.7,108.8z"/>
				<path class="st10" d="M166.6,86.3c-1-1-2.4-1.1-3.6-0.3c-1.4,0.9-1.8,2.6-1.7,4.1c0.1,1.7,1.3,5.9,3.7,5.3
					c0.3-0.1,0.5-0.4,0.3-0.7c-0.4-0.6-1-0.8-1.4-1.4c-0.4-0.6-0.7-1.3-0.9-2c-0.5-1.8,0.2-5.9,3-4.1
					C166.5,87.5,167,86.8,166.6,86.3L166.6,86.3L166.6,86.3z"/>
				<path class="st4" d="M176.2,82c1.4-0.7,2.9-1.2,4.4-1.4c1.3-0.1,2.6,0.2,4,0.1c0.7,0,1.1-1.1,0.4-1.5c-2.9-1.5-7-0.2-9.5,1.5
					C174.7,81.3,175.4,82.4,176.2,82L176.2,82L176.2,82z"/>
				<path class="st4" d="M192.8,80.8c1.1-0.5,2.3-1.1,3.5-1.1c1.1,0,1.9,0.9,3,0.6c0.4-0.1,0.6-0.6,0.5-0.9
					c-0.4-1.4-2.2-1.8-3.5-1.8c-1.6,0-3.1,0.9-4.4,1.7C191,79.9,191.9,81.3,192.8,80.8L192.8,80.8L192.8,80.8z"/>
				<path class="st10" d="M177.9,95.8c1.1,0.2,2.4,0.3,3.2-0.6c0.4-0.4,0.1-1-0.4-1.1c-0.9,0-1.7,0.3-2.6,0.2
					C177.4,94.4,177.2,95.6,177.9,95.8C177.9,95.8,177.9,95.8,177.9,95.8z"/>
				<path class="st10" d="M196.1,95.1c0.3,0.1,0.6,0,0.9,0c1.2-0.1,1.1-1.7,0-1.8c-0.6-0.1-1.2,0.3-1.5,0.9
					C195.5,94.6,195.8,95.1,196.1,95.1L196.1,95.1L196.1,95.1z"/>
				<path class="st10" d="M167.4,89.4c-1.3-0.5-2.6,0.1-2.6,1.7c0,1.5,0.9,2.8,2.4,3.2c0.5,0.1,0.8-0.5,0.4-0.8
					c-0.6-0.4-1.2-1.3-1.4-2.1c-0.2-0.8,0.2-1,1-0.7C167.8,90.9,168.1,89.7,167.4,89.4L167.4,89.4L167.4,89.4z"/>
				<path class="st13" d="M173.8,66.9c7.2,3.4,14.9,0.2,22.5-0.1c0.5,0,0.5-0.7,0-0.8c-7.6-0.4-15,3.5-22.2,0.4
					C173.8,66.2,173.4,66.7,173.8,66.9C173.8,66.9,173.8,66.9,173.8,66.9z"/>
				<path class="st13" d="M170.7,62.6c6.4,2.8,12.6,0.9,19.3,0.1c0.7-0.1,0.7-1,0-1c-6.6-0.5-12.3,2.6-19,0.2
					C170.5,61.6,170.2,62.4,170.7,62.6L170.7,62.6L170.7,62.6z"/>
				<path class="st13" d="M172.7,58.5c3.7,1.6,8.6,2,12.2-0.2c0.4-0.2,0.1-0.9-0.3-0.8c-4.1,1.1-7.5,1.7-11.6,0.3
					C172.6,57.8,172.3,58.4,172.7,58.5L172.7,58.5L172.7,58.5z"/>
				<path class="st13" d="M160.5,70.6c-2.3,2-2.3,5.8-0.6,8.2c0.2,0.3,0.8,0.2,0.8-0.2c0-2.5-1.3-5.1,0.6-7.2
					C161.8,70.8,161,70.1,160.5,70.6L160.5,70.6L160.5,70.6z"/>
				<path class="st13" d="M163.2,72.1c-0.8,2.3-0.9,5.9,1,7.7c0.4,0.3,1,0,0.9-0.5c-0.2-1.1-0.8-2-1-3.1c-0.3-1.3-0.3-2.6,0-3.9
					C164.1,71.8,163.3,71.6,163.2,72.1L163.2,72.1L163.2,72.1z"/>
				<path class="st13" d="M164.6,66.5c-0.2-0.8-0.3-1.5-0.3-2.3c0-0.6,0.2-1.3,0.1-1.9c0-0.2-0.4-0.3-0.5-0.1
					c-0.7,1.2-0.2,3.2,0.2,4.4C164.1,67,164.7,66.9,164.6,66.5L164.6,66.5L164.6,66.5z"/>
				<path class="st13" d="M166.1,67.6c0.4-1,0.9-2,1.2-3.1c0.1-0.2-0.2-0.3-0.4-0.2c-0.6,0.9-0.9,2-1.2,3.1
					C165.7,67.7,166,67.8,166.1,67.6L166.1,67.6z"/>
				<path class="st13" d="M167.9,70.2c0.3-0.4,0.7-0.8,1.1-1.1c0.4-0.3,0.8-0.5,1.1-0.8c0.2-0.2,0-0.5-0.2-0.4c-1,0.1-1.9,1.2-2.4,2
					C167.3,70.2,167.7,70.5,167.9,70.2L167.9,70.2L167.9,70.2z"/>
			</g>
			<g>
				<g>
					<g>
						
							<rect x="195.8" y="139.6" transform="matrix(0.2721 -0.9623 0.9623 0.2721 14.6685 302.3242)" class="st4" width="22.7" height="3.7"/>
						<polygon class="st12" points="212.1,131 208.5,130 210.1,127.8 211.7,125.6 211.9,128.3 						"/>
						<path class="st12" d="M202.3,151.9l3.5,1l-0.2,0.6c-0.3,0.9-1.2,1.4-2.1,1.2l-0.3-0.1c-0.9-0.3-1.4-1.2-1.2-2.1L202.3,151.9
							L202.3,151.9L202.3,151.9z"/>
						<polygon class="st4" points="211.9,128.3 210.1,127.8 211.7,125.6 						"/>
					</g>
					<path class="st7" d="M210.7,150.2c0.6-1.2,8.5-2,6.8-3.7c-0.4-0.4-7,0.2-6.5,0c6.3-2.4,8.8-5.8,5.9-5c-2.6,1-5.2,1.9-7.8,2.9
						c1.2-1.4,2.4-1.8,3.8-2.9c1.3-1.1,5-4.1,3-4.3c-2.5,1.1-6.4,3.2-8.3,5.1c0.3-2.3,7.2-7,4-7c-2.4,1.7-4.8,3.4-7.2,5.1
						c-1.6,1.1-2.4,3.3-2.6,4c-0.4,2.8,0.3,10.9-1,13.4c-1.3,2.6-5.5,6.7-8.2,7.6c0.4,8.7,2.9,10,9.9,6.8c4.4-2.1,8.7-7.2,9.4-12.1
						C212,158.6,210.5,150.6,210.7,150.2L210.7,150.2z"/>
				</g>
				<g>
					<path class="st14" d="M134.9,164.1c5.2,11.6,11.2,28.2,19.3,37.9c3.1,3.8,5.2,5.6,10.1,5.7c5.5,0.1,11.9-6,16-9.7
						c11-9.9,17.1-16.2,26.9-24.2c-4-5.5-6.3-9.4-9.4-15.4c-11,8.1-20.1,13.8-32.1,20.4c-1.7-10.7-18-53.8-24.2-51.4
						c-5.9,2.3-9.7,5.6-11.4,11.8C129.2,143.1,130,153.3,134.9,164.1L134.9,164.1z"/>
					<path class="st5" d="M201.8,174.1c0,1.1-0.9,2-2,2s-2-0.9-2-2s0.9-2,2-2S201.8,173,201.8,174.1z"/>
					<path class="st5" d="M194.6,179.1c0,1.1-0.9,2-2,2s-2-0.9-2-2s0.9-2,2-2S194.6,178,194.6,179.1z"/>
					<path class="st8" d="M163.9,180.3c-2.8,3.8-5.6,9.6-4.6,14.4c0.2,1,1.5,0.8,1.9,0c0.8-2.1,0.9-4.4,1.6-6.6
						c0.7-2.4,1.8-4.6,3-6.8C166.5,180.1,164.7,179.1,163.9,180.3L163.9,180.3L163.9,180.3z"/>
					<path class="st8" d="M166.6,181.9c-1.6,5.1-2,11.6,1,16.3c0.5,0.7,1.6,0.3,1.4-0.6c-1.3-5.3-2.4-9.8-1-15.3
						C168.3,181.3,166.8,181,166.6,181.9L166.6,181.9L166.6,181.9z"/>
				</g>
			</g>
		</g>
		<g>
			<g>
				<g>
					<g>
						<rect x="400" y="232.8" class="st6" width="16.3" height="31.8"/>
						<g>
							<path class="st4" d="M360.6,178.2h95.1c2.5,0,4.5,2,4.5,4.5v52.1c0,2.5-2,4.5-4.5,4.5h-95.1c-2.5,0-4.5-2-4.5-4.5v-52.1
								C356.1,180.3,358.1,178.2,360.6,178.2z"/>
							<rect x="361.5" y="182.7" class="st15" width="93.3" height="52.2"/>
						</g>
					</g>
					<rect x="378.9" y="264.5" class="st4" width="58.6" height="4.5"/>
				</g>
				<g>
					<path class="st16" d="M427.1,205.7c-1.7,0-3.1,1.4-3.1,3.1s1.4,3.1,3.1,3.1s3.1-1.4,3.1-3.1S428.8,205.7,427.1,205.7z"/>
					<path class="st17" d="M441.9,210.3c-0.6-0.5-1.3-1-2-1.5c0.7-0.5,1.4-1,2-1.5c3.3-2.6,4.7-4.9,4-6.5c-0.7-1.6-3.3-2.2-7.5-1.7
						c-1.8,0.2-3.7,0.6-5.7,1.2c-0.9-6.6-2.8-12-5.6-12s-4.7,5.3-5.6,12c-6.4-1.8-12.1-2.1-13.2,0.4c-0.9,2.1,1.8,5.1,6,8
						c-4.2,2.9-6.9,5.9-6,8c0.6,1.3,2.3,1.9,4.7,1.9s5.3-0.6,8.5-1.4c0.9,6.6,2.8,12,5.6,12s4.7-5.3,5.6-12c2,0.6,4,1,5.7,1.2
						c1,0.1,2,0.2,2.8,0.2c2.6,0,4.2-0.6,4.7-1.9C446.6,215.2,445.2,212.9,441.9,210.3L441.9,210.3z M438.6,200.2
						c1-0.1,1.9-0.2,2.6-0.2c2,0,3.4,0.4,3.7,1.2c0.5,1.1-0.9,3.1-3.6,5.3c-0.7,0.6-1.5,1.1-2.3,1.6c-1.8-1.1-3.7-2.3-5.9-3.3
						c-0.1-1.1-0.2-2.3-0.3-3.4C434.9,200.9,436.9,200.4,438.6,200.2L438.6,200.2z M429.1,213.4c-0.7,0.3-1.3,0.6-2,0.8
						c-0.7-0.3-1.3-0.5-2-0.8c-1-0.4-2-0.9-3-1.4c0-1.1-0.1-2.1-0.1-3.3s0-2.2,0.1-3.3c1-0.5,1.9-0.9,3-1.4c0.7-0.3,1.3-0.5,2-0.8
						c0.6,0.2,1.3,0.5,2,0.8c1,0.4,2,0.9,3,1.4c0,1.1,0.1,2.1,0.1,3.3s0,2.2-0.1,3.3C431.1,212.6,430.1,213,429.1,213.4L429.1,213.4
						z M432,213.3c-0.1,0.9-0.1,1.7-0.2,2.6c-1-0.3-2.1-0.7-3.2-1.1c0.3-0.1,0.6-0.2,0.9-0.4C430.4,214.1,431.2,213.7,432,213.3
						L432,213.3z M425.6,214.8c-1.1,0.4-2.2,0.8-3.2,1.1c-0.1-0.8-0.2-1.7-0.2-2.6c0.8,0.4,1.7,0.8,2.5,1.1
						C425,214.6,425.4,214.7,425.6,214.8L425.6,214.8z M421.1,211.5c-1.8-0.9-3.4-1.8-4.8-2.7c1.4-0.9,3-1.8,4.8-2.7
						c0,0.9,0,1.8,0,2.7S421,210.6,421.1,211.5L421.1,211.5z M422.2,204.3c0.1-0.9,0.1-1.7,0.2-2.6c1,0.3,2.1,0.7,3.2,1.1
						c-0.3,0.1-0.6,0.2-0.9,0.4C423.9,203.6,423.1,203.9,422.2,204.3L422.2,204.3z M428.6,202.8c1.1-0.4,2.1-0.8,3.2-1.1
						c0.1,0.8,0.2,1.7,0.2,2.6c-0.8-0.4-1.6-0.8-2.5-1.1C429.2,203.1,428.9,202.9,428.6,202.8L428.6,202.8z M433.2,206.1
						c1.7,0.9,3.4,1.8,4.8,2.7c-1.5,0.9-3.1,1.9-4.8,2.7c0-0.9,0-1.8,0-2.7S433.2,207,433.2,206.1z M427.1,189.5
						c1.8,0,3.7,4.3,4.5,11.2c-1.5,0.4-3,1-4.5,1.6c-1.5-0.6-3-1.1-4.5-1.6C423.5,193.8,425.4,189.5,427.1,189.5L427.1,189.5z
						 M409.4,201.2c0.3-0.8,1.6-1.2,3.7-1.2s5,0.5,8.4,1.4c-0.1,1.1-0.2,2.2-0.3,3.4c-2.1,1-4.1,2.2-5.9,3.3
						C411,205.3,408.8,202.6,409.4,201.2L409.4,201.2z M409.4,216.4c-0.6-1.4,1.6-4,5.9-6.9c1.8,1.1,3.8,2.3,5.9,3.3
						c0.1,1.1,0.2,2.3,0.3,3.4C414.8,218.1,410,218,409.4,216.4L409.4,216.4z M427.1,228.1c-1.8,0-3.7-4.3-4.5-11.2
						c1.5-0.4,3-1,4.5-1.6c1.5,0.6,3.1,1.1,4.5,1.6C430.8,223.8,428.9,228.1,427.1,228.1z M444.9,216.4c-0.5,1.1-2.8,1.5-6.3,1
						c-1.7-0.2-3.7-0.6-5.7-1.2c0.1-1.1,0.2-2.2,0.3-3.4c2.1-1.1,4.1-2.2,5.9-3.3c0.8,0.6,1.6,1.1,2.3,1.6
						C444,213.3,445.4,215.3,444.9,216.4L444.9,216.4z"/>
				</g>
				<g>
					<polygon class="st18" points="372.8,216.4 372.1,215.7 381.5,205 374.8,194.1 375.6,193.6 382.8,205.1 					"/>
					<polygon class="st18" points="394.6,208.3 381,205.3 395.3,194.9 395.9,195.7 383.4,204.8 394.8,207.3 					"/>
					<polygon class="st18" points="381.5,223.7 380.5,223.6 381.8,203.5 392.4,220.7 391.5,221.2 382.6,206.7 					"/>
					<g>
						<path class="st17" d="M377.9,193.8c0,1.5-1.2,2.7-2.7,2.7s-2.7-1.2-2.7-2.7s1.2-2.7,2.7-2.7S377.9,192.3,377.9,193.8z"/>
						<path class="st6" d="M384.9,205.1c0,1.5-1.2,2.7-2.7,2.7s-2.7-1.2-2.7-2.7s1.2-2.7,2.7-2.7S384.9,203.6,384.9,205.1z"/>
						<path class="st17" d="M383.7,223.7c0,1.5-1.2,2.7-2.7,2.7s-2.7-1.2-2.7-2.7s1.2-2.7,2.7-2.7S383.7,222.2,383.7,223.7z"/>
						<circle class="st4" cx="394.7" cy="207.8" r="2.7"/>
						<circle class="st6" cx="395.6" cy="195.3" r="2.7"/>
						<path class="st16" d="M394.7,221c0,1.5-1.2,2.7-2.7,2.7s-2.7-1.2-2.7-2.7s1.2-2.7,2.7-2.7S394.7,219.5,394.7,221z"/>
						<path class="st4" d="M375.2,216.1c0,1.5-1.2,2.7-2.7,2.7s-2.7-1.2-2.7-2.7s1.2-2.7,2.7-2.7S375.2,214.6,375.2,216.1z"/>
					</g>
				</g>
			</g>
			<g>
				<rect x="276.5" y="279.6" class="st4" width="7.3" height="156.5"/>
				<rect x="459.9" y="279.6" class="st4" width="7.3" height="156.5"/>
				<rect x="266" y="269.1" class="st6" width="213" height="15"/>
			</g>
			<g>
				<rect x="296.8" y="240.6" class="st6" width="21.8" height="4.4"/>
				<polygon class="st5" points="310.9,245 320.3,259.8 325.7,257.4 318.6,245 				"/>
				<g>
					<g>
						
							<rect x="301.2" y="196.6" transform="matrix(0.289 -0.9573 0.9573 0.289 30.9851 447.266)" class="st4" width="30.9" height="12.3"/>
						
							<rect x="316.5" y="178.9" transform="matrix(0.289 -0.9573 0.9573 0.289 55.5643 438.4244)" class="st6" width="13" height="5.8"/>
						
							<rect x="309" y="211.5" transform="matrix(0.289 -0.9573 0.9573 0.289 10.8864 454.5048)" class="st6" width="5" height="16.9"/>
						
							<rect x="303.2" y="224.7" transform="matrix(0.289 -0.9573 0.9573 0.289 1.5701 457.8552)" class="st4" width="11.6" height="6.4"/>
					</g>
					
						<rect x="318" y="200.9" transform="matrix(0.289 -0.9573 0.9573 0.289 35.3981 460.2728)" class="st6" width="19.1" height="10.7"/>
				</g>
				<path class="st14" d="M340.6,263.9c-0.2-2.2,13.3-29.9-1.9-55.1c-5.6-9.3-11.6-9.3-14-6c-2,2.8-1.3,7.6,3,13.9
					c5.1,7.6,3.5,27.6-9.3,47.2H340.6z"/>
				<rect x="292.7" y="263.9" class="st4" width="51.8" height="5.2"/>
				<path class="st6" d="M333.1,263.9c0,0,0-12.6-8.9-12.9s-9.6,12.9-9.6,12.9H333.1L333.1,263.9z"/>
				<circle class="st4" cx="323.8" cy="258.3" r="3.3"/>
				<path class="st4" d="M331.9,206.6c0,1.8-1.5,3.3-3.3,3.3s-3.3-1.5-3.3-3.3s1.5-3.3,3.3-3.3S331.9,204.8,331.9,206.6z"/>
				<path class="st6" d="M330,206.6c0,0.8-0.6,1.4-1.4,1.4s-1.4-0.6-1.4-1.4s0.6-1.4,1.4-1.4S330,205.9,330,206.6z"/>
			</g>
			<g>
				<rect x="448.5" y="228" class="st19" width="11.8" height="2.4"/>
				<path class="st20" d="M471.5,256.9c0,3.9-1.3,7.4-3.4,10.3c-1,1.3-2.6,2.1-4.2,2.1h-18.9c-1.7,0-3.2-0.8-4.2-2.1
					c-2.1-2.9-3.4-6.4-3.4-10.3c0-2.2,0.4-4.3,1.2-6.2c2-5,6.2-8.9,11.5-10.3v-9.9h8.9v9.9c5.3,1.4,9.6,5.3,11.5,10.3
					C471.1,252.6,471.5,254.7,471.5,256.9L471.5,256.9z"/>
				<path class="st16" d="M471.5,256.9c0,3.9-1.3,7.4-3.4,10.3c-1,1.3-2.6,2.1-4.2,2.1h-18.9c-1.7,0-3.2-0.8-4.2-2.1
					c-2.1-2.9-3.4-6.4-3.4-10.3c0-2.2,0.4-4.3,1.2-6.2h31.9C471.1,252.6,471.5,254.7,471.5,256.9L471.5,256.9z"/>
				<path class="st18" d="M443.7,259.2c0,0.6-0.5,1.1-1.1,1.1s-1.1-0.5-1.1-1.1s0.5-1.1,1.1-1.1S443.7,258.6,443.7,259.2z"/>
				<path class="st18" d="M461.5,258.3c0,1.4-1.2,2.6-2.6,2.6s-2.6-1.2-2.6-2.6s1.2-2.6,2.6-2.6S461.5,256.9,461.5,258.3z"/>
				<path class="st18" d="M454.4,262.8c0,0.9-0.7,1.5-1.5,1.5s-1.5-0.7-1.5-1.5s0.7-1.5,1.5-1.5S454.4,261.9,454.4,262.8z"/>
				<path class="st18" d="M468.5,255.9c0,0.6-0.5,1-1,1s-1-0.5-1-1s0.5-1,1-1S468.5,255.3,468.5,255.9z"/>
				<path class="st18" d="M447,262.8c0,0.6-0.5,1-1,1s-1-0.5-1-1s0.5-1,1-1S447,262.2,447,262.8z"/>
				<path class="st18" d="M452.9,254.9c0,0.9-0.8,1.7-1.7,1.7s-1.7-0.8-1.7-1.7s0.8-1.7,1.7-1.7S452.9,253.9,452.9,254.9z"/>
				<path class="st18" d="M463.5,264.6c0,0.6-0.5,1-1,1s-1-0.5-1-1s0.5-1,1-1S463.5,264,463.5,264.6z"/>
			</g>
			<g>
				<path class="st20" d="M382.4,235.2v30.7c0,1.8-1.5,3.2-3.2,3.2h-17.9c-1.8,0-3.2-1.4-3.2-3.2v-30.7L382.4,235.2L382.4,235.2z"/>
				<rect x="356.1" y="232.2" class="st19" width="28.1" height="3.1"/>
				<path class="st17" d="M382.4,247.7v18.2c0,1.8-1.5,3.2-3.2,3.2h-17.9c-1.8,0-3.2-1.4-3.2-3.2v-18.2H382.4z"/>
				<path class="st18" d="M367.3,254.7c0,1.4-1.1,2.5-2.5,2.5s-2.5-1.1-2.5-2.5s1.1-2.5,2.5-2.5S367.3,253.3,367.3,254.7z"/>
				<path class="st18" d="M374.4,252.9c0,0.6-0.5,1.1-1.1,1.1s-1.1-0.5-1.1-1.1s0.5-1.1,1.1-1.1S374.4,252.3,374.4,252.9z"/>
				<circle class="st18" cx="370.2" cy="261.5" r="1.4"/>
				<circle class="st18" cx="365.3" cy="263.8" r="0.5"/>
				<path class="st18" d="M378.8,258c0,0.9-0.7,1.6-1.6,1.6s-1.6-0.7-1.6-1.6s0.7-1.6,1.6-1.6S378.8,257.1,378.8,258z"/>
				<path class="st18" d="M375.2,265c0,0.4-0.4,0.8-0.8,0.8s-0.8-0.4-0.8-0.8s0.4-0.8,0.8-0.8S375.2,264.6,375.2,265z"/>
			</g>
			<g>
				<path class="st20" d="M424.4,265.8c0,1.8-1.5,3.2-3.2,3.2h-17.9c-1.8,0-3.2-1.4-3.2-3.2l3.6-10.2l4.1-11.6v-9.5h8.9v9.5
					l4.1,11.6L424.4,265.8L424.4,265.8z"/>
				<rect x="406.2" y="232.1" class="st19" width="11.8" height="2.4"/>
				<path class="st11" d="M424.4,265.8c0,1.8-1.5,3.2-3.2,3.2h-17.9c-1.8,0-3.2-1.4-3.2-3.2l3.6-10.2h17.1L424.4,265.8L424.4,265.8z
					"/>
				<path class="st18" d="M408.7,260.7c0,0.7-0.6,1.2-1.2,1.2s-1.2-0.6-1.2-1.2s0.6-1.2,1.2-1.2S408.7,260,408.7,260.7z"/>
				<circle class="st18" cx="416.2" cy="260.5" r="2.2"/>
				<path class="st18" d="M412.1,265.5c0,0.7-0.6,1.3-1.3,1.3s-1.3-0.6-1.3-1.3s0.6-1.3,1.3-1.3S412.1,264.8,412.1,265.5z"/>
				<path class="st18" d="M420.9,265c0,0.4-0.4,0.8-0.8,0.8s-0.8-0.4-0.8-0.8s0.4-0.8,0.8-0.8S420.9,264.6,420.9,265z"/>
				<path class="st18" d="M405.3,264.5c0,0.4-0.3,0.8-0.8,0.8s-0.8-0.3-0.8-0.8s0.3-0.8,0.8-0.8S405.3,264.1,405.3,264.5z"/>
			</g>
			<g>
				<g>
					<g>
						<path class="st21" d="M413.6,306.5c1.4-4.2,3.5-8.5,3.1-12.9c1.4-0.6,2.6,1.1,3.2,2.5c1.8,4.5,3.5,9.2,3.5,14.1
							c0,4.2-1.3,8.3-1.5,12.4c-0.3,6,1.8,11.9,2.4,17.9c1,10.4-2.3,20.8-1.9,31.3c0.1,3.5,0.7,6.9,0.5,10.3
							c-0.3,4.8-2.1,9.5-1.7,14.2c0.1,1.9,0.4,4.4-1.4,5.2c-2.3-6.2-4.7-12.6-5.5-19.2c-0.5-4.4-0.4-8.8-0.6-13.1
							c-0.1-3.9-0.5-7.8-0.9-11.7c-0.9-8.6-3.4-18.7-2.3-27.3C411.6,322.4,411.1,314.2,413.6,306.5L413.6,306.5z"/>
						<path class="st22" d="M410,381.4c-0.5-4.6-0.2-9.2-0.3-13.9c-0.2-11-2.5-21.8-3.4-32.7c-0.9-10.9-0.2-22.4,5-32
							c0.7,0.3,0.9,1.1,1,1.9c1.5,7.7,3,15.4,4.6,23.1c1.7,8.7,3.4,17.5,2.7,26.3c-0.4,4.8-1.6,9.6-1.9,14.4
							c-0.7,12.6,4.9,25.4,2,37.7c-0.1,0.5-2.9-3-3.2-3.5c-1.1-2.1-1.9-4.5-2.8-6.7C411.9,391.3,410.5,386.4,410,381.4L410,381.4z"
							/>
					</g>
					<g>
						<path class="st23" d="M403.1,388.8c-2.9-2.8-7.2-3.2-10.9-4.9c-5-2.3-8.5-7.4-9-12.9c-0.5-6.8,3.1-14.4-0.9-19.9
							c-3.9-5.4-12.8-4.9-16.7-10.2c-3.7-5.1-1.3-11.5-2.2-17.7c-1.2-8.5-18.4-18.3-9.3-24.9c3.1-2.3,7.1-1,9.2,2.3
							c2.1,3.3,5,7.6,7.2,10.8c6.5,9.5,20.6,10.5,23.3,21.6c0.7,3,0.3,6.4,1.5,9.2c3.1,7.1,14.9,7.5,17.2,14.9
							c1.1,3.6-0.5,7.4-1,11.1c-0.7,5.9,1.8,12,6.3,15.8c1.2,1,2.6,1.9,3.4,3.2c1.7,2.8,0.3,6.4-0.4,9.6c-1.3,6.1,0.6,11.5,3.5,16.6
							C412,419.9,408,393.6,403.1,388.8L403.1,388.8z"/>
						<path class="st18" d="M359.8,307.1c6.9,6,9.2,15.9,15.6,22.5c4.1,4.2,8.6,7.7,11.8,12.8c3,4.8,3.6,10.6,6.6,15.3
							c2.9,4.4,8,6.7,10.6,11.2c1.8,3,1.9,6.6,3.1,9.9c0.8,2.2,1.9,4,3.1,5.9c3.6,5.7,2.9,11.1,4,17.4c0.7,3.8,2.3,6.9,5.8,8.8
							c0.6,0.3,1.1-0.5,0.5-0.9c-6.5-4.1-4.7-11.9-5.9-18.3c-0.9-5.1-4.6-8.6-6.3-13.3c-1.6-4.6-1.9-9.1-5.3-12.9
							c-1.6-1.8-3.7-3.3-5.5-5c-2.9-2.7-4.5-5.7-5.8-9.4c-1.5-4.1-2.9-8-5.5-11.5c-3.2-4.3-7.4-7.4-11-11.3
							c-5.9-6.5-8.2-16.4-15.2-21.8C360,306,359.3,306.7,359.8,307.1L359.8,307.1L359.8,307.1z"/>
					</g>
					<g>
						<path class="st23" d="M421.5,377.5c0.8-4.4-0.7-8.9-1.1-13.3s0.8-9.7,4.8-11.6c1.4-0.6,2.9-0.8,4.2-1.6c2.6-1.7,3-5.4,2.9-8.5
							c-0.1-4.4-0.3-8.9,0.8-13.1c3.4-12.5,13.1-7.1,16.5-12.8c6-10.1,8.7-18,13.6-16.9c7.7,1.8,2.1,13.4,0.2,21.6
							c-0.8,3.4-1.9,6.9-1.2,10.3c0.6,3.5,3,6.8,2.3,10.3c-0.9,4.7-6.5,6.6-9.9,10c-3.7,3.7-4.8,9.8-2.6,14.5c1.3,2.9,3.8,5.7,3,8.7
							c-1.7,6.4-13.2,2.9-16.9,8.4c-2.5,3.8,0.5,9.3-1.5,13.3c-2.1,4.2-8.5,6.7-11.4,10.5c-2.7,3.5-2.7,5.5-6.5,1.2
							C409.4,398,419.8,387.7,421.5,377.5L421.5,377.5z"/>
						<path class="st18" d="M423,404.4c-0.2-6.7,1.4-12.4,5.6-17.7c2-2.6,4.5-5,5.8-8.1c1.5-3.4,1.1-6.7,0.5-10.2
							c-1.1-7.3,0.3-10.8,4.9-16.2c1.8-2.1,3.5-4.2,4.2-7c1.3-5.4-1.8-11,4.3-14.5c2.4-1.3,4.7-2.2,6-4.7c2-3.6,1-7.9,3.4-11.4
							c0.4-0.5-0.5-1.2-0.9-0.7c-2.2,2.5-1.9,5.3-2.7,8.5c-1.6,6.2-6.4,5.5-9.8,9.6c-2.2,2.7-1.5,5.8-1.4,9c0.2,6.3-3.6,9.3-7,13.9
							c-5.9,8,1.2,16.5-3.3,24.6c-2.5,4.4-6.5,7.5-8.6,12.2c-1.9,4-2.5,8.3-1.9,12.7C422.1,405,423,405,423,404.4L423,404.4
							L423,404.4z"/>
					</g>
				</g>
				<polygon class="st15" points="440.8,442.2 400.5,442.2 395.2,391.3 446.1,391.3 				"/>
			</g>
			<g>
				<polygon class="st5" points="345.2,442.2 302.5,442.2 299.2,392.7 348.4,392.7 				"/>
				<rect x="296.7" y="383.5" class="st4" width="54.2" height="9.1"/>
				<polygon class="st4" points="347,364 300.7,364 297.4,383.5 350.2,383.5 				"/>
				<polyline class="st6" points="340.9,383.5 340.9,364 306.8,364 306.8,383.5 				"/>
			</g>
		</g>
		<g>
			<g>
				<g>
					<path class="st5" d="M537,146.9c-7.8,14.4-10.1,25-16.3,40.2c-1.3,3.3-6.1,10.3-7.2,13.6c-1.2,3.8,10.1,8.8,14.4,5.2
						c8.8-7.4,12.4-17,19.1-26.4s12-20.2,12.3-31.6c0-1.8-0.1-3.7-0.9-5.3C553.3,132.8,542.5,136.7,537,146.9L537,146.9z"/>
					<path class="st7" d="M496.2,179.1c2.9,5.5-2.1,8.1-6.4,4.4c-3.5-3.1-4.9-6.6-4.4-10.4C487.8,176.4,491.2,168.1,496.2,179.1z"/>
					<path class="st5" d="M494.5,195.2c-1.5-2-7.3-9.1-7.3-11.7c0,0,3.2-1,5.5-2.8c2.3-1.8,4.9-3.3,6.5-5.8c3,5.1,4.3,7,8.2,9.2
						c4,2.2,7.2,1.6,11.5,3c10.6,3.4,17.5,19.1,4.1,21.3C514.7,209.9,500.7,203.7,494.5,195.2L494.5,195.2z"/>
					<path class="st8" d="M527.6,202.4c0-1.4,0-2.9-0.3-4.2c-0.3-1.4-1.1-2.5-1.8-3.6c-0.2-0.3,0.2-0.8,0.5-0.5
						c2.7,2,2.7,5.3,2.4,8.4C528.3,202.9,527.6,202.9,527.6,202.4L527.6,202.4L527.6,202.4z"/>
					<path class="st8" d="M524,202.2c0.9-2.4,0-4.2-0.9-6.4c-0.2-0.4,0.4-0.8,0.7-0.5c2.2,1.7,2.1,5,1,7.2
						C524.5,202.9,523.8,202.7,524,202.2L524,202.2L524,202.2z"/>
				</g>
				<g>
					<g>
						
							<rect x="482.3" y="147.6" transform="matrix(0.9323 -0.3616 0.3616 0.9323 -20.7844 186.5278)" class="st19" width="11.3" height="2.3"/>
						<path class="st20" d="M492.3,148.4l14.8,38.1c0.8,2.2-0.2,4.6-2.4,5.5c-2.2,0.8-4.6-0.2-5.5-2.4l-14.8-38.1L492.3,148.4
							L492.3,148.4z"/>
					</g>
					<path class="st17" d="M497.7,162.3l9.4,24.2c0.8,2.2-0.2,4.6-2.4,5.5c-2.2,0.8-4.6-0.2-5.5-2.4l-9.4-24.2L497.7,162.3
						L497.7,162.3z"/>
					<path class="st18" d="M495.7,167.6c0.2,0.7-0.1,1.4-0.7,1.6c-0.7,0.3-1.4-0.1-1.6-0.7c-0.3-0.7,0.1-1.4,0.7-1.6
						C494.7,166.6,495.4,166.9,495.7,167.6z"/>
					<path class="st18" d="M499.8,174.2c0.3,0.9-0.1,1.8-1,2.2s-1.8-0.1-2.2-1s0.1-1.8,1-2.2S499.5,173.3,499.8,174.2z"/>
					<path class="st18" d="M503.6,185.2c0.3,0.8-0.1,1.6-0.8,1.9s-1.6-0.1-1.9-0.8s0.1-1.6,0.8-1.9
						C502.5,184.1,503.4,184.4,503.6,185.2z"/>
					<path class="st18" d="M500.3,180.7c0.2,0.5,0,1.1-0.5,1.2c-0.5,0.2-1-0.1-1.2-0.6c-0.2-0.5,0-1.1,0.5-1.2
						C499.6,180,500.1,180.2,500.3,180.7z"/>
					<path class="st18" d="M497.3,170.1c0.3-0.1,0.6,0,0.7,0.3s0,0.6-0.3,0.7s-0.6,0-0.7-0.3S497.1,170.2,497.3,170.1z"/>
					<path class="st18" d="M502.7,181.6c0.3-0.1,0.6,0,0.7,0.3s0,0.6-0.3,0.7c-0.3,0.1-0.6,0-0.7-0.3S502.4,181.6,502.7,181.6z"/>
				</g>
				<path class="st7" d="M485.4,173.1c0.2-1.8,0.8-3.7,1.8-5.5c1.2-2.4,8.9-5.9,9.9-4.9c0.1,1.2-4.5,3.5-5.5,5.4
					c1.6,0.7,8.4-4.2,9.3-3c0.7,1.4-9.1,6.1-6.8,6.1c3.2-0.8,8.4-3.9,8.3-2.1c-2.4,1.9-7.7,4.5-7.8,5.5c1.3-0.4,6.9-2.4,5.9-1
					c-0.5,0.6-5.2,3.3-5.9,3.5C488.1,179.2,486.3,176.7,485.4,173.1L485.4,173.1z"/>
			</g>
			<path class="st16" d="M544.9,85.2c-2.1,2.1-6.6,5-2.6,11.7c1.2,2.1,2.4,4.2,2,6.6c-0.6,3.5-0.3,2.7-1.7,4.6
				c-1.7,2.2-4,5.4-0.8,8.2c0.9,0.8,5.7,4.1,3.1,7.4c-2.5,3.1-2.8,7.9-1,11.4c1.3,2.5,1.4,4.3,2.6,6.9c1.5,3.3,0.8,7.2,2.2,10.5
				c0.3,0.7,0.8,1.4,1.5,1.8c0.4,0.2,0.9,0.3,1.4,0.4c3.9,0.5,8-1.2,11.6,0.1c2.9,1.1,4.8,3.9,7.3,5.8c3.6,2.7,8.4,3.4,12.9,3.2
				c5-0.2,10.1-1.3,14-4.5s4.4-7.1,6.2-11.7c2.9-7.5-5.5-10.9-4.8-16.4c0.6-4,4.1-7.2,3-9.8c-0.8-1.9-1.6-3.4-2.9-5
				c-3.1-3.7-1.7-7.5-0.5-9.8s1.6-5.2,0.2-7.4c-0.8-1.2-2-1.9-3-2.9c-1.6-1.5-2.4-5-2.1-7.2c1.4-11.6-6.5-11.4-8.6-12.4
				c-1.5-0.8-0.5-6.2-12.5-5.6c-4.8,0.2-8.2,4.9-15.6,4C545.9,73.8,548.1,82,544.9,85.2L544.9,85.2z"/>
			<g>
				<path class="st4" d="M572.9,427.1c0.4,3,3.2,9.8,2.2,10.8c-1.2,1.2-27,2.5-37.4,1c-4.9-0.6-4-3.6,1.2-5.5
					c2.8-1,7.1-1.5,13.2-3.2C555.8,431.7,572.9,427.1,572.9,427.1L572.9,427.1z"/>
				<path class="st7" d="M561.2,417.5c0,0,2.4,7.9,0,9.6c-2.4,1.7-9.1,3-9.1,3s1,2.4,3.7,4.1s18.7-1.2,18.7-1.2s-2.5-8-2.8-14.6
					S560.8,414.1,561.2,417.5L561.2,417.5z"/>
				<path class="st4" d="M597.9,444.2c0.8,4.8-1.4,7.9-4,9c-3,1.2-8.8-0.5-11.4-3.2c-4.2-4.4-3-11.8-2.7-15.6
					c0.3-3.9,14.1-2.5,15.5,1.3C597.3,441.2,597.4,441.2,597.9,444.2L597.9,444.2z"/>
				<path class="st7" d="M581.1,419c0,0-1,12.8-1.2,15.3s1.6,8.2,8.8,7.7c6.8-0.5,8-3.5,6-8.6c-2-5.1-3.8-7.7-3.8-16
					S581.8,412.2,581.1,419L581.1,419z"/>
				<path class="st6" d="M595.3,349.2c0.1,14.7-2.2,52.3-2,74.6c-6.2,3.6-14.2,0.4-14.2,0.4c-2-26.5-4.5-47.9-7.4-75.1
					c-2-18.4-4.5-62.5-7.2-75.3c-1.3,0.3,0.7,44.5,2.2,67.2c1.9,28.8,5.5,41.7,6.6,81.6c-7.4,2.2-11.6,1.2-13.5-0.7
					c-3.1-21.8-11.8-58.7-14.8-80.4c-4.5-33.2-11.3-66.1-5.3-99.1c10,3.8,48.5,0.6,59,0.5c1.9,9.5,1.2,20.5,1.9,30.3
					C601.5,286.3,595.3,323.2,595.3,349.2z"/>
			</g>
			<g>
				<path class="st9" d="M569.8,129.9l35.2,19.1c0,0-14.5,40-13.5,56.9s0,26.3,0,26.3l-53-5.8c0,0-1.2-27.6-0.7-43.1
					c0.5-15.4,8.5-41.4,8.5-41.4L569.8,129.9L569.8,129.9z"/>
				<path class="st10" d="M582,124.7c0.8,2.5,1.1,6,1.7,7.3c2.1,4.5-17.1,14.1-21.9,12.7c-2.3-0.7-5.7-6.6-5.6-9
					c3.9,0.4,4.1-2.1,6-5.5c1.1-2,1.6-4.2,2-6.5c0.7-3.6,1.4-7.2,2-10.8c0.1-0.5,0.2-1,0.5-1.3c0.3-0.3,0.8-0.3,1.3-0.4
					c3-0.3,14-5.3,13.9-2.1C581.6,120,581,121.5,582,124.7z"/>
				<path class="st9" d="M581,141.8c0,0-7.8,10.6-19.7,6.5c-11.9-4.1-4.5-14.3-4.5-14.3l5.5-4.3c0,0-3.5,5.5-0.5,15
					c0,0,16-11.3,19.2-8.7S581,141.8,581,141.8L581,141.8z"/>
				<g>
					<g>
						<path class="st8" d="M604.9,141.6c1.5,1.4,0,39.3-4.3,45.6c-4.2,6.1-5,33.4-2.7,40.4c15.7,46.9,15.7,68.6,15.7,90.2
							c-13.5,4.5-36.4,7-50.4,4.8c-0.3-12.3-2.4-21-4.3-33.1c-1.2-7.6-6.4-88.3-0.9-113.9c0.3-1.5,10.8-24.8,15.9-34.5
							c3.3-6.3,4.5-12.7,10.9-9.7C590.8,134,600,137.1,604.9,141.6L604.9,141.6z"/>
						<path class="st8" d="M558.6,132.6c-5.8,0.8-13.7,4.8-15,6.9c-1.8,2.8-1,8.4-2,12.9c-3.5,15.7-10.2,14.9-10.2,25.7
							c0,13.1,5.5,20.3,6.3,43.2c0.6,19.8-14.6,50.3-7.2,98c11.2,2.2,15.4,2.6,26.1,2.6c-0.1-6.6,0-17.4,2.4-34.9
							c2.4-17.5,1.5-45.7,1.8-52.2c0.9-22.9,1-32.1-2.9-55.5C555.2,163.5,558.4,147.3,558.6,132.6L558.6,132.6z"/>
					</g>
					<path class="st5" d="M555.9,200c0.1,14.5,0.3,29,0.8,43.5c0.5,14.4,2.2,29,2.3,43.4c0,1-1.6,1.3-1.8,0.2
						c-2.4-13.9-2.1-28.8-2.5-42.8c-0.5-14.8-0.8-29.6,0-44.4C554.7,199.2,555.9,199.2,555.9,200L555.9,200L555.9,200z"/>
					<path class="st5" d="M590.5,261.8c-3.1,0.1-6.2,0.1-9.3,0.2c-2.7,0-5.6,0.4-8.2-0.3c-0.7-0.2-0.7-1.1,0-1.3
						c2.6-0.7,5.5-0.4,8.2-0.3c3.1,0,6.2,0.1,9.3,0.2C591.6,260.2,591.6,261.7,590.5,261.8L590.5,261.8L590.5,261.8z"/>
					<path class="st5" d="M544.3,259.7c-3.1,0.4-6.4,0.5-9.5,0.1c-0.9-0.1-0.9-1.7,0-1.8c3.1-0.4,6.4-0.3,9.5,0.1
						C545.1,258.2,545.1,259.6,544.3,259.7L544.3,259.7L544.3,259.7z"/>
					<path class="st5" d="M581.8,173.4c-2-0.1-4-0.4-5.9-1c-1.5-0.5-3.5-0.9-4.4-2.3c-0.3-0.5,0.1-1,0.6-1.1c1.5-0.1,2.9,1,4.3,1.4
						c1.8,0.6,3.5,1,5.4,1.2C582.9,171.8,583,173.5,581.8,173.4L581.8,173.4L581.8,173.4z"/>
				</g>
				<path class="st6" d="M571.3,152.3c-1.9-4.5-0.1-6.4-3.1-10.3c-2.3,2.1-4.5,4.2-6.8,6.2c-0.5-2.3-1.1-4.5-1.9-6.7
					c-2.5,2.2-3.5,4.6-5.7,7.1c-1.2-4.2-1.8-7.7,0-12.5c1.8-4.9,4.8-6.4,8.5-6.6c-0.5,4.5,0,9,1.5,13.3c3.9-2.4,14.5-11.7,18.2-18.3
					c0,0,4.8,4.4,4.8,7.5C586.8,135.9,574.5,148.7,571.3,152.3L571.3,152.3z"/>
			</g>
			<g>
				<g>
					
						<ellipse transform="matrix(0.7707 -0.6372 0.6372 0.7707 27.79 371.1204)" class="st4" cx="529.6" cy="146.9" rx="11" ry="11"/>
					
						<rect x="532.8" y="155.8" transform="matrix(0.9687 -0.2482 0.2482 0.9687 -24.4209 137.8192)" class="st4" width="3.3" height="20"/>
					<path class="st20" d="M538.2,144.7c1.2,4.8-1.7,9.6-6.4,10.9s-9.6-1.7-10.9-6.4c-1.2-4.8,1.7-9.6,6.4-10.9
						S537,139.9,538.2,144.7z"/>
					<path class="st15" d="M532,165.6l2.7,10.7c0.3,1.2,1.6,2,2.8,1.7s2-1.6,1.7-2.8l-2.7-10.7L532,165.6L532,165.6z"/>
					<path class="st18" d="M523.8,148.6c2,1.2,3.9,2.3,5.9,3.5c1,0.6,1.8-0.9,0.9-1.5c-2-1.2-3.9-2.3-5.9-3.5
						C523.7,146.5,522.9,148,523.8,148.6L523.8,148.6z"/>
					<path class="st18" d="M525,143.8c3.1,1.8,6.1,3.6,9.2,5.4c1,0.6,1.8-0.9,0.9-1.5c-3.1-1.8-6.1-3.6-9.2-5.4
						C525,141.7,524.1,143.2,525,143.8L525,143.8z"/>
					<path class="st18" d="M529.4,142.1c1,0.6,2.1,1.2,3.2,1.9c1,0.6,1.8-0.9,0.9-1.5c-1-0.6-2.1-1.2-3.2-1.9
						C529.3,140.1,528.4,141.6,529.4,142.1L529.4,142.1z"/>
				</g>
				<path class="st7" d="M535.6,170.5c-0.5-0.2-8.5-0.3-8.4-1.4c0.1-0.9,7.5-0.8,6.1-0.9c-4.8-0.5-9-1.2-7.9-1.9
					c1.6-1,5.7-0.4,8.7-0.8c-1.6-0.7-3.7-0.6-5.3-0.6c-1.6-0.1-6-0.2-4.5-1.4c2.5-0.5,6.7-1.1,9.3-0.8c-1.5-1.6-9.5-1.4-7-3.2
					c2.8,0,5.6-0.1,8.4-0.1c1.8,0,3.7,1.2,4.2,1.7c1.9,1.9,3.6,5.4,4.9,7.8c1.5,2.8,8.2,6.2,13.1,10.4c4.6,6.9,1.4,13.5-4.5,8.9
					c-2.4-1.9-6.2-8.2-9.5-10.8c-1.7-1.4-3.6-0.6-4.7-1.8C537.6,174.5,535.9,170.7,535.6,170.5L535.6,170.5z"/>
				<g>
					<path class="st14" d="M606.2,181c-4.5,13.6-4.8,17.3-12.6,29.4c-2.5,3.9-5.5,6.2-11.7,4.3c-5-1.6-28.7-20.2-38.2-27.9
						c3.8-5.2,6-8.9,8.9-14.7c10.5,7.7,19.2,13.1,30.6,19.5c1.7-10.2,6.4-55.7,19-52.1c5.8,1.6,8.9,7.8,9,14
						C611.3,159.4,610.1,169.2,606.2,181L606.2,181z"/>
					<path class="st5" d="M548.9,187.1c0,1,0.8,1.9,1.9,1.9s1.9-0.8,1.9-1.9s-0.8-1.9-1.9-1.9S548.9,186.1,548.9,187.1z"/>
					<circle class="st5" cx="557.7" cy="191.9" r="1.9"/>
					<path class="st8" d="M585.1,193c2.6,3.6,5.4,9.2,4.4,13.8c-0.2,1-1.5,0.8-1.8,0c-0.8-2-0.9-4.2-1.5-6.3
						c-0.7-2.3-1.7-4.4-2.9-6.4C582.6,192.9,584.3,192,585.1,193L585.1,193L585.1,193z"/>
					<path class="st8" d="M582.5,194.6c1.6,4.9,1.9,11-0.9,15.5c-0.5,0.7-1.6,0.3-1.4-0.6c1.2-5.1,2.3-9.4,0.9-14.6
						C580.9,194,582.2,193.7,582.5,194.6L582.5,194.6L582.5,194.6z"/>
				</g>
			</g>
			<g>
				<path class="st7" d="M582,112.8c-1.1,7.4-6.8,12.4-11.2,15.2c-4.3,2.8-6.9,4.8-11.1,1.8c-1.8-1.2-5.1-4.7-6.1-6.6
					c-2-3.8-2.9-5.9-3.5-10.1c-0.7-5.2,0.9-8.8-0.3-15.3c-1-5.1-1.2-9.2,1.4-13.8c4.2-7.5,16-7.1,23.2-5.9c3.2,0.5,6.2,2.7,8,5.4
					C588.1,91.8,584,99.5,582,112.8L582,112.8z"/>
				<path class="st24" d="M567.7,113.6c0.8,0.2,1.9,0.3,2.8,0.2c1.3-0.3,1.3-2.4,0-2.7c-0.9-0.2-1.9-0.1-2.8,0.2
					C566.5,111.5,566.5,113.2,567.7,113.6L567.7,113.6z"/>
				<path class="st24" d="M552.8,114.2c0.4,0,0.9,0,1.3,0.1c0.9,0,1.6-0.8,1.5-1.7c-0.1-0.9-1-1.4-1.8-1.2l-1.3,0.3
					c-0.6,0.1-1,0.8-0.9,1.4C551.6,113.7,552.1,114.1,552.8,114.2L552.8,114.2L552.8,114.2z"/>
				<path class="st16" d="M575.3,86.3c-1,6.5,5.3,7.1,3.9,11.2c-1.7,5.1,0.2,7.4,3.1,10.6c0.8,0.8,2,0.5,3.1,0.6
					c1.5,0.1,2.9-0.7,4.3-0.3c1.1-6.7,2.1-13.6,0.9-20.3c-0.6-3.3-8.2-10.7-8.6-10.8c-0.4-0.1-26.8-2.9-30.7,1.4
					c-3,3.3-4.2,7.8-4.5,12.3c-0.1,1.9,0.3,4.2,2.6,3.8c2-0.3,4.2-2.2,6.1-1.4c5.3,2.2,4.6-5.6,11.4-3.6
					C571.1,91,574.6,87,575.3,86.3L575.3,86.3z"/>
				<path class="st7" d="M586.1,102.8c2.2,1.4,2.2,4.3,1.6,6.8c-0.7,2.4-3.1,4.5-5.6,4.6c-3.3,0.1-2.9-3.8-2.7-6.1
					C580,101.9,583.6,101.1,586.1,102.8L586.1,102.8z"/>
				<path class="st4" d="M565.7,106c0,1.5,0.7,2.6,1.5,2.6s1.5-1.2,1.5-2.6s-0.7-2.6-1.5-2.6S565.7,104.6,565.7,106z"/>
				<path class="st4" d="M553.1,106c0,1.5,0.7,2.6,1.5,2.6s1.5-1.2,1.5-2.6s-0.7-2.6-1.5-2.6S553.1,104.6,553.1,106z"/>
				<path class="st10" d="M582.2,104.5c0.8-0.9,2.1-0.9,3.1-0.3c1.2,0.7,1.6,2.2,1.5,3.5c-0.1,1.5-1.2,5.1-3.2,4.6
					c-0.2-0.1-0.4-0.4-0.2-0.6c0.4-0.5,0.9-0.7,1.2-1.2c0.4-0.5,0.6-1.2,0.8-1.8c0.4-1.6-0.1-5.1-2.6-3.5
					C582.3,105.5,581.8,104.9,582.2,104.5L582.2,104.5L582.2,104.5z"/>
				<path class="st10" d="M581.5,107.2c1.2-0.4,2.3,0.1,2.3,1.4c0,1.3-0.8,2.4-2,2.7c-0.5,0.1-0.7-0.5-0.3-0.7
					c0.5-0.4,1-1.2,1.2-1.8c0.1-0.7-0.2-0.8-0.8-0.6C581.1,108.4,580.8,107.4,581.5,107.2L581.5,107.2L581.5,107.2z"/>
				<path class="st10" d="M559.9,106.9c0,3.3-0.9,6.1-2.2,9.1c-0.2,0.4,0,1.1,0.6,1.1c0.9-0.1,1.9,0.1,2.8,0.2
					c0.5,0,0.7-0.7,0.2-0.9c-1-0.5-2-0.6-3-0.7c0.2,0.4,0.4,0.7,0.6,1.1c1.3-3.1,2.9-6.6,2-10C560.7,106.2,559.9,106.4,559.9,106.9
					L559.9,106.9L559.9,106.9z"/>
				<path class="st10" d="M557.6,120.9c3.2,1.6,6.9,1.5,9.4-1.4c0.4-0.5-0.1-1.2-0.7-0.9c-1.2,0.6-2.1,1.5-3.4,1.9
					c-1.7,0.5-3.3,0-5-0.5C557.4,119.9,557.1,120.7,557.6,120.9L557.6,120.9L557.6,120.9z"/>
				<path class="st16" d="M564.8,99.2c0.8-0.2,1.5-0.8,2.3-1c1.6-0.4,2.7,0.3,4,1c0.4,0.2,0.8-0.3,0.5-0.6c-1-1.3-2.7-1.7-4.2-1.4
					c-1,0.2-2.4,0.6-3,1.5C564,98.8,564.4,99.3,564.8,99.2L564.8,99.2L564.8,99.2z"/>
				<path class="st16" d="M558.3,98.5c-0.6-0.9-2.1-1.3-3-1.5c-1.5-0.2-3.2,0.2-4.2,1.4c-0.3,0.3,0.1,0.9,0.5,0.6
					c1.3-0.7,2.4-1.3,4-1c0.8,0.2,1.5,0.8,2.3,1C558.1,99.3,558.5,98.8,558.3,98.5L558.3,98.5L558.3,98.5z"/>
				<path class="st25" d="M578.9,83.9c-1.4,2.4-0.1,5.3,2,6.7c2.1,1.3,2.9,2.9,2.8,5.4c0,1.7-1.2,4.1,0.8,5.1
					c0.3,0.2,0.8-0.2,0.5-0.6c-1.6-2.8,0.7-6.5-1.6-9.3c-1.7-2.1-6-3-3.9-6.9C580,83.8,579.2,83.4,578.9,83.9L578.9,83.9L578.9,83.9
					z"/>
				<path class="st25" d="M582.4,82.1c1.8,0.8,4,1.5,5,3.3c1.3,2.3,0.4,6.1,1.2,8.8c1.1,3.6,4.7,6.6,2.9,10.3
					c-0.3,0.5,0.4,1.2,0.9,0.7c3.4-3.7-1.5-7.7-2.6-11.4c-1-3.2,0.5-7.1-1.8-9.9c-1.3-1.6-3.3-2.2-5.2-2.8
					C582.3,81,581.9,81.9,582.4,82.1L582.4,82.1L582.4,82.1z"/>
				<path class="st25" d="M548,88.1c4.7,2.5,7-0.3,10.6-2.7c2.7-1.8,5,0.4,7.8-0.1c2.7-0.5,4.8-4.2,7.9-2.5c0.5,0.2,0.9-0.4,0.4-0.7
					c-1.3-0.8-2.1-0.9-3.5-0.5c-3.1,0.9-3.3,3.3-7.5,2.6c-1.9-0.3-3-1.1-4.7-0.2c-3.8,1.9-5,6-10.6,3.5
					C548,87.3,547.6,87.9,548,88.1L548,88.1L548,88.1z"/>
				<path class="st25" d="M550.3,80.6c1.5,0.9,3.5,2,5.4,1.6c1.2-0.2,1.3-0.7,2.3-1.3c2.5-1.6,3.8-2.6,6.7-1.7
					c5.3,1.6,5.3-5.4,11.2-2.7c0.2,0.1,0.6-0.2,0.3-0.4c-4.4-3.4-5.6,1.1-9.3,2.2c-2.1,0.6-3.5-1.1-5.7-0.8
					c-0.7,0.1-1.3,0.4-1.9,0.8c-1.9,1.2-1.6,1.8-4,2.4c-2.2,0.5-2.9,0.3-4.7-0.7C550.3,79.7,549.9,80.3,550.3,80.6L550.3,80.6
					L550.3,80.6z"/>
				<path class="st25" d="M587.7,115.5c-1,1.2-1.8,2.6-0.7,4c1,1.2,2.4,1.4,2.8,3.1c0.4,1.7-0.6,3.2-0.7,4.9c0,0.4,0.5,0.4,0.7,0.2
					c1.1-1.5,1.5-3.8,1-5.6c-0.2-0.7-0.6-1.3-1.1-1.8c-1.2-1.2-3-1.9-1.3-4.2C588.6,115.6,588,115.1,587.7,115.5L587.7,115.5
					L587.7,115.5z"/>
				<path class="st25" d="M594,109.7c-3.4,3.2-2.6,5.6-0.4,8.9c1.5,2.4,0.9,4.6,0.2,7.2c-0.3,1-0.7,1.9-0.5,2.9
					c0.2,1.9,1.5,3.1,2.9,4.2c0.5,0.4,1.2-0.2,0.7-0.7c-1-1.2-2.4-2.2-2.5-4c0-0.5,1-3.1,1.2-3.5c0.5-1.4,0.8-2.4,0.5-3.9
					c-1-4.3-6.5-5.4-1.4-10.6C594.9,109.9,594.4,109.4,594,109.7L594,109.7L594,109.7z"/>
				<path class="st25" d="M547.2,116.7c-0.4-0.6-0.8-1.2-1.2-1.8c-1.3-2.8-0.7-4.2,0.6-6.7c0.8-1.5,1.7-2.8,1.9-4.5
					c0.3-2.9-1.4-5.7-2.7-8.1c-0.2-0.3-0.7-0.1-0.6,0.2c1.3,3.4,2.9,6.3,1.7,10.1c-0.5,1.7-2.2,2.8-2.6,4.6
					c-0.5,2.3,0.8,4.9,2.4,6.5C547,117.2,547.4,116.9,547.2,116.7L547.2,116.7L547.2,116.7z"/>
				<path class="st25" d="M548.3,123.6c0.1,2.9-3.1,7.7,0.3,9.9c0.4,0.2,0.9-0.2,0.6-0.6c-2.2-2.9,0-6.1-0.5-9.3
					C548.7,123.3,548.3,123.3,548.3,123.6L548.3,123.6L548.3,123.6z"/>
				<path class="st25" d="M551.7,126.6c-0.6,1.4-0.6,3.7,0.8,4.6c0.2,0.2,0.5-0.1,0.5-0.4c-0.1-0.6-0.4-1.2-0.5-1.9
					c-0.1-0.7-0.1-1.5,0.1-2.2C552.7,126.3,551.9,126.1,551.7,126.6L551.7,126.6L551.7,126.6z"/>
			</g>
		</g>
	</g>
</g>
</svg>
